<svg width="407" height="362" viewBox="0 0 407 362" fill="none" xmlns="http://www.w3.org/2000/svg">
<path d="M293.026 171.812C296.976 169.423 301.229 167.574 305.671 166.314L308.271 153.805L329.415 153.431L332.457 165.847C336.941 166.949 341.257 168.646 345.289 170.894L355.989 163.866L371.2 178.56L364.58 189.48C366.958 193.427 368.798 197.674 370.053 202.108L382.562 204.709L382.936 225.852L370.521 228.895C369.419 233.374 367.724 237.687 365.481 241.718L372.484 252.409L357.79 267.621L346.87 260.992C342.92 263.383 338.667 265.232 334.225 266.491L331.624 279L310.481 279.374L307.438 266.958C302.957 265.857 298.644 264.16 294.615 261.91L283.924 268.921L268.712 254.228L275.341 243.308C272.95 239.358 271.101 235.104 269.842 230.662L257.333 228.062L256.959 206.918L269.375 203.876C270.471 199.398 272.163 195.088 274.406 191.061L267.404 180.37L282.088 165.158L293.009 171.787L293.026 171.812ZM304.294 199.975C301.18 203.204 299.093 207.283 298.297 211.697C297.501 216.111 298.032 220.663 299.822 224.775C301.613 228.888 304.582 232.377 308.356 234.803C312.129 237.228 316.537 238.48 321.022 238.4C325.506 238.32 329.867 236.913 333.552 234.355C337.237 231.798 340.08 228.205 341.724 224.032C343.367 219.858 343.736 215.291 342.784 210.908C341.832 206.524 339.601 202.522 336.375 199.406C334.232 197.335 331.702 195.707 328.929 194.615C326.157 193.522 323.196 192.987 320.216 193.04C317.237 193.093 314.297 193.733 311.565 194.923C308.833 196.113 306.362 197.83 304.294 199.975Z" fill="#E0E0E0"/>
<path d="M343.938 286.648C345.563 285.667 347.313 284.906 349.139 284.388L350.21 279.238L358.912 279.085L360.161 284.184C362.005 284.641 363.78 285.341 365.439 286.266L369.832 283.385L376.095 289.427L373.367 293.889C374.351 295.516 375.111 297.268 375.628 299.098L380.778 300.169L380.931 308.863L375.832 310.12C375.378 311.961 374.681 313.733 373.758 315.389L376.639 319.791L370.597 326.046L366.101 323.327C364.474 324.305 362.726 325.065 360.901 325.587L359.83 330.728L351.128 330.881L349.878 325.783C348.033 325.334 346.258 324.637 344.601 323.709L340.199 326.59L333.944 320.548L336.672 316.052C335.687 314.44 334.924 312.702 334.403 310.885L329.253 309.814L329.1 301.121L334.199 299.863C334.654 298.02 335.352 296.246 336.273 294.586L333.392 290.192L339.434 283.929L343.93 286.657L343.938 286.648ZM348.578 298.24C347.291 299.569 346.426 301.25 346.095 303.071C345.764 304.892 345.981 306.77 346.718 308.467C347.455 310.165 348.679 311.605 350.236 312.606C351.792 313.608 353.611 314.124 355.461 314.091C357.311 314.057 359.11 313.476 360.629 312.419C362.149 311.362 363.32 309.879 363.996 308.156C364.671 306.433 364.82 304.548 364.423 302.741C364.026 300.933 363.102 299.284 361.767 298.002C359.984 296.29 357.595 295.353 355.124 295.398C352.652 295.442 350.298 296.464 348.578 298.24Z" fill="#E0E0E0"/>
<path d="M26.8026 183.914C28.7924 182.715 30.9329 181.786 33.1678 181.152L34.4765 174.855L45.1247 174.668L46.6544 180.914C48.9109 181.473 51.0829 182.331 53.113 183.463L58.4924 179.937L66.1408 187.33L62.801 192.82C64 194.81 64.9288 196.95 65.5629 199.185L71.8601 200.494L72.047 211.133L65.8008 212.672C65.2428 214.926 64.3854 217.095 63.2514 219.122L66.7781 224.501L59.3847 232.149L53.8864 228.818C51.8969 230.02 49.7564 230.951 47.5212 231.589L46.2125 237.886L35.6068 238.081L34.0601 231.852C31.8024 231.296 29.63 230.439 27.6015 229.303L22.2221 232.829L14.5738 225.436L17.905 219.955C16.6984 217.968 15.7665 215.827 15.1346 213.589L8.83747 212.281L8.65051 201.641L14.8967 200.111C15.4584 197.856 16.3156 195.684 17.4461 193.653L13.9194 188.273L21.3128 180.625L26.8111 183.956L26.8026 183.914ZM32.4794 198.089C30.9096 199.713 29.8568 201.767 29.4542 203.99C29.0517 206.213 29.3174 208.506 30.2178 210.578C31.1183 212.65 32.613 214.408 34.5129 215.63C36.4128 216.853 38.6325 217.484 40.8913 217.445C43.1502 217.406 45.3467 216.698 47.203 215.41C49.0592 214.122 50.492 212.313 51.3199 210.211C52.1479 208.109 52.3338 205.809 51.8543 203.601C51.3748 201.393 50.2513 199.377 48.626 197.808C46.4473 195.705 43.5225 194.553 40.4947 194.605C37.4668 194.658 34.5838 195.911 32.4794 198.089Z" fill="#E0E0E0"/>
<path d="M366.458 122.395C367.821 121.574 369.287 120.936 370.818 120.5L371.719 116.183L379.01 116.056L380.064 120.305C381.609 120.69 383.098 121.275 384.491 122.047L388.171 119.633L393.423 124.732L391.137 128.506C391.962 129.867 392.6 131.333 393.032 132.865L397.349 133.766L397.477 141.057L393.228 142.111C392.863 143.654 392.292 145.141 391.528 146.53L393.95 150.218L388.851 155.47L385.078 153.184C383.715 154.006 382.249 154.643 380.718 155.079L379.783 159.396L372.492 159.524L371.438 155.275C369.894 154.907 368.405 154.335 367.011 153.575L363.322 155.997L358.079 150.898L360.365 147.134C359.54 145.769 358.902 144.3 358.47 142.765L354.153 141.873L354.025 134.573L358.274 133.528C358.642 131.983 359.213 130.494 359.974 129.1L357.561 125.412L362.66 120.169L366.433 122.446L366.458 122.395ZM370.35 132.117C369.273 133.23 368.549 134.638 368.272 136.162C367.995 137.686 368.176 139.258 368.793 140.679C369.409 142.1 370.434 143.306 371.737 144.145C373.04 144.983 374.562 145.416 376.111 145.388C377.66 145.361 379.166 144.875 380.438 143.991C381.71 143.107 382.692 141.865 383.258 140.423C383.824 138.981 383.949 137.404 383.618 135.89C383.287 134.377 382.515 132.996 381.398 131.922C379.906 130.484 377.905 129.697 375.834 129.734C373.762 129.77 371.79 130.628 370.35 132.117Z" fill="#E0E0E0"/>
<path d="M122.288 31.9406C125.761 29.8479 129.496 28.2248 133.395 27.1136L135.681 16.1254L154.25 15.8025L156.927 26.7057C160.857 27.6752 164.641 29.1642 168.179 31.1332L177.527 24.9805L190.886 37.8808L185.115 47.4412C187.21 50.9129 188.834 54.6481 189.942 58.5484L200.931 60.8344L201.253 79.4114L190.35 82.0799C189.382 86.0162 187.893 89.8059 185.923 93.3485L192.067 102.696L179.175 116.064L169.581 110.328C166.109 112.423 162.374 114.046 158.474 115.155L156.188 126.143L137.585 126.474L134.917 115.571C130.979 114.607 127.189 113.118 123.648 111.144L114.3 117.296L100.932 104.379L106.745 94.7847C104.639 91.3125 103.007 87.5741 101.893 83.669L90.9045 81.383L90.5815 62.8145L101.485 60.1375C102.449 56.1999 103.938 52.4098 105.912 48.8689L99.7596 39.5209L112.685 26.1278L122.288 31.9406ZM132.189 56.6788C129.45 59.5137 127.613 63.0973 126.911 66.9761C126.209 70.855 126.673 74.8549 128.245 78.4699C129.816 82.085 132.425 85.1528 135.74 87.2853C139.055 89.4178 142.928 90.5192 146.87 90.4503C150.811 90.3813 154.643 89.1451 157.882 86.8979C161.12 84.6507 163.62 81.4935 165.064 77.8257C166.508 74.1579 166.832 70.1442 165.995 66.2923C165.157 62.4404 163.197 58.9233 160.36 56.1859C158.478 54.3668 156.256 52.9364 153.821 51.9766C151.386 51.0168 148.785 50.5463 146.168 50.5921C143.551 50.6379 140.968 51.199 138.568 52.2434C136.168 53.2878 133.997 54.795 132.18 56.6788H132.189Z" fill="#E0E0E0"/>
<path d="M382.386 360.829H383.439H386.601V360.923C368.907 361.025 294.718 361.093 205.921 361.093L75.1675 361.025L35.5404 360.923L24.7647 360.88H21.9688H21.0085H21.9688H24.7647L35.5404 360.744L75.1675 360.676L205.921 360.608C294.718 360.608 368.907 360.685 386.601 360.787V360.88H383.439C382.734 360.846 382.386 360.829 382.386 360.829Z" fill="#0C0910"/>
<path d="M245.281 88.5854C249.159 65.108 233.271 42.9318 209.793 39.0535C186.316 35.1753 164.14 51.0636 160.261 74.5411C156.383 98.0185 172.272 120.195 195.749 124.073C219.226 127.951 241.403 112.063 245.281 88.5854Z" fill="white"/>
<path d="M245.854 81.5703C245.806 81.3408 245.778 81.1077 245.769 80.8734C245.769 80.372 245.693 79.6922 245.625 78.8253C245.625 78.3749 245.566 77.8735 245.532 77.3212C245.498 76.7688 245.353 76.1739 245.251 75.528C245.055 74.0294 244.751 72.5469 244.342 71.092C243.331 67.0711 241.718 63.2261 239.557 59.6874C234.45 51.1615 226.532 44.6812 217.164 41.3606C207.797 38.0401 197.565 38.0869 188.228 41.4928C186.319 42.1826 184.459 43.0032 182.662 43.9488C180.836 44.9517 179.086 46.0879 177.427 47.3481C175.724 48.6083 174.109 49.9825 172.592 51.4612C171.088 53.0134 169.691 54.6658 168.41 56.4071C165.758 59.9713 163.698 63.9399 162.309 68.1601C159.374 76.8942 159.374 86.3482 162.309 95.0824C163.698 99.3034 165.755 103.274 168.402 106.844C169.685 108.583 171.082 110.235 172.583 111.79C174.107 113.267 175.725 114.644 177.427 115.911C179.09 117.166 180.84 118.302 182.662 119.311C184.459 120.254 186.319 121.071 188.228 121.758C195.404 124.366 203.145 125.014 210.655 123.636C216.616 122.513 222.272 120.141 227.251 116.677C232.231 113.214 236.422 108.736 239.549 103.538C241.708 100.002 243.321 96.1597 244.333 92.142C244.742 90.684 245.046 89.1987 245.243 87.6974C245.345 87.0516 245.464 86.4567 245.523 85.9043C245.582 85.3519 245.591 84.8506 245.616 84.4002C245.684 83.5503 245.727 82.8535 245.761 82.3606C245.769 82.1262 245.797 81.893 245.846 81.6637C245.861 81.8958 245.861 82.1286 245.846 82.3606C245.846 82.862 245.846 83.5418 245.778 84.4087C245.778 84.8676 245.778 85.3689 245.727 85.9213C245.676 86.4737 245.574 87.0856 245.489 87.7399C245.314 89.2514 245.03 90.7482 244.639 92.2185C243.674 96.2917 242.089 100.193 239.94 103.785C236.805 109.063 232.585 113.616 227.558 117.141C222.532 120.666 216.813 123.083 210.782 124.231C203.147 125.672 195.265 125.041 187.956 122.404C186.009 121.708 184.113 120.879 182.279 119.923C180.426 118.911 178.643 117.775 176.943 116.523C175.206 115.238 173.556 113.838 172.005 112.334C170.477 110.752 169.057 109.068 167.756 107.294C165.051 103.66 162.948 99.6139 161.527 95.3118C158.536 86.4037 158.536 76.7623 161.527 67.8542C162.946 63.5495 165.052 59.503 167.765 55.8717C169.063 54.096 170.483 52.4122 172.014 50.8323C173.565 49.3221 175.217 47.9194 176.96 46.6342C178.656 45.3762 180.439 44.2403 182.296 43.2349C184.128 42.275 186.025 41.4458 187.973 40.7535C195.277 38.1203 203.154 37.4952 210.782 38.9433C216.826 40.0993 222.554 42.5289 227.586 46.0704C232.618 49.612 236.838 54.1844 239.965 59.4835C242.115 63.0754 243.7 66.9763 244.665 71.0495C245.056 72.5227 245.34 74.0223 245.515 75.5365C245.599 76.1909 245.701 76.7858 245.752 77.3467C245.803 77.9075 245.752 78.4004 245.803 78.8593C245.803 79.7092 245.854 80.406 245.871 80.9074C245.879 81.1285 245.873 81.3498 245.854 81.5703Z" fill="#0C0910"/>
<path d="M253.316 116.846C253.316 118.038 252.962 119.203 252.3 120.194C251.637 121.185 250.696 121.958 249.594 122.413C248.493 122.869 247.281 122.988 246.112 122.755C244.943 122.522 243.869 121.947 243.027 121.103C242.185 120.26 241.612 119.186 241.38 118.016C241.149 116.847 241.269 115.635 241.726 114.534C242.184 113.434 242.957 112.493 243.949 111.832C244.941 111.171 246.107 110.819 247.299 110.821C248.09 110.821 248.873 110.977 249.604 111.28C250.334 111.583 250.998 112.026 251.557 112.586C252.115 113.146 252.558 113.81 252.86 114.541C253.162 115.272 253.317 116.055 253.316 116.846Z" fill="white"/>
<path d="M253.316 116.846C253.239 116.846 253.239 116.311 252.967 115.418C252.59 114.166 251.814 113.071 250.758 112.3C249.991 111.743 249.099 111.384 248.161 111.255C247.222 111.126 246.267 111.231 245.378 111.56C244.301 111.963 243.373 112.685 242.717 113.629C242.062 114.574 241.711 115.696 241.711 116.846C241.711 117.996 242.062 119.118 242.717 120.063C243.373 121.008 244.301 121.73 245.378 122.132C246.267 122.461 247.222 122.566 248.161 122.437C249.099 122.308 249.991 121.949 250.758 121.393C251.812 120.62 252.588 119.525 252.967 118.274C253.239 117.424 253.239 116.846 253.316 116.846C253.45 117.342 253.45 117.864 253.316 118.359C253.035 119.75 252.267 120.995 251.149 121.869C250.313 122.53 249.324 122.968 248.274 123.144C247.223 123.319 246.145 123.225 245.14 122.871C243.894 122.431 242.816 121.615 242.053 120.536C241.29 119.457 240.88 118.168 240.88 116.846C240.88 115.525 241.29 114.236 242.053 113.156C242.816 112.077 243.894 111.261 245.14 110.821C246.145 110.465 247.223 110.37 248.274 110.545C249.325 110.721 250.315 111.161 251.149 111.824C252.267 112.698 253.035 113.943 253.316 115.334C253.448 115.829 253.448 116.351 253.316 116.846Z" fill="#0C0910"/>
<path d="M187.514 85.9809C189.64 85.9809 191.364 84.2573 191.364 82.1312C191.364 80.0051 189.64 78.2815 187.514 78.2815C185.388 78.2815 183.665 80.0051 183.665 82.1312C183.665 84.2573 185.388 85.9809 187.514 85.9809Z" fill="#0C0910"/>
<path d="M202.769 85.9809C204.895 85.9809 206.618 84.2573 206.618 82.1312C206.618 80.0051 204.895 78.2815 202.769 78.2815C200.643 78.2815 198.919 80.0051 198.919 82.1312C198.919 84.2573 200.643 85.9809 202.769 85.9809Z" fill="#0C0910"/>
<path d="M218.023 85.9809C220.149 85.9809 221.872 84.2573 221.872 82.1312C221.872 80.0051 220.149 78.2815 218.023 78.2815C215.897 78.2815 214.173 80.0051 214.173 82.1312C214.173 84.2573 215.897 85.9809 218.023 85.9809Z" fill="#0C0910"/>
<path d="M79.7707 146.369C81.4539 145.358 83.2624 144.572 85.1501 144.032L86.2633 138.712L95.2629 138.551L96.5546 143.836C98.4551 144.316 100.282 145.05 101.985 146.02L106.54 143.046L113.033 149.25L110.22 153.898C111.232 155.581 112.018 157.389 112.557 159.278L117.877 160.391L118.038 169.39L112.752 170.665C112.289 172.572 111.568 174.408 110.611 176.121L113.585 180.676L107.339 187.143L102.69 184.33C101.008 185.343 99.1992 186.129 97.311 186.667L96.1977 191.987L87.1981 192.149L85.9064 186.863C84.0004 186.395 82.1656 185.675 80.4506 184.721L75.904 187.696L69.4284 181.449L72.2413 176.818C71.2289 175.135 70.4431 173.327 69.9043 171.439L64.5929 170.325L64.423 161.317L69.6918 160.034C70.1593 158.128 70.8795 156.293 71.8334 154.578L68.842 150.032L75.0882 143.556L79.7367 146.369H79.7707ZM84.5722 158.36C83.2454 159.733 82.3557 161.469 82.0156 163.348C81.6756 165.227 81.9003 167.165 82.6616 168.916C83.4228 170.667 84.6862 172.153 86.2922 173.186C87.8981 174.22 89.7743 174.753 91.6835 174.72C93.5928 174.687 95.4492 174.088 97.0182 172.999C98.5871 171.911 99.798 170.382 100.498 168.605C101.197 166.828 101.355 164.884 100.949 163.018C100.544 161.152 99.5941 159.448 98.2203 158.122C96.3786 156.344 93.9063 155.37 91.347 155.415C88.7876 155.46 86.3507 156.519 84.5722 158.36Z" fill="#F5F5F5"/>
<path d="M84.5723 158.36C85.0861 157.743 85.6976 157.215 86.3824 156.796C87.9598 155.796 89.791 155.269 91.6587 155.278C93.5265 155.287 95.3525 155.832 96.9202 156.847C98.3786 157.82 99.5519 159.163 100.319 160.739C100.74 161.588 101.026 162.497 101.169 163.433C101.343 164.41 101.36 165.408 101.22 166.39C100.948 168.473 100.012 170.413 98.5523 171.924C97.0924 173.434 95.1854 174.435 93.113 174.778C92.137 174.959 91.138 174.979 90.1556 174.838C89.25 174.709 88.3681 174.449 87.5382 174.064C85.9297 173.341 84.5445 172.199 83.527 170.759C82.6379 169.512 82.0555 168.074 81.8274 166.56C81.5031 164.369 81.9443 162.133 83.0766 160.229C83.4696 159.531 83.975 158.902 84.5723 158.368C84.0794 158.986 83.628 159.636 83.2211 160.314C82.1756 162.199 81.7954 164.382 82.1418 166.509C82.368 167.967 82.9359 169.35 83.7989 170.546C84.7848 171.92 86.1197 173.005 87.6656 173.69C88.4943 174.07 89.3776 174.317 90.2831 174.421C91.2234 174.554 92.179 174.534 93.113 174.362C95.0939 174.033 96.9164 173.076 98.3107 171.631C99.705 170.186 100.597 168.331 100.855 166.339C101.119 164.491 100.823 162.605 100.005 160.926C99.313 159.503 98.2768 158.275 96.9902 157.353C95.7036 156.432 94.2073 155.846 92.6371 155.649C90.4947 155.381 88.3246 155.842 86.4759 156.957C85.8121 157.384 85.1763 157.852 84.5723 158.36Z" fill="#0C0910"/>
<path d="M79.7708 146.369C79.6682 146.322 79.5688 146.268 79.4734 146.207L78.581 145.689L75.0883 143.615H75.1733L68.9526 150.125V149.981L71.961 154.519V154.587V154.655C71.0183 156.364 70.304 158.19 69.8364 160.085V160.17H69.7514L64.4656 161.47L64.593 161.317C64.644 164.147 64.7035 167.155 64.763 170.317L64.627 170.147L69.9554 171.252H70.0574V171.362C70.5907 173.235 71.3739 175.027 72.3859 176.69L72.4454 176.792L72.3859 176.886L69.573 181.543V181.296L76.0486 187.543H75.7936L80.3402 184.56L80.4506 184.492L80.5611 184.551C82.2626 185.492 84.0795 186.206 85.966 186.676H86.0934V186.803C86.4929 188.503 86.9433 190.262 87.3852 192.089L87.1727 191.919L96.1723 191.766L95.9598 191.936C96.3083 190.237 96.6822 188.443 97.0646 186.608V186.48H97.2006C99.0677 185.947 100.856 185.17 102.52 184.169L102.639 184.101L102.75 184.169L107.398 186.99H107.126L113.381 180.523V180.795L110.398 176.24L110.33 176.13L110.39 176.019C111.339 174.321 112.057 172.503 112.523 170.614V170.487H112.642L117.928 169.195L117.766 169.399C117.715 166.328 117.664 163.328 117.613 160.399L117.783 160.595L112.455 159.482H112.336V159.371C111.81 157.496 111.032 155.701 110.024 154.034L109.965 153.932L110.024 153.83L112.854 149.19V149.42L106.396 143.157H106.6L102.053 146.131L101.968 146.182H101.883C100.182 145.228 98.3616 144.505 96.4697 144.032H96.3848V143.947C95.9259 142.026 95.5349 140.293 95.11 138.661L95.2375 138.754L86.2379 138.882L86.3314 138.805C85.881 140.93 85.4816 142.672 85.2011 144.125C83.7811 144.522 82.4035 145.057 81.088 145.723C80.6461 145.935 80.3317 146.114 80.1192 146.233C80.0151 146.294 79.9072 146.347 79.7963 146.394L80.1022 146.199C80.3062 146.071 80.6206 145.884 81.054 145.655C82.3586 144.946 83.7344 144.376 85.1586 143.955L85.1077 144.015C85.4051 142.562 85.762 140.811 86.1869 138.678V138.602H86.2719L95.263 138.415H95.3735V138.517C95.7729 140.148 96.2233 141.916 96.6822 143.802L96.5717 143.692C98.4944 144.162 100.346 144.885 102.079 145.842H101.909L106.455 142.851L106.566 142.774L106.659 142.868C108.716 144.839 110.866 146.913 113.143 149.114L113.254 149.216L113.177 149.335L110.364 153.992V153.796C111.392 155.489 112.187 157.313 112.727 159.218L112.582 159.082L117.902 160.178H118.064V160.34C118.123 163.272 118.174 166.289 118.234 169.339V169.509L118.072 169.552L112.786 170.852L112.948 170.691C112.476 172.618 111.747 174.473 110.781 176.206V175.977L113.764 180.523L113.857 180.676L113.738 180.795L107.492 187.271L107.364 187.398L107.211 187.313L102.563 184.492H102.835C101.138 185.517 99.3115 186.311 97.4045 186.854L97.5575 186.684C97.1751 188.511 96.8012 190.33 96.4527 192.013V192.183H96.2828L87.2832 192.344H87.1047V192.174C86.6543 190.347 86.2549 188.545 85.813 186.888L85.966 187.05C84.0415 186.573 82.1895 185.842 80.4591 184.874H80.6716L76.1251 187.857L75.9891 187.942L75.8701 187.832L69.403 181.577L69.284 181.466L69.369 181.33L72.1904 176.682V176.877C71.134 175.209 70.3078 173.405 69.7344 171.515L69.8704 171.651L64.542 170.529H64.4061V170.393C64.3551 167.232 64.3126 164.224 64.2616 161.394V161.266H64.3891L69.6919 159.889L69.5815 160C70.0546 158.085 70.7805 156.242 71.74 154.519V154.655L68.7741 150.1L68.7231 150.023L68.7826 149.955L75.0713 143.471H75.1223L78.5216 145.596L79.3714 146.148L79.7708 146.369Z" fill="#0C0910"/>
<path d="M276.334 68.5337C279.256 66.7762 282.4 65.4159 285.682 64.4886L287.602 55.268L303.18 54.9961L305.423 64.1401C308.711 64.9515 311.877 66.1946 314.839 67.8369L322.708 62.6785L333.918 73.4967L329.04 81.5444C330.801 84.4652 332.161 87.6093 333.085 90.8924L342.305 92.813L342.577 108.39L333.433 110.634C332.628 113.932 331.385 117.107 329.736 120.075L334.895 127.945L324.077 139.154L316.029 134.276C313.107 136.034 309.963 137.394 306.681 138.321L304.76 147.541L289.192 147.813L286.948 138.669C283.651 137.862 280.476 136.618 277.507 134.973L269.629 140.131L258.42 129.304L263.306 121.256C261.539 118.338 260.176 115.193 259.252 111.908L250.032 109.988L249.76 94.4107L258.904 92.1757C259.714 88.8791 260.957 85.7043 262.601 82.7342L257.502 74.8649L268.32 63.6558L276.368 68.5337H276.334ZM284.637 89.2863C282.34 91.6647 280.8 94.6708 280.212 97.9243C279.624 101.178 280.014 104.533 281.333 107.565C282.651 110.597 284.84 113.169 287.621 114.958C290.401 116.746 293.65 117.669 296.956 117.611C300.262 117.553 303.476 116.515 306.192 114.63C308.908 112.745 311.005 110.097 312.216 107.021C313.427 103.944 313.698 100.578 312.996 97.3467C312.294 94.1159 310.649 91.1659 308.27 88.8699C305.079 85.7937 300.798 84.1097 296.367 84.1878C291.936 84.2658 287.717 86.0996 284.637 89.2863Z" fill="#F5F5F5"/>
<path d="M284.637 89.2864L284.824 89.0909L285.393 88.53C285.691 88.2193 286.015 87.9349 286.362 87.6802C286.818 87.3032 287.301 86.9596 287.806 86.6519C289.171 85.7686 290.665 85.1034 292.234 84.6803C294.314 84.0962 296.487 83.923 298.633 84.1705C301.24 84.4604 303.743 85.3568 305.942 86.7879C308.466 88.4503 310.502 90.7561 311.839 93.4675C312.568 94.9264 313.07 96.4883 313.326 98.099C313.468 98.928 313.553 99.7655 313.581 100.606C313.584 101.459 313.527 102.311 313.411 103.155C312.931 106.724 311.33 110.048 308.839 112.648C307.564 113.94 306.1 115.032 304.497 115.886C302.939 116.715 301.257 117.289 299.517 117.585C298.673 117.725 297.822 117.81 296.967 117.84C296.115 117.84 295.264 117.786 294.418 117.679C292.798 117.476 291.219 117.026 289.735 116.345C286.979 115.106 284.605 113.152 282.86 110.685C281.485 108.733 280.542 106.511 280.094 104.167C279.645 101.822 279.702 99.4087 280.26 97.0877C280.631 95.5059 281.242 93.99 282.07 92.5922C282.36 92.077 282.689 91.5855 283.056 91.122C283.309 90.7608 283.594 90.4224 283.906 90.1107L284.45 89.5328C284.508 89.464 284.57 89.3988 284.637 89.3374C284.637 89.3374 284.594 89.4223 284.475 89.5583L283.974 90.1702C283.688 90.4934 283.427 90.8371 283.192 91.1985C282.845 91.6683 282.533 92.1624 282.257 92.6771C281.471 94.0742 280.898 95.5809 280.557 97.1472C280.083 99.216 280.011 101.357 280.345 103.453C280.734 105.997 281.718 108.414 283.217 110.506C284.935 112.909 287.265 114.808 289.965 116.005C291.411 116.664 292.95 117.097 294.528 117.288C295.343 117.394 296.163 117.445 296.984 117.441C297.819 117.415 298.651 117.33 299.474 117.186C302.933 116.6 306.114 114.923 308.551 112.4C310.988 109.877 312.555 106.641 313.02 103.164C313.129 102.336 313.183 101.501 313.182 100.665C313.159 99.8451 313.08 99.0273 312.944 98.218C312.699 96.6463 312.215 95.1216 311.508 93.6969C309.83 90.2358 307 87.4663 303.504 85.8631C300.007 84.2599 296.062 83.9228 292.344 84.9098C290.791 85.3114 289.307 85.9445 287.942 86.7879C287.436 87.0832 286.951 87.4126 286.489 87.7737C286.135 88.0298 285.803 88.314 285.495 88.6235L284.9 89.1504C284.696 89.2354 284.645 89.2949 284.637 89.2864Z" fill="#0C0910"/>
<path d="M276.334 68.5338C276.334 68.5338 276.164 68.4488 275.816 68.2449L274.277 67.3271L268.252 63.7153H268.337C265.584 66.5792 261.955 70.3694 257.544 74.9499V74.814C259.108 77.1935 260.85 79.8449 262.72 82.6748V82.7428V82.8108C261.078 85.775 259.838 88.9442 259.032 92.2353V92.3202H258.947L249.803 94.5723L249.922 94.4193C250.015 99.3227 250.109 104.532 250.211 109.996L250.075 109.827L259.295 111.739H259.397V111.841C260.328 115.109 261.691 118.239 263.451 121.146L263.51 121.24L263.451 121.376L258.573 129.423V129.185L269.782 139.995H269.527L277.396 134.837L277.507 134.769L277.617 134.828C280.573 136.471 283.734 137.714 287.016 138.525H287.144V138.652C287.849 141.516 288.614 144.644 289.387 147.796L289.175 147.635L304.752 147.355L304.539 147.533C305.143 144.618 305.797 141.474 306.46 138.312V138.185L306.587 138.142C309.853 137.225 312.98 135.873 315.885 134.123L316.003 134.055L316.114 134.123L324.162 139.001H323.89L334.708 127.792V128.064L329.55 120.194L329.482 120.084L329.541 119.965C331.189 117.014 332.435 113.856 333.246 110.574V110.447H333.374L342.526 108.212L342.365 108.416C342.269 103.107 342.178 97.9149 342.093 92.8386L342.254 93.0426L333.042 91.1135H332.923V91.003C332.001 87.7262 330.643 84.5879 328.887 81.672L328.827 81.57L328.887 81.4341L333.773 73.3948V73.6242L322.598 62.823H322.802L314.924 67.9729L314.848 68.0324L314.763 67.9814C311.807 66.3287 308.643 65.0797 305.355 64.2677H305.27V64.1827L303.044 55.0387L303.171 55.1407L287.594 55.3786L287.696 55.3021C286.914 58.9903 286.277 62.0072 285.75 64.5142H285.707C283.246 65.202 280.86 66.1358 278.586 67.3016C277.83 67.6755 277.286 67.9899 276.886 68.1514C276.487 68.3128 276.334 68.4488 276.334 68.4488C276.334 68.4488 276.512 68.3298 276.869 68.1174C277.226 67.9049 277.77 67.582 278.518 67.1911C280.789 66.0337 283.172 65.1111 285.631 64.4377H285.546C286.064 61.8882 286.685 58.9054 287.441 55.2171V55.1407H287.518L303.095 54.8347H303.197V54.9367C303.894 57.7666 304.633 60.758 305.457 64.0808L305.347 63.9788C308.661 64.7912 311.853 66.04 314.839 67.6925H314.678L322.547 62.5256L322.658 62.4491L322.751 62.5426L333.969 73.3523L334.079 73.4543L334.003 73.5817L329.125 81.638V81.4341C330.897 84.3531 332.269 87.4973 333.204 90.7821L333.051 90.6376L342.271 92.5582H342.433V92.7281C342.529 97.7931 342.623 102.985 342.713 108.305V108.467H342.543L333.399 110.71L333.561 110.557C332.742 113.877 331.485 117.072 329.822 120.058V119.837L334.98 127.707L335.082 127.851L334.954 127.979L324.213 139.307L324.094 139.434L323.941 139.341L315.893 134.463H316.139C313.218 136.226 310.074 137.592 306.791 138.525L306.953 138.363C306.29 141.525 305.636 144.669 305.032 147.575V147.754H304.854L289.277 148.026H289.107L289.064 147.856C288.291 144.703 287.526 141.576 286.821 138.712L286.982 138.873C283.663 138.05 280.468 136.79 277.481 135.126H277.694L269.824 140.284L269.68 140.377L269.561 140.259L258.36 129.432L258.25 129.321L258.335 129.185L263.213 121.146V121.376C261.453 118.453 260.09 115.309 259.159 112.028L259.295 112.155L250.075 110.226H249.939V110.09C249.842 104.617 249.757 99.4247 249.684 94.5128V94.3853H249.811L258.955 92.1588L258.853 92.2607C259.676 88.9498 260.936 85.7633 262.601 82.7853V82.9212L257.502 75.0349L257.451 74.9584L257.51 74.8989C261.938 70.3354 265.601 66.5707 268.363 63.7153H268.405H268.448L274.396 67.378L275.926 68.3213L276.334 68.5338Z" fill="#0C0910"/>
<path d="M220.11 14.3835C221.971 13.2737 223.971 12.4163 226.059 11.8341L227.282 5.93632L237.234 5.76636L238.67 11.6131C240.781 12.1294 242.813 12.9268 244.712 13.9841L249.743 10.6868L256.907 17.6043L253.788 22.7457C254.896 24.608 255.753 26.6081 256.338 28.6945L262.227 29.9182L262.405 39.8696L256.559 41.3058C256.038 43.4168 255.238 45.4488 254.179 47.348L257.476 52.3789L250.567 59.5344L245.468 56.4156C243.607 57.5252 241.607 58.3825 239.52 58.965L238.296 64.8543L228.336 65.0327L226.908 59.186C224.798 58.6644 222.766 57.8642 220.866 56.8065L215.835 60.1038L208.671 53.1948L211.79 48.0448C210.678 46.1848 209.821 44.1841 209.241 42.0961L203.351 40.8724L203.114 30.9295L208.96 29.5018C209.475 27.3902 210.273 25.3578 211.331 23.4596L208.034 18.4287L214.951 11.2647L220.11 14.3835ZM225.421 27.6407C223.951 29.1594 222.964 31.0803 222.586 33.1601C222.207 35.24 222.455 37.3853 223.296 39.3245C224.138 41.2637 225.536 42.9096 227.314 44.0537C229.091 45.1979 231.168 45.789 233.282 45.7521C235.396 45.7151 237.451 45.0519 239.187 43.8464C240.924 42.6408 242.264 40.9471 243.037 38.9797C243.811 37.0123 243.983 34.8597 243.532 32.7943C243.082 30.7289 242.028 28.8437 240.506 27.3773C239.495 26.4005 238.303 25.6324 236.996 25.1169C235.688 24.6014 234.292 24.3487 232.888 24.3732C231.483 24.3976 230.096 24.6988 228.808 25.2595C227.519 25.8202 226.354 26.6293 225.379 27.6407H225.421Z" fill="#F5F5F5"/>
<path d="M225.379 27.6407C225.949 26.9705 226.623 26.3966 227.376 25.9411C229.121 24.8267 231.151 24.2389 233.222 24.2479C235.292 24.2569 237.317 24.8625 239.052 25.9921C240.685 27.0565 242.001 28.5422 242.86 30.2921C243.333 31.2343 243.659 32.243 243.828 33.2835C244.027 34.3635 244.047 35.4688 243.888 36.5553C243.593 38.8716 242.561 41.0315 240.943 42.7151C239.325 44.3988 237.208 45.5167 234.905 45.9033C232.768 46.2428 230.579 45.9473 228.608 45.0535C226.947 44.3053 225.501 43.151 224.404 41.697C223.306 40.2431 222.592 38.5362 222.328 36.7338C221.972 34.3098 222.461 31.8373 223.713 29.7313C224.166 28.9566 224.74 28.2594 225.413 27.6662C224.878 28.3608 224.381 29.0842 223.926 29.8332C222.772 31.9183 222.353 34.3308 222.736 36.6828C222.989 38.2894 223.615 39.8144 224.563 41.1358C225.649 42.6484 227.114 43.8474 228.812 44.6116C230.697 45.4477 232.788 45.7051 234.82 45.3509C237.006 44.9804 239.016 43.9202 240.556 42.3253C242.095 40.7304 243.084 38.6847 243.378 36.4873C243.53 35.4492 243.515 34.3936 243.335 33.36C243.187 32.3467 242.88 31.363 242.426 30.4451C241.662 28.8725 240.517 27.5157 239.095 26.4977C237.673 25.4796 236.02 24.8326 234.285 24.6153C231.922 24.3204 229.528 24.8261 227.486 26.0515C226.757 26.5448 226.054 27.0752 225.379 27.6407Z" fill="#0C0910"/>
<path d="M220.11 14.3834L219.779 14.205L218.793 13.6356L214.926 11.3411H215.028L208.111 18.5475V18.3776L211.433 23.4L211.484 23.4765L211.433 23.5615C210.391 25.4485 209.605 27.4662 209.096 29.5612V29.6632H208.994L203.114 31.1164L203.258 30.9294C203.318 34.0652 203.386 37.388 203.454 40.8808L203.292 40.6853L209.181 41.9006H209.309V42.028C209.9 44.096 210.757 46.0785 211.858 47.9258L211.926 48.0362L211.858 48.1552L208.748 53.3051L208.705 53.0162L215.878 59.9252H215.572L220.603 56.6279L220.73 56.5429L220.858 56.6194C222.73 57.6563 224.73 58.4447 226.807 58.9649H226.959V59.1179C227.41 60.945 227.903 62.9421 228.396 64.9561L228.141 64.7607L238.092 64.5822L237.846 64.7947C238.228 62.9336 238.645 60.928 239.069 58.9054V58.744H239.222C241.288 58.1621 243.266 57.3046 245.103 56.1945L245.239 56.1095L245.375 56.1945L250.516 59.3133H250.194L257.103 52.1494V52.4723L253.967 47.4414L253.882 47.3139L253.958 47.1779C255.002 45.3078 255.794 43.3075 256.312 41.2292V41.0762H256.465L262.312 39.6485L262.116 39.895C262.066 36.4957 262.006 33.1729 261.955 29.9351L262.142 30.173L256.253 28.9408H256.117L256.074 28.8048C255.49 26.7346 254.632 24.7513 253.525 22.9071L253.448 22.7881L253.525 22.6691L256.652 17.5702V17.8337L249.497 10.9077H249.752L244.755 14.1115L244.661 14.171L244.559 14.12C242.678 13.0607 240.663 12.2603 238.568 11.7405H238.466V11.6385C237.956 9.51395 237.489 7.60186 237.055 5.79175L237.208 5.91072L227.248 6.04669L227.367 5.95321C226.858 8.30721 226.45 10.2023 226.11 11.8425V11.8934H226.059C224.491 12.3345 222.969 12.9235 221.512 13.6526C221.028 13.8905 220.662 14.086 220.441 14.2135C220.326 14.2817 220.207 14.3441 220.084 14.4004L220.424 14.1795C220.645 14.0435 220.994 13.831 221.47 13.5761C222.913 12.8137 224.431 12.2014 225.999 11.749L225.94 11.817C226.263 10.2023 226.654 8.27322 227.129 5.91922V5.82574H227.223L237.174 5.61328H237.302V5.73226L238.806 11.5365L238.679 11.409C240.801 11.9282 242.844 12.7285 244.755 13.7885H244.559L249.582 10.4742L249.718 10.3893L249.828 10.4997L257.001 17.4003L257.128 17.5277L257.043 17.6722L253.941 22.7966V22.5587C255.071 24.4391 255.951 26.4589 256.559 28.5669L256.38 28.4054L262.269 29.6207L262.456 29.6632V29.8501C262.519 33.0908 262.578 36.4107 262.635 39.81V40.0055L262.439 40.0564L256.652 41.4926L256.839 41.3057C256.306 43.4502 255.489 45.5137 254.409 47.4414V47.1779L257.706 52.2089L257.816 52.3788L257.672 52.5318L250.763 59.6958L250.618 59.8487L250.44 59.7383L245.299 56.6194H245.562C243.684 57.7582 241.66 58.6359 239.545 59.2284L239.732 59.0329C239.316 61.0555 238.882 63.061 238.509 64.9221L238.466 65.1261H238.254L228.302 65.2961H228.098L228.047 65.1006C227.554 63.078 227.061 61.081 226.62 59.2539L226.807 59.4408C224.675 58.9125 222.623 58.1037 220.705 57.0358H220.96L215.929 60.3246L215.767 60.4351L215.623 60.2991L208.459 53.3901L208.323 53.2626L208.425 53.1012L211.544 48.0023V48.2317C210.416 46.3525 209.541 44.3322 208.943 42.2235L209.113 42.3764L203.224 41.1357H203.054V40.9742C203.003 37.4815 202.952 34.1757 202.901 31.0229V30.7849H203.046L208.892 29.3657L208.765 29.4932C209.295 27.3705 210.103 25.3273 211.17 23.417V23.5785L207.898 18.5475L207.839 18.454L207.915 18.3776L214.867 11.2476H214.909H214.969L218.767 13.6016L219.736 14.2135C219.957 14.2984 220.11 14.3834 220.11 14.3834Z" fill="#0C0910"/>
<path d="M95.6115 219.878C98.6461 218.036 101.913 216.608 105.325 215.629L107.331 206.009L123.588 205.72L125.925 215.264C129.372 216.112 132.69 217.419 135.791 219.147L144.009 213.759L155.702 225.054L150.603 233.45C152.445 236.49 153.874 239.763 154.852 243.18L164.472 245.177L164.761 261.434L155.209 263.771C154.367 267.22 153.064 270.538 151.334 273.638L156.713 281.855L145.411 293.575L137.006 288.476C133.969 290.317 130.699 291.746 127.284 292.725L125.287 302.345L109.03 302.634L106.685 293.039C103.24 292.196 99.9239 290.892 96.8267 289.164L88.609 294.552L76.9155 283.283L82.0144 274.878C80.1677 271.843 78.7385 268.573 77.7653 265.157L68.1623 263.159L67.8734 246.902L77.4169 244.599C78.2657 241.152 79.5718 237.834 81.3006 234.733L75.9127 226.515L87.2068 214.822L95.6115 219.921V219.878ZM104.271 241.532C101.874 244.012 100.266 247.148 99.6513 250.543C99.0365 253.937 99.4424 257.438 100.818 260.602C102.193 263.765 104.475 266.45 107.377 268.316C110.278 270.183 113.668 271.146 117.117 271.086C120.566 271.025 123.92 269.943 126.754 267.976C129.588 266.009 131.775 263.245 133.038 260.035C134.301 256.825 134.583 253.312 133.85 249.941C133.116 246.57 131.399 243.493 128.916 241.098C125.588 237.892 121.124 236.137 116.504 236.218C111.884 236.299 107.484 238.21 104.271 241.532Z" fill="#F5F5F5"/>
<path d="M104.271 241.531C104.331 241.459 104.397 241.391 104.467 241.327L105.053 240.741C105.372 240.433 105.712 240.149 106.073 239.891C106.547 239.498 107.05 239.14 107.577 238.821C109.002 237.899 110.561 237.205 112.2 236.764C114.604 236.099 117.123 235.951 119.589 236.332C122.054 236.713 124.411 237.613 126.502 238.974C128.543 240.289 130.283 242.019 131.611 244.051C132.939 246.083 133.825 248.372 134.21 250.769C134.359 251.634 134.447 252.509 134.474 253.386C134.476 254.281 134.419 255.176 134.304 256.063C134.069 257.887 133.541 259.66 132.74 261.315C131.91 263.016 130.827 264.58 129.528 265.955C128.197 267.309 126.67 268.455 124.998 269.355C123.371 270.207 121.618 270.795 119.806 271.097C118.923 271.243 118.032 271.331 117.137 271.36C116.259 271.364 115.382 271.307 114.511 271.19C113.65 271.082 112.798 270.912 111.962 270.68C111.158 270.454 110.371 270.17 109.608 269.83C106.914 268.634 104.566 266.775 102.783 264.428C101 262.08 99.8399 259.32 99.4101 256.403C99.0746 254.173 99.1757 251.899 99.7076 249.707C100.092 248.054 100.731 246.472 101.603 245.016C101.904 244.478 102.245 243.964 102.622 243.478C102.874 243.104 103.158 242.755 103.472 242.432L104.033 241.82L104.237 241.616C104.237 241.616 104.186 241.701 104.067 241.846L103.54 242.483C103.232 242.82 102.948 243.177 102.69 243.554C102.333 244.049 102.006 244.565 101.713 245.101C100.885 246.558 100.278 248.13 99.9115 249.766C99.0037 253.679 99.488 257.785 101.281 261.379C103.074 264.973 106.064 267.829 109.735 269.457C110.48 269.799 111.25 270.083 112.038 270.306C112.848 270.528 113.671 270.692 114.503 270.799C115.349 270.904 116.2 270.958 117.052 270.961C117.924 270.929 118.793 270.838 119.653 270.689C121.434 270.405 123.156 269.83 124.752 268.989C128.053 267.274 130.706 264.529 132.307 261.171C133.08 259.562 133.593 257.841 133.828 256.072C133.942 255.207 134.001 254.335 134.006 253.463C133.977 252.608 133.892 251.757 133.751 250.913C133.495 249.273 132.988 247.682 132.247 246.197C130.901 243.444 128.848 241.098 126.298 239.398C124.266 238.022 121.964 237.092 119.546 236.671C117.127 236.249 114.647 236.344 112.268 236.951C110.646 237.371 109.096 238.033 107.67 238.914C107.14 239.22 106.635 239.567 106.158 239.951C105.786 240.205 105.437 240.489 105.112 240.801L104.492 241.353C104.356 241.48 104.28 241.54 104.271 241.531Z" fill="#0C0910"/>
<path d="M95.6114 219.878C95.6114 219.878 95.4245 219.785 95.0676 219.572L93.4869 218.62L87.1982 214.847H87.2832L75.9976 226.558V226.422C77.6378 228.903 79.4564 231.674 81.4025 234.631V234.69V234.758C79.6953 237.856 78.4037 241.164 77.5613 244.599V244.684H77.4763L67.9413 247.038L68.0603 246.885C68.1538 251.984 68.2558 257.432 68.3577 263.134L68.2218 262.972L77.8162 264.995H77.9267V265.105C78.9087 268.503 80.3375 271.755 82.1758 274.776L82.2353 274.87L82.1758 274.972C80.6036 277.581 78.8615 280.445 77.0769 283.377V283.13L88.7789 294.416H88.524L96.7332 289.028L96.8437 288.96L96.9542 289.019C100.039 290.738 103.34 292.036 106.77 292.877H106.889V293.005C107.619 295.988 108.418 299.251 109.234 302.548L109.013 302.378L125.27 302.09L125.058 302.268C125.695 299.226 126.375 295.945 127.063 292.648V292.512H127.191C130.584 291.55 133.834 290.138 136.853 288.314L136.964 288.246L137.083 288.314L145.479 293.413H145.207L156.501 281.719V281.991C154.694 279.221 152.898 276.482 151.113 273.774L151.045 273.663L151.113 273.544C152.83 270.461 154.127 267.163 154.971 263.737V263.618H155.09L164.642 261.281L164.481 261.485C164.39 255.939 164.297 250.523 164.2 245.237L164.362 245.432L154.742 243.418H154.623V243.299C153.665 239.877 152.253 236.599 150.425 233.552L150.357 233.45L150.425 233.356C152.167 230.475 153.867 227.688 155.524 224.96V225.189L143.839 213.887H144.051L135.825 219.266L135.748 219.317L135.663 219.266C132.576 217.543 129.272 216.24 125.84 215.391H125.755V215.298C124.905 211.83 124.148 208.703 123.426 205.754L123.553 205.856L107.296 206.111L107.39 206.026C106.54 209.876 105.92 213.028 105.367 215.646V215.705C102.799 216.427 100.309 217.401 97.9314 218.612C97.1496 219.011 96.5802 219.334 96.2318 219.547C95.8834 219.759 95.6624 219.861 95.6624 219.861L96.2148 219.513C96.5887 219.292 97.1581 218.952 97.9144 218.544C100.284 217.306 102.773 216.31 105.342 215.569L105.291 215.62C105.826 213.003 106.481 209.85 107.271 205.992V205.916H107.356L123.613 205.601H123.715V205.703C124.437 208.652 125.211 211.771 126.069 215.238L125.958 215.136C129.42 215.983 132.752 217.289 135.867 219.02H135.706L143.915 213.632L144.026 213.555L144.128 213.649L155.83 224.934L155.94 225.036L155.864 225.155L150.765 233.56V233.365C152.611 236.415 154.04 239.699 155.014 243.129L154.869 242.993L164.489 244.99H164.651V245.152C164.747 250.438 164.843 255.857 164.94 261.409V261.596L164.77 261.638L155.226 263.984L155.388 263.822C154.539 267.288 153.227 270.624 151.487 273.74V273.519C153.26 276.232 155.056 278.972 156.875 281.736L156.968 281.881L156.849 282.008L145.555 293.702L145.436 293.829L145.283 293.736L136.887 288.637H137.108C134.054 290.482 130.767 291.911 127.335 292.886L127.497 292.716C126.808 296.022 126.12 299.302 125.491 302.336V302.514H125.313L109.056 302.795H108.886L108.843 302.625L106.506 293.081L106.659 293.234C103.199 292.375 99.8677 291.063 96.7502 289.334H96.9626L88.7194 294.739L88.5834 294.824L88.4645 294.713L76.7794 283.411L76.6605 283.309L76.7455 283.173L81.8444 274.776V274.972C80.0011 271.917 78.5722 268.63 77.5953 265.199L77.7312 265.326L68.1283 263.295H67.9923V263.151C67.8988 257.449 67.8139 252.018 67.7289 246.894V246.766H67.8563L77.3998 244.438L77.2978 244.54C78.1537 241.086 79.4685 237.762 81.207 234.656V234.784L75.8362 226.558L75.7852 226.49L75.8531 226.422L87.1727 214.754V214.711H87.2152L93.4444 218.527L95.0421 219.513L95.6114 219.878Z" fill="#0C0910"/>
<path d="M257.247 277.615C255.343 276.383 229.959 271.105 229.959 271.105L168.772 272.703L146.855 276.74C146.855 276.74 142.793 344.725 143.397 345.974C144 347.224 189.117 346.459 190.315 347.674C191.513 348.889 233.171 353.376 233.171 353.376L271.728 284.192L257.247 277.615Z" fill="#AE7461"/>
<path d="M315 294.917C301.106 283.122 246.165 273.145 243.089 273.145C243.089 273.145 238.84 307.375 200.598 307.375C168.075 307.375 160.308 274.233 160.308 274.233L136.564 277.963C132.91 278.66 100.438 286.266 95.1098 287.779C84.0196 290.923 61.2955 298.971 54.7094 322.987C52.2789 331.876 52.3469 347.878 49.432 360.642H107.271C107.271 360.642 294.001 360.804 294.018 360.642L356.803 360.693C356.803 360.693 329.736 307.418 315 294.917Z" fill="#FF8219"/>
<path d="M100.43 360.795C100.311 360.795 97.8802 354.464 94.9399 346.569C91.9995 338.674 89.7475 332.233 89.8409 332.19C89.9344 332.148 92.3904 338.513 95.3308 346.416C98.2711 354.319 100.54 360.753 100.43 360.795Z" fill="#0C0910"/>
<path d="M286.2 360.506C286.137 360.161 286.108 359.811 286.115 359.461C286.115 358.696 286.073 357.761 286.047 356.605C286.047 354.098 285.962 350.818 285.911 347.189C285.86 343.561 285.673 340.195 285.495 337.79C285.41 336.66 285.342 335.708 285.282 334.952C285.236 334.603 285.222 334.25 285.24 333.898C285.353 334.231 285.424 334.576 285.452 334.926C285.563 335.598 285.682 336.567 285.809 337.765C286.064 340.17 286.277 343.501 286.353 347.181C286.43 350.861 286.404 354.192 286.353 356.605C286.353 357.736 286.302 358.696 286.277 359.461C286.292 359.811 286.266 360.162 286.2 360.506Z" fill="#0C0910"/>
<g opacity="0.3">
<path opacity="0.3" d="M176.336 360.829C178.953 349.603 181.876 338.47 182.641 326.182C182.648 324.081 182.969 321.993 183.593 319.987C185.123 315.959 189.397 312.976 189.542 308.667C189.644 304.155 184.443 300.789 180.041 301.639C175.639 302.489 172.29 306.432 170.786 310.69C169.282 314.947 169.248 319.553 169.087 324.066C168.611 335.521 160.316 349.671 157.708 360.829" fill="black"/>
</g>
<path d="M160.452 77.3208C140.83 82.0628 122.414 101.039 114.18 119.14C105.945 137.242 105.495 154.365 108.01 174.03C109.531 185.928 112.871 198.055 115.038 209.4C117.29 221.212 111.639 237.75 105.214 247.964C102.767 251.823 99.5033 255.995 100.676 260.389C101.755 264.459 106.234 266.66 110.372 267.74C118.912 269.954 127.912 269.638 136.275 266.83C135.907 269.742 135.538 272.655 135.17 275.567C157.512 275.116 179.029 267.74 200.105 260.448C207.167 258.009 214.552 255.349 219.506 249.86C222.234 246.826 224.044 243.12 225.769 239.449C232.709 224.66 238.851 209.508 244.168 194.06" fill="#0C0910"/>
<path d="M260.901 104.243C243.904 83.5163 221.163 71.5849 194.385 71.143C179.276 70.888 173.03 74.0323 162.143 76.9642C151.257 79.8961 141.45 85.7344 134.949 94.9549C127.241 105.892 120.766 118.146 119.304 131.497C117.808 145.162 116.313 158.921 117.341 172.637C118.369 186.353 122.1 200.154 130.173 211.278L165.016 217.346C184.281 218 203.81 218.629 222.582 214.235C241.355 209.842 259.592 199.738 269.645 183.294C283.633 160.399 277.838 124.979 260.901 104.243Z" fill="#0C0910"/>
<path d="M229.832 104.014L183.33 85.5303L171.177 86.941C143.839 87.0429 124.981 117.186 124.803 139.332C124.607 163.926 125.338 193.967 129.239 212.102C137.1 248.56 168.22 251.593 168.22 251.593C168.22 251.593 167.583 271.02 167.37 283.266L238.576 278.125L242.154 116.506C242.041 113.258 240.711 110.171 238.429 107.857C236.146 105.544 233.078 104.172 229.832 104.014Z" fill="#AE7461"/>
<path d="M143.167 169.203C143.22 170.435 143.753 171.597 144.652 172.44C145.551 173.283 146.745 173.741 147.977 173.716C148.58 173.731 149.179 173.624 149.74 173.404C150.301 173.183 150.812 172.852 151.243 172.431C151.673 172.009 152.016 171.506 152.249 170.95C152.482 170.394 152.601 169.798 152.6 169.195C152.545 167.965 152.012 166.806 151.116 165.963C150.219 165.121 149.029 164.661 147.799 164.682C147.196 164.668 146.596 164.774 146.034 164.994C145.473 165.215 144.962 165.545 144.53 165.967C144.098 166.388 143.755 166.891 143.521 167.447C143.287 168.003 143.167 168.6 143.167 169.203Z" fill="#0C0910"/>
<path d="M132.578 157.365C133.199 157.926 136.734 155.241 141.926 155.037C147.119 154.833 151.045 157.102 151.58 156.482C151.844 156.21 151.181 155.173 149.473 154.111C147.124 152.734 144.423 152.078 141.705 152.224C139.034 152.305 136.451 153.194 134.295 154.773C132.714 156.023 132.221 157.11 132.578 157.365Z" fill="#0C0910"/>
<path d="M165.721 191.435C165.721 191.146 162.543 190.772 157.402 190.398C156.093 190.339 154.852 190.152 154.589 189.276C154.325 188.401 154.699 186.931 155.243 185.384L158.532 175.305C163.087 160.96 166.299 149.199 165.721 149.02C165.143 148.842 160.988 160.323 156.433 174.668C155.345 178.203 154.303 181.58 153.305 184.798C152.898 186.293 152.141 188.01 152.914 189.897C153.127 190.343 153.439 190.736 153.826 191.044C154.214 191.351 154.666 191.567 155.15 191.673C155.878 191.828 156.623 191.891 157.368 191.86C162.56 191.911 165.721 191.724 165.721 191.435Z" fill="#0C0910"/>
<path d="M168.16 251.551C168.16 251.551 192.992 251.789 216.693 235.71C216.693 235.71 204.974 261.927 167.973 260.508L168.16 251.551Z" fill="#6F4439"/>
<path d="M133.836 143.692C134.754 144.882 138.595 143.845 143.184 143.972C147.748 143.972 151.572 145.086 152.532 143.913C152.949 143.343 152.388 142.162 150.748 141.006C148.5 139.599 145.909 138.836 143.257 138.803C140.606 138.77 137.996 139.468 135.714 140.82C134.006 141.941 133.428 143.114 133.836 143.692Z" fill="#0C0910"/>
<path d="M201.949 168.115C201.982 169.346 201.533 170.541 200.698 171.446C199.863 172.35 198.708 172.893 197.479 172.959C196.879 173.018 196.273 172.955 195.698 172.776C195.122 172.597 194.588 172.304 194.127 171.915C193.666 171.526 193.288 171.049 193.014 170.512C192.74 169.975 192.577 169.388 192.533 168.787C192.5 167.556 192.949 166.361 193.784 165.457C194.619 164.552 195.774 164.009 197.003 163.943C197.604 163.883 198.21 163.945 198.786 164.124C199.362 164.303 199.897 164.595 200.358 164.984C200.819 165.373 201.197 165.851 201.471 166.389C201.744 166.927 201.907 167.514 201.949 168.115Z" fill="#0C0910"/>
<path d="M204.66 155.079C204.057 155.793 199.986 153.099 194.42 153.38C188.853 153.66 184.927 156.711 184.281 156.057C183.967 155.768 184.562 154.51 186.261 153.116C188.579 151.311 191.4 150.269 194.335 150.133C197.23 149.965 200.104 150.728 202.535 152.309C204.32 153.567 204.966 154.756 204.66 155.079Z" fill="#0C0910"/>
<path d="M197.105 137.259C196.128 138.431 192.185 137.301 187.468 137.327C182.752 137.208 178.775 138.253 177.831 137.063C177.415 136.485 178.027 135.313 179.752 134.191C182.111 132.797 184.814 132.096 187.553 132.168C190.284 132.144 192.964 132.902 195.278 134.352C196.969 135.508 197.539 136.672 197.105 137.259Z" fill="#0C0910"/>
<path d="M276.92 128.497C260.476 95.0311 235.806 72.7234 191.717 71.1257L226.704 156.371C243.157 180.259 243.148 209.23 234.463 236.908C232.032 244.659 228.752 253.624 233.307 260.346C237.862 267.068 248.4 267.247 255.267 262.845C261.479 258.859 265.413 252.316 268.923 245.755C268.739 246.962 268.954 248.196 269.536 249.27C270.117 250.343 271.033 251.198 272.144 251.704C275.186 252.928 278.798 251.449 280.974 248.984C283.149 246.52 284.16 243.265 284.985 240.087C287.874 228.92 289.081 217.388 289.633 205.865C290.891 179.469 288.554 152.215 276.92 128.497Z" fill="#0C0910"/>
<path d="M235.814 178.314C235.67 175.569 238.483 168.966 241.16 168.371C248.323 166.85 261.377 166.671 262.498 185.053C264.045 210.114 238.559 206.494 238.466 205.78C238.398 205.219 236.307 187.772 235.814 178.314Z" fill="#AE7461"/>
<path d="M244.822 196.16C244.924 196.075 245.281 196.44 246.038 196.729C247.103 197.113 248.277 197.068 249.309 196.602C251.859 195.463 253.865 191.12 253.712 186.599C253.644 184.446 253.095 182.335 252.105 180.421C251.256 178.637 249.955 177.421 248.613 177.268C248.096 177.157 247.555 177.232 247.089 177.481C246.622 177.73 246.258 178.136 246.063 178.628C245.774 179.35 245.961 179.835 245.834 179.886C245.706 179.937 245.264 179.503 245.409 178.458C245.494 177.83 245.794 177.25 246.259 176.818C246.923 176.264 247.774 175.984 248.638 176.036C250.576 176.036 252.428 177.736 253.44 179.639C254.635 181.749 255.303 184.116 255.386 186.54C255.53 191.596 253.236 196.483 249.675 197.757C249.013 197.992 248.307 198.075 247.609 198.001C246.91 197.928 246.237 197.699 245.638 197.333C244.907 196.797 244.754 196.245 244.822 196.16Z" fill="#6F4439"/>
<path d="M242.205 168.438L235.823 176.087C175.749 139.842 154.58 82.8277 157.58 86.7623C157.58 86.7623 176.421 79.012 196.867 82.5132C217.314 86.0145 256.108 96.2293 255.505 120.347C254.901 144.465 242.205 168.438 242.205 168.438Z" fill="#0C0910"/>
<path d="M161.99 203.239C161.141 203.621 160.741 206.383 161.005 207.488C161.117 207.974 161.345 208.427 161.669 208.807C161.993 209.187 162.403 209.483 162.866 209.672C163.69 209.938 164.572 209.973 165.415 209.774C167.507 209.369 169.548 208.734 171.5 207.879C173.573 207.029 176.505 205.083 178.528 204.029C175.273 202.381 171.083 201.701 167.625 201.301C166.396 201.07 165.126 201.29 164.047 201.922" fill="#6F4439"/>
<path d="M162.815 203.035C162.363 202.735 162.026 202.292 161.858 201.777C161.69 201.262 161.701 200.705 161.889 200.196C162.094 199.695 162.404 199.242 162.798 198.87C163.193 198.498 163.662 198.214 164.175 198.038C165.202 197.699 166.28 197.541 167.361 197.57C169.911 197.57 171.78 198.301 174.16 199.27C176.561 200.216 178.683 201.754 180.33 203.74C174.381 203.239 168.942 201.947 162.849 203.052" fill="#6F4439"/>
<path d="M161.515 208.907C161.464 208.958 161.064 208.737 160.665 208.057C160.429 207.523 160.303 206.946 160.296 206.362C160.288 205.777 160.4 205.198 160.622 204.658C160.973 203.882 161.499 203.199 162.16 202.664C162.821 202.128 163.598 201.755 164.43 201.573C166.333 201.133 168.302 201.055 170.234 201.343C173.649 201.721 177.019 202.432 180.296 203.468C182.845 204.258 184.298 204.896 184.247 205.066C184.196 205.236 182.607 204.93 180.058 204.377C176.775 203.625 173.453 203.058 170.106 202.678C168.327 202.409 166.514 202.437 164.744 202.763C164.07 202.878 163.43 203.14 162.868 203.529C162.305 203.918 161.835 204.425 161.489 205.015C161.081 205.875 160.973 206.848 161.183 207.777C161.353 208.465 161.591 208.796 161.515 208.907Z" fill="#0C0910"/>
<path d="M182.658 221.399C182.548 221.501 181.698 220.473 179.964 219.317C177.734 217.777 175.103 216.923 172.393 216.861C169.684 216.799 167.016 217.532 164.718 218.969C162.934 220.057 162.041 221.042 161.931 220.932C161.821 220.822 162.594 219.725 164.37 218.451C166.713 216.78 169.533 215.912 172.409 215.977C175.286 216.041 178.064 217.034 180.33 218.807C182.055 220.159 182.718 221.348 182.658 221.399Z" fill="#6F4439"/>
<path d="M244.636 218.612C249.512 218.612 253.465 214.659 253.465 209.782C253.465 204.906 249.512 200.953 244.636 200.953C239.759 200.953 235.806 204.906 235.806 209.782C235.806 214.659 239.759 218.612 244.636 218.612Z" fill="#455A64"/>
<path d="M159.815 77.321C159.339 78.6723 182.624 73.8198 192.491 79.8025C202.357 85.7852 210.005 94.7848 216.659 104.201C230.087 123.211 240.956 145.196 242.154 168.439C244.771 167.368 251.952 167.827 255.471 170.062C255.471 170.062 267.81 94.9463 194.326 71.1429C194.36 71.1429 164.149 65.0582 159.815 77.321Z" fill="#455A64"/>
<path d="M166.18 72.5875C166.621 72.3854 167.079 72.2233 167.548 72.1031C168.876 71.6816 170.234 71.3634 171.611 71.1513C172.511 71.0578 173.506 70.8453 174.61 70.8283L176.31 70.7349H178.171C181.094 70.8565 183.997 71.2664 186.839 71.9586C194.216 73.8743 201.181 77.1169 207.396 81.5276C215.109 86.7904 221.976 93.198 227.758 100.53C233.559 107.818 238.266 115.915 241.729 124.562C242.46 126.576 243.233 128.514 243.879 130.443C244.525 132.372 245.026 134.267 245.579 136.094L246.803 141.474C247.185 143.173 247.372 144.873 247.652 146.479C247.763 147.329 247.924 148.06 247.992 148.825C248.06 149.59 248.128 150.337 248.196 151.068C248.307 152.521 248.468 153.89 248.519 155.173C248.519 157.722 248.647 159.957 248.562 161.759C248.477 163.561 248.358 164.946 248.29 165.915C248.282 166.4 248.231 166.883 248.137 167.359C248.102 166.876 248.102 166.39 248.137 165.906C248.137 164.929 248.196 163.535 248.239 161.75C248.281 159.966 248.111 157.748 248.043 155.198C247.967 153.924 247.788 152.564 247.652 151.119C247.576 150.405 247.499 149.658 247.423 148.901C247.346 148.145 247.176 147.372 247.049 146.573C246.76 144.992 246.548 143.318 246.157 141.61C245.766 139.902 245.307 138.126 244.89 136.29C244.474 134.454 243.76 132.61 243.191 130.681C242.621 128.752 241.763 126.857 241.024 124.868C237.546 116.315 232.864 108.303 227.121 101.073C221.408 93.8301 214.648 87.4775 207.065 82.2244C200.941 77.8344 194.083 74.5711 186.814 72.5875C184.03 71.8732 181.184 71.4265 178.316 71.2532L176.344 71.2363L174.644 71.2872C173.548 71.2872 172.562 71.4657 171.67 71.5337C170.301 71.7116 168.945 71.9727 167.608 72.3155C167.139 72.4397 166.662 72.5305 166.18 72.5875Z" fill="#0C0910"/>
<path d="M166.461 360.506C166.461 360.506 172.996 335.097 175.605 324.652C176.224 322.168 176.345 319.586 175.962 317.055L175.273 312.491C177.942 312.024 179.063 311.506 181.511 309.424C182.391 309.537 183.285 309.368 184.062 308.94C184.84 308.513 185.461 307.849 185.837 307.044C186.89 304.988 188.208 301.503 189.482 298.257C191.811 292.308 192.627 284.048 192.627 284.048C192.627 284.048 196.629 276.578 196.391 273.408C196.153 270.238 193.91 265.046 193.91 265.046C193.91 265.046 194.479 259.947 193.527 257.865C192.074 254.644 188.352 252.953 184.485 254.032C181.188 254.95 165.016 258.214 165.016 258.214L161.999 255.069L161.217 243.801L170.353 240.639C170.353 240.639 176.302 243.257 180.644 241.608C182.177 241.075 183.517 240.099 184.494 238.804C184.667 238.557 184.785 238.275 184.839 237.978C184.893 237.681 184.882 237.376 184.807 237.084C184.732 236.791 184.594 236.519 184.404 236.285C184.213 236.05 183.974 235.86 183.703 235.727C179.905 233.841 171.16 229.617 168.339 229.345C164.702 228.988 150.646 235.753 149.515 237.843C149.277 238.268 147.552 263.091 147.552 263.091C145.24 265.733 143.91 269.092 143.787 272.601C143.787 278.125 142.385 319.341 142.385 319.341L121.701 360.489" fill="#AE7461"/>
<path d="M121.701 360.489C121.701 360.489 121.803 360.243 122.041 359.767L123.077 357.651C124.012 355.781 125.372 353.036 127.131 349.492L142.249 319.256V319.315C142.479 311.395 142.734 302.574 143.014 292.971C143.15 288.178 143.295 283.204 143.448 278.048C143.448 276.765 143.524 275.499 143.567 274.156C143.555 272.825 143.649 271.495 143.847 270.179C144.381 267.479 145.612 264.965 147.416 262.887L147.365 263.015C147.762 257.457 148.175 251.729 148.606 245.831C148.716 244.361 148.835 242.883 148.954 241.395C149.022 240.648 149.082 239.9 149.15 239.152C149.192 238.769 149.218 238.421 149.277 238.005C149.293 237.892 149.318 237.781 149.354 237.673L149.549 237.427C149.669 237.262 149.812 237.116 149.974 236.993C151.184 236.047 152.479 235.214 153.841 234.503C155.184 233.755 156.569 233.084 157.971 232.421C160.795 231.071 163.755 230.025 166.801 229.302C167.599 229.111 168.432 229.111 169.231 229.302C170.009 229.498 170.775 229.739 171.526 230.025C173.03 230.577 174.508 231.198 175.979 231.843C177.449 232.489 178.911 233.178 180.372 233.874L182.565 234.937L183.652 235.472C184.065 235.655 184.418 235.949 184.672 236.322C184.937 236.692 185.083 237.133 185.094 237.588C185.105 238.042 184.978 238.489 184.732 238.871C184.246 239.566 183.646 240.173 182.956 240.664C182.267 241.152 181.519 241.549 180.729 241.846C179.932 242.131 179.1 242.308 178.256 242.373C176.883 242.456 175.504 242.35 174.16 242.058C172.826 241.788 171.52 241.392 170.259 240.877H170.421L161.294 244.038L161.472 243.749C161.738 247.545 161.996 251.301 162.246 255.018L162.186 254.882L165.203 258.026L165.007 257.967C171.483 256.633 177.848 255.417 183.984 253.913C185.52 253.423 187.157 253.341 188.734 253.675C190.296 254.046 191.699 254.907 192.737 256.131C193.25 256.741 193.65 257.437 193.918 258.188C194.127 258.936 194.249 259.706 194.284 260.482C194.354 261.999 194.308 263.519 194.148 265.029V264.927C194.824 266.525 195.412 268.159 195.907 269.822C196.157 270.645 196.358 271.482 196.51 272.329C196.676 273.171 196.676 274.036 196.51 274.878C196.146 276.515 195.622 278.111 194.947 279.646C194.301 281.167 193.595 282.629 192.848 284.065V283.997C192.492 287.286 191.907 290.545 191.097 293.753C190.255 296.775 189.207 299.737 187.961 302.616C187.392 304.027 186.822 305.421 186.168 306.755C185.852 307.443 185.395 308.057 184.825 308.557C184.252 309.047 183.556 309.37 182.811 309.491C182.443 309.552 182.069 309.567 181.698 309.534H181.562H181.689L181.638 309.576L181.434 309.746L181.018 310.086C180.482 310.535 179.914 310.944 179.318 311.31C178.115 311.993 176.79 312.435 175.418 312.61L175.537 312.44C175.809 314.335 176.123 316.162 176.387 317.99C176.559 319.764 176.49 321.553 176.183 323.309C175.851 325.009 175.333 326.607 174.984 328.187L173.82 332.734C172.307 338.598 171.016 343.637 169.953 347.75L167.506 357.192C167.217 358.262 167.005 359.078 166.86 359.639C166.716 360.2 166.622 360.489 166.622 360.489C166.622 360.489 166.682 360.2 166.818 359.639L167.421 357.183L169.792 347.716C170.829 343.595 172.103 338.555 173.582 332.691C173.956 331.218 174.341 329.7 174.738 328.136C175.112 326.564 175.588 324.95 175.911 323.275C176.212 321.542 176.275 319.774 176.098 318.024C175.877 316.23 175.554 314.386 175.248 312.491V312.347H175.392C176.729 312.17 178.019 311.738 179.191 311.072C179.785 310.71 180.353 310.306 180.891 309.865L181.29 309.534L181.494 309.364H181.545L181.681 309.321H181.834C182.174 309.354 182.517 309.339 182.854 309.279C183.546 309.149 184.194 308.848 184.739 308.403C185.284 307.957 185.708 307.382 185.972 306.729C186.618 305.412 187.179 304.027 187.74 302.616C188.978 299.751 190.018 296.804 190.85 293.795C191.635 290.599 192.202 287.354 192.55 284.082C193.298 282.663 193.995 281.192 194.632 279.688C195.301 278.183 195.816 276.614 196.17 275.006C196.328 274.197 196.328 273.366 196.17 272.558C196.017 271.729 195.819 270.909 195.575 270.102C195.084 268.453 194.5 266.833 193.825 265.25V265.199V264.995C193.987 263.508 194.029 262.01 193.952 260.516C193.926 259.771 193.809 259.032 193.604 258.315C193.353 257.619 192.982 256.972 192.508 256.403C191.522 255.249 190.195 254.439 188.717 254.092C187.207 253.77 185.638 253.855 184.171 254.338C178.01 255.808 171.662 257.066 165.177 258.4H165.058L164.973 258.315L161.957 255.162L161.906 255.111V255.026C161.651 251.31 161.393 247.557 161.132 243.766V243.596L161.294 243.545L170.421 240.376H170.497H170.582C173.037 241.431 175.696 241.93 178.367 241.837C179.167 241.774 179.956 241.606 180.712 241.336C181.466 241.056 182.18 240.679 182.837 240.214C183.498 239.751 184.073 239.176 184.536 238.514C184.736 238.205 184.839 237.843 184.831 237.475C184.824 237.107 184.706 236.75 184.494 236.449C184.281 236.147 183.986 235.911 183.644 235.77L182.556 235.226L180.168 234.257C178.715 233.56 177.253 232.88 175.792 232.234C174.33 231.588 172.86 230.96 171.373 230.416C169.885 229.872 168.381 229.302 166.869 229.685C163.853 230.424 160.925 231.481 158.132 232.838C156.739 233.501 155.354 234.163 154.019 234.903C152.686 235.597 151.42 236.414 150.238 237.342C150.095 237.443 149.969 237.567 149.864 237.707L149.702 237.903C149.697 237.976 149.697 238.05 149.702 238.124C149.66 238.455 149.617 238.854 149.583 239.22C149.515 239.968 149.447 240.707 149.388 241.455C149.269 242.945 149.15 244.424 149.031 245.891C148.597 251.772 148.181 257.508 147.773 263.066V263.134L147.722 263.193C145.962 265.208 144.76 267.648 144.238 270.272C144.046 271.566 143.953 272.873 143.957 274.181C143.957 275.49 143.881 276.79 143.838 278.074C143.686 283.235 143.533 288.212 143.38 293.005C143.082 302.582 142.802 311.403 142.53 319.349C136.063 332.156 130.879 342.439 127.292 349.526C125.508 353.062 124.114 355.789 123.171 357.651C122.703 358.568 122.321 359.274 122.092 359.75C121.862 360.226 121.701 360.489 121.701 360.489Z" fill="#6F4439"/>
<path d="M175.129 312.5C176.127 312.309 177.099 312.004 178.027 311.59C179.092 311.066 180.058 310.362 180.882 309.508C181.973 308.367 182.962 307.133 183.839 305.82C185.887 302.965 187.468 299.022 189.023 294.67C189.961 292.439 190.535 290.072 190.723 287.659C190.767 286.4 190.513 285.148 189.984 284.005C189.39 282.846 188.513 281.855 187.434 281.124C185.249 279.728 182.747 278.904 180.16 278.728C177.661 278.456 175.197 278.405 172.877 277.946C170.71 277.458 168.607 276.716 166.614 275.737C164.895 274.909 163.057 274.358 161.166 274.105C160.346 274.027 159.519 274.068 158.71 274.224C157.991 274.392 157.288 274.625 156.611 274.921C155.519 275.388 154.486 275.985 153.535 276.697C152.928 277.137 152.417 277.695 152.031 278.337C151.935 278.505 151.86 278.685 151.81 278.872C151.81 279 151.75 279.068 151.75 279.068C151.741 279 151.741 278.932 151.75 278.864C151.778 278.665 151.838 278.473 151.929 278.294C152.295 277.629 152.799 277.049 153.407 276.595C154.354 275.848 155.39 275.222 156.492 274.734C157.18 274.414 157.897 274.161 158.634 273.977C159.472 273.803 160.331 273.754 161.183 273.833C163.113 274.062 164.992 274.602 166.75 275.431C168.723 276.387 170.803 277.109 172.945 277.581C175.222 278.014 177.67 278.057 180.202 278.337C182.864 278.509 185.438 279.357 187.681 280.801C188.816 281.571 189.733 282.622 190.341 283.852C190.903 285.055 191.171 286.375 191.122 287.702C190.944 290.16 190.37 292.574 189.423 294.849C187.851 299.226 186.219 303.16 184.111 306.041C183.21 307.355 182.195 308.586 181.077 309.721C180.218 310.579 179.214 311.278 178.112 311.786C177.415 312.091 176.685 312.314 175.936 312.449L175.341 312.525C175.27 312.526 175.198 312.517 175.129 312.5Z" fill="#6F4439"/>
<path d="M175.579 314.607C175.253 313.673 174.984 312.719 174.772 311.752C174.305 309.984 173.599 307.554 172.69 304.954C171.781 302.353 170.871 299.957 170.208 298.24C169.807 297.332 169.474 296.394 169.214 295.436C169.709 296.297 170.138 297.195 170.497 298.121C171.237 299.821 172.197 302.149 173.115 304.809C173.892 307.075 174.547 309.382 175.078 311.718C175.273 312.619 175.418 313.35 175.494 313.851C175.56 314.098 175.589 314.353 175.579 314.607Z" fill="#6F4439"/>
<path d="M168.483 295.537C168.615 295.562 168.751 295.562 168.883 295.537C169.057 295.453 169.212 295.334 169.339 295.188C169.466 295.042 169.562 294.872 169.622 294.688C169.914 294.149 170.142 293.579 170.302 292.988C170.523 292.239 170.523 291.442 170.302 290.694L170.183 290.32L170.548 290.464C172.75 291.289 174.994 291.995 177.27 292.58L178.018 292.784L178.367 292.878L178.12 293.149C177.63 293.694 177.286 294.353 177.121 295.067C176.956 295.781 176.975 296.525 177.177 297.229L177.228 297.399L177.066 297.475C175.432 298.243 174.108 299.544 173.31 301.163C173.028 301.804 172.781 302.459 172.571 303.126C172.559 302.938 172.577 302.749 172.622 302.565C172.716 302.047 172.873 301.542 173.089 301.061C173.848 299.333 175.198 297.932 176.896 297.11L176.795 297.348C176.558 296.574 176.526 295.753 176.701 294.963C176.877 294.174 177.255 293.443 177.797 292.844L177.899 293.209L177.151 293.005C174.859 292.422 172.607 291.686 170.412 290.804L170.659 290.583C170.887 291.4 170.869 292.266 170.608 293.073C170.422 293.671 170.159 294.242 169.826 294.773C169.746 294.97 169.625 295.147 169.471 295.294C169.318 295.44 169.134 295.552 168.934 295.622C168.611 295.665 168.475 295.588 168.483 295.537Z" fill="#6F4439"/>
<path d="M148.988 270.553C149.104 270.394 149.238 270.248 149.388 270.12C149.803 269.738 150.262 269.407 150.756 269.134C152.604 268.197 154.634 267.678 156.705 267.613C161.923 267.349 169.103 267.196 177.058 266.958C179.046 266.958 180.975 266.831 182.871 266.848C184.713 266.802 186.541 267.198 188.199 268.004C189.654 268.835 190.835 270.072 191.598 271.564C192.269 272.843 192.709 274.229 192.898 275.66C193.126 277.72 193.081 279.8 192.762 281.847C192.669 282.569 192.575 283.122 192.516 283.504C192.489 283.699 192.449 283.892 192.397 284.082C192.374 283.887 192.374 283.691 192.397 283.496C192.448 283.062 192.499 282.51 192.567 281.796C192.817 279.764 192.817 277.709 192.567 275.677C192.367 274.288 191.924 272.945 191.258 271.709C190.515 270.281 189.372 269.1 187.969 268.309C186.378 267.554 184.631 267.184 182.871 267.23C181.009 267.23 179.063 267.315 177.075 267.358C169.137 267.587 161.923 267.698 156.73 267.876C154.673 267.901 152.645 268.364 150.781 269.236C150.14 269.612 149.539 270.053 148.988 270.553Z" fill="#6F4439"/>
<path d="M180.007 255.035C180.252 254.962 180.507 254.922 180.763 254.916C181.455 254.836 182.153 254.836 182.845 254.916C185.147 255.234 187.306 256.218 189.057 257.746C190.805 259.252 192.23 261.096 193.247 263.168C193.43 263.516 193.594 263.873 193.74 264.238C193.863 264.515 193.971 264.799 194.063 265.088C194.163 265.324 194.229 265.573 194.258 265.828C194.182 265.828 193.816 264.833 192.975 263.321C191.898 261.342 190.477 259.572 188.777 258.094C187.086 256.624 185.031 255.635 182.828 255.23C181.103 254.984 180.015 255.137 180.007 255.035Z" fill="#6F4439"/>
<path d="M147.552 263.015C147.552 263.015 147.73 262.794 148.121 262.463C148.673 261.996 149.268 261.584 149.898 261.23C150.834 260.702 151.822 260.272 152.846 259.947C154.105 259.573 155.389 259.289 156.688 259.097C159.441 258.698 161.931 258.511 163.716 258.247C165.5 257.984 166.605 257.763 166.622 257.831C166.388 257.956 166.135 258.042 165.874 258.086C165.381 258.23 164.667 258.383 163.767 258.562C161.982 258.902 159.517 259.148 156.747 259.548C155.47 259.731 154.207 259.998 152.965 260.346C151.96 260.646 150.985 261.035 150.05 261.511C148.461 262.344 147.603 263.083 147.552 263.015Z" fill="#6F4439"/>
</svg>
