<svg width="1728" height="804" viewBox="0 0 1728 804" fill="none" xmlns="http://www.w3.org/2000/svg">
<path d="M527.329 42.4766C338.043 2.64254 227.555 -20.6089 -2 143.87V626.895C140.254 767.13 251.459 809.748 529.172 794.903L762.283 766.402C856.858 733.827 963.754 739.407 1058.33 766.402L1184.7 794.903C1484.31 823.907 1595.34 784.951 1734 657.896V143.87C1568.23 38.571 1481.56 -27.9112 1184.7 22.3632C1153.25 24.7761 1152.48 -29.1394 1039.2 22.3631C944.622 45.217 891.598 63.0111 797.023 42.8642C721.735 -32.5028 658.974 55.0611 529.172 42.8644L527.329 42.4766Z" fill="#FFDBBF"/>
</svg>
