<svg width="331" height="261" viewBox="0 0 331 261" fill="none" xmlns="http://www.w3.org/2000/svg">
<path opacity="0.2" d="M36.4828 70.3813L28.28 42.7037L8.41193 63.6463L36.4828 70.3813ZM22.0024 53.2053C13.258 43.7447 8.33684 35.7172 6.43034 29.1969C4.55566 22.7854 5.61345 17.9772 8.6738 14.4119C11.8551 10.7057 17.5475 7.93052 25.7506 6.52365C33.9046 5.12519 44.2366 5.13413 56.284 6.70778C104.523 13.0088 178.625 44.1727 245.794 105.724L249.172 102.038C181.368 39.9039 106.342 8.20404 56.9316 1.7499C44.5666 0.134757 33.7035 0.086688 24.9054 1.5956C16.1563 3.09611 9.13942 6.19274 4.8798 11.1553C0.499262 16.2587 -0.61545 22.9162 1.63128 30.6001C3.84619 38.1752 9.34033 46.8725 18.3307 56.5991L22.0024 53.2053ZM245.794 105.724C281.562 138.502 304.232 166.708 315.979 189.503C327.781 212.405 328.252 229.168 321.04 239.79C313.795 250.459 297.998 256.136 274.334 254.877C250.807 253.625 220.212 245.525 184.501 229.598L182.464 234.165C218.504 250.238 249.721 258.575 274.069 259.87C298.28 261.158 316.421 255.491 325.176 242.598C333.964 229.657 332.497 210.639 320.424 187.213C308.296 163.68 285.154 135.011 249.172 102.038L245.794 105.724ZM184.501 229.598C175.62 225.637 168.962 221.94 164.193 218.494C159.396 215.028 156.687 211.942 155.443 209.269C154.259 206.726 154.342 204.452 155.424 202.202C156.569 199.823 158.907 197.335 162.511 194.77C169.718 189.639 181.101 184.811 194.724 180.094C208.296 175.396 223.82 170.896 239.193 166.341C254.526 161.797 269.709 157.198 282.452 152.327C295.09 147.496 305.74 142.253 311.68 136.258C314.693 133.218 316.717 129.761 316.916 125.871C317.116 121.954 315.438 118.13 312.161 114.43C305.721 107.159 292.333 99.4914 270.38 91.048L268.585 95.7148C290.507 104.146 302.854 111.463 308.418 117.745C311.142 120.821 312.034 123.415 311.922 125.616C311.809 127.844 310.64 130.205 308.129 132.739C303.022 137.893 293.305 142.825 280.666 147.657C268.131 152.448 253.127 156.997 237.772 161.547C222.458 166.085 206.795 170.624 193.089 175.37C179.434 180.097 167.451 185.116 159.611 190.696C155.691 193.487 152.586 196.569 150.919 200.035C149.189 203.63 149.092 207.474 150.91 211.379C152.667 215.153 156.143 218.846 161.264 222.547C166.414 226.268 173.408 230.126 182.464 234.165L184.501 229.598Z" fill="#C2C1C3"/>
</svg>
