<svg width="331" height="261" viewBox="0 0 331 261" fill="none" xmlns="http://www.w3.org/2000/svg">
<path opacity="0.2" d="M294.812 70.3813L303.014 42.7037L322.882 63.6463L294.812 70.3813ZM309.292 53.2053C318.036 43.7447 322.957 35.7172 324.864 29.1969C326.739 22.7854 325.681 17.9772 322.621 14.4119C319.439 10.7057 313.747 7.93052 305.544 6.52365C297.39 5.12519 287.058 5.13413 275.01 6.70778C226.771 13.0088 152.669 44.1727 85.5006 105.724L82.1225 102.038C149.927 39.9039 224.952 8.20404 274.363 1.7499C286.728 0.134757 297.591 0.086688 306.389 1.5956C315.138 3.09611 322.155 6.19274 326.415 11.1553C330.795 16.2587 331.91 22.9162 329.663 30.6001C327.448 38.1752 321.954 46.8725 312.964 56.5991L309.292 53.2053ZM85.5006 105.724C49.7326 138.502 27.0625 166.708 15.3151 189.503C3.51294 212.405 3.04257 229.168 10.2548 239.79C17.4998 250.459 33.2959 256.136 56.96 254.877C80.4871 253.625 111.083 245.525 146.793 229.598L148.83 234.165C112.79 250.238 81.5735 258.575 57.2256 259.87C33.0147 261.158 14.8734 255.491 6.11835 242.598C-2.66943 229.657 -1.2023 210.639 10.8705 187.213C22.9981 163.68 46.1405 135.011 82.1225 102.038L85.5006 105.724ZM146.793 229.598C155.674 225.637 162.332 221.94 167.102 218.494C171.899 215.028 174.607 211.942 175.852 209.269C177.036 206.726 176.952 204.452 175.87 202.202C174.725 199.823 172.387 197.335 168.784 194.77C161.577 189.639 150.193 184.811 136.57 180.094C122.999 175.396 107.474 170.896 92.1013 166.341C76.7682 161.797 61.5848 157.198 48.8428 152.327C36.2045 147.496 25.5538 142.253 19.6139 136.258C16.6013 133.218 14.5769 129.761 14.3785 125.871C14.1788 121.954 15.8558 118.13 19.1335 114.43C25.5737 107.159 38.9613 99.4914 60.9142 91.048L62.7091 95.7148C40.7869 104.146 28.4401 111.463 22.8764 117.745C20.1521 120.821 19.2598 123.415 19.3721 125.616C19.4857 127.844 20.6546 130.205 23.1656 132.739C28.2725 137.893 37.989 142.825 50.628 147.657C63.1633 152.448 78.1674 156.997 93.5219 161.547C108.836 166.085 124.499 170.624 138.206 175.37C151.86 180.097 163.843 185.116 171.683 190.696C175.603 193.487 178.708 196.569 180.376 200.035C182.105 203.63 182.203 207.474 180.385 211.379C178.627 215.153 175.151 218.846 170.03 222.547C164.881 226.268 157.886 230.126 148.83 234.165L146.793 229.598Z" fill="#C2C1C3"/>
</svg>
