<svg width="676" height="637" viewBox="0 0 676 637" fill="none" xmlns="http://www.w3.org/2000/svg">
<path d="M32.939 124.2L290.258 124.2V112.912L32.939 112.912V124.2Z" fill="#EBEBEB"/>
<path d="M275.834 124.2H264.546V161.525H275.834V124.2Z" fill="#EBEBEB"/>
<path d="M275.834 124.2H264.546V135.736H275.834V124.2Z" fill="#DBDBDB"/>
<path d="M58.6503 124.2H47.3618V161.525H58.6503V124.2Z" fill="#EBEBEB"/>
<path d="M58.6503 124.2H47.3618V135.736H58.6503V124.2Z" fill="#DBDBDB"/>
<path d="M242.231 112.912V40.996H224.117V112.912H242.231Z" fill="#C7C7C7"/>
<path d="M242.231 45.0728V37.1663H224.117V45.0728H242.231Z" fill="#DBDBDB"/>
<path d="M242.231 58.1217V55.1876H224.117V58.1217H242.231Z" fill="#DBDBDB"/>
<path d="M242.231 103.492V95.5852H221.863V103.492H242.231Z" fill="#DBDBDB"/>
<path d="M224.117 112.927V29.028H211.454V112.927H224.117Z" fill="#DBDBDB"/>
<path d="M221.646 69.1631V36.9037H214.049V69.1631H221.646Z" fill="#EBEBEB"/>
<path d="M130.302 112.949L189.968 53.9657L181.066 44.9603L121.4 103.943L130.302 112.949Z" fill="#C7C7C7"/>
<path d="M142.524 97.2787L165.466 74.5996L160.124 69.1963L137.183 91.8754L142.524 97.2787Z" fill="#DBDBDB"/>
<path d="M211.47 112.927V49.2114H189.974V112.927H211.47Z" fill="#A6A6A6"/>
<path d="M211.47 106.179V100.234H189.974V106.179H211.47Z" fill="#C7C7C7"/>
<path d="M211.47 96.342V94.041H189.974V96.342H211.47Z" fill="#C7C7C7"/>
<path d="M257.072 112.943V53.0565H242.232V112.943H257.072Z" fill="#A6A6A6"/>
<path d="M257.072 106.58V101.005H242.232V106.58H257.072Z" fill="#C7C7C7"/>
<path d="M257.072 70.9699V65.3951H242.232V70.9699H257.072Z" fill="#C7C7C7"/>
<path d="M257.072 76.9616V74.7997H242.232V76.9616H257.072Z" fill="#C7C7C7"/>
<path d="M597.981 420.465H325.775V30.5721H597.981V420.465ZM333.713 412.512H590.059V38.525H333.713V412.512Z" fill="#EBEBEB"/>
<path d="M462.751 40.5944H454.813V416.481H462.751V40.5944Z" fill="#EBEBEB"/>
<path d="M605.178 46.6324H318.564V57.6893H605.178V46.6324Z" fill="#EBEBEB"/>
<path d="M605.178 59.0791H318.564V70.136H605.178V59.0791Z" fill="#EBEBEB"/>
<path d="M605.178 71.5258H318.564V82.5826H605.178V71.5258Z" fill="#EBEBEB"/>
<path d="M605.178 83.9724H318.564V95.0293H605.178V83.9724Z" fill="#EBEBEB"/>
<path d="M605.178 96.4192H318.564V107.476H605.178V96.4192Z" fill="#EBEBEB"/>
<path d="M605.178 108.866H318.564V119.923H605.178V108.866Z" fill="#EBEBEB"/>
<path d="M605.178 121.312H318.564V132.369H605.178V121.312Z" fill="#EBEBEB"/>
<path d="M605.178 133.759H318.564V144.816H605.178V133.759Z" fill="#EBEBEB"/>
<path d="M605.178 146.206H318.564V157.263H605.178V146.206Z" fill="#EBEBEB"/>
<path d="M581.597 44.3932H579.604V259.662H581.597V44.3932Z" fill="#263238"/>
<path d="M584.13 268.912H577.072L578.848 258.782H582.354L584.13 268.912Z" fill="#263238"/>
<path d="M588.746 44.3932H586.754V373.551H588.746V44.3932Z" fill="#263238"/>
<path d="M591.279 380.994H584.222L585.998 370.864H589.503L591.279 380.994Z" fill="#263238"/>
<path d="M617.516 29.028H306.241V52.1763H617.516V29.028Z" fill="#DBDBDB"/>
<path d="M63.7004 390.275H22.8086V407.555H63.7004V390.275Z" fill="#EBEBEB"/>
<path d="M40.8918 412.064H0V429.344H40.8918V412.064Z" fill="#EBEBEB"/>
<path d="M220.952 260.511H180.06V277.792H220.952V260.511Z" fill="#EBEBEB"/>
<path d="M198.143 282.301H157.251V299.581H198.143V282.301Z" fill="#EBEBEB"/>
<path d="M175.427 260.511H134.535V277.792H175.427V260.511Z" fill="#EBEBEB"/>
<path d="M675.332 412.064H634.44V429.344H675.332V412.064Z" fill="#EBEBEB"/>
<path d="M652.524 74.707H611.632V91.9872H652.524V74.707Z" fill="#EBEBEB"/>
<path d="M675.332 96.4963H634.44V113.777H675.332V96.4963Z" fill="#EBEBEB"/>
<path d="M63.7004 74.707H22.8086V91.9872H63.7004V74.707Z" fill="#EBEBEB"/>
<path d="M337.666 637C504.146 637 639.104 612.767 639.104 582.874C639.104 552.981 504.146 528.748 337.666 528.748C171.186 528.748 36.228 552.981 36.228 582.874C36.228 612.767 171.186 637 337.666 637Z" fill="#EBEBEB"/>
<path d="M112.977 550.8C148.747 550.8 177.743 545.075 177.743 538.013C177.743 530.952 148.747 525.227 112.977 525.227C77.2081 525.227 48.2114 530.952 48.2114 538.013C48.2114 545.075 77.2081 550.8 112.977 550.8Z" fill="#EBEBEB"/>
<path d="M553.506 341.384C577.272 364.64 581.302 400.637 576.253 432.17C576.114 432.881 575.017 432.68 575.017 432.016C575.017 424.835 575.234 417.732 575.203 410.628C575.079 410.304 574.971 410.01 574.832 409.686C568.655 405.177 562.926 400.081 559.39 393.085C555.421 385.287 553.861 376.485 550.819 368.377C550.541 367.59 551.375 367.821 551.915 368.223C566.37 378.894 570.971 390.367 575.079 405.686C574.99 397.672 574.148 389.684 572.562 381.828C569.473 367.265 563.296 352.858 552.811 342.048C552.767 342.002 552.733 341.948 552.71 341.89C552.688 341.831 552.677 341.768 552.678 341.705C552.681 341.577 552.734 341.456 552.826 341.368C552.919 341.28 553.042 341.232 553.169 341.235C553.297 341.238 553.418 341.292 553.506 341.384Z" fill="#263238"/>
<path d="M549.028 344.086C544.951 344.225 542.388 350.757 539.191 352.672C538.856 352.941 538.468 353.137 538.053 353.247C537.638 353.357 537.204 353.379 536.78 353.313C536.355 353.246 535.95 353.091 535.588 352.859C535.227 352.626 534.918 352.321 534.682 351.962C531.593 347.561 535.856 342.125 539.932 339.083C537.014 340.272 534.605 342.388 531.47 342.974C531.068 343.107 530.643 343.152 530.222 343.106C529.802 343.06 529.396 342.923 529.033 342.707C528.67 342.49 528.357 342.198 528.117 341.849C527.877 341.501 527.714 341.105 527.64 340.689C526.25 334.682 533.817 332.01 538.96 331.887C536.458 330.142 529.277 325.401 533.091 323.069C536.906 320.737 545.445 327.501 548.132 329.74C552.178 333.014 556.996 337.909 557.182 343.052C557.413 349.028 552.178 345.353 549.028 344.086Z" fill="#FF8219"/>
<path opacity="0.1" d="M549.028 344.086C544.951 344.225 542.388 350.757 539.191 352.672C538.856 352.941 538.468 353.137 538.053 353.247C537.638 353.357 537.204 353.379 536.78 353.313C536.355 353.246 535.95 353.091 535.588 352.859C535.227 352.626 534.918 352.321 534.682 351.962C531.593 347.561 535.856 342.125 539.932 339.083C537.014 340.272 534.605 342.388 531.47 342.974C531.068 343.107 530.643 343.152 530.222 343.106C529.802 343.06 529.396 342.923 529.033 342.707C528.67 342.49 528.357 342.198 528.117 341.849C527.877 341.501 527.714 341.105 527.64 340.689C526.25 334.682 533.817 332.01 538.96 331.887C536.458 330.142 529.277 325.401 533.091 323.069C536.906 320.737 545.445 327.501 548.132 329.74C552.178 333.014 556.996 337.909 557.182 343.052C557.413 349.028 552.178 345.353 549.028 344.086Z" fill="black"/>
<path d="M550.217 345.105C544.997 342.727 534.944 346.14 534.095 344.164C532.365 340.133 540.395 337.369 544.719 336.844C540.735 335.763 533.091 334.033 533.323 330.188C533.616 325.555 545.043 329.539 550.834 333.971C558.123 339.562 558.077 344.951 556.872 346.032C555.22 347.515 551.081 345.492 550.217 345.105Z" fill="#FF8219"/>
<path d="M607.617 339.083C582.986 361.428 577.643 397.239 581.442 428.927C581.55 429.653 582.662 429.499 582.677 428.819C582.955 421.654 583.017 414.535 583.295 407.462C583.449 407.138 583.557 406.829 583.712 406.52C590.074 402.243 595.973 397.363 599.757 390.522C604.019 382.878 605.934 374.137 609.269 366.107C609.578 365.335 608.729 365.536 608.173 365.922C593.317 376.021 588.283 387.31 583.557 402.474C583.948 394.463 585.09 386.506 586.97 378.708C590.646 364.3 597.378 350.124 608.235 339.731C608.321 339.649 608.371 339.537 608.373 339.418C608.376 339.299 608.332 339.184 608.25 339.098C608.168 339.012 608.055 338.962 607.937 338.959C607.818 338.956 607.703 339.001 607.617 339.083Z" fill="#263238"/>
<path d="M611.987 341.955C616.064 342.249 618.38 348.873 621.484 350.896C621.808 351.179 622.188 351.392 622.599 351.519C623.01 351.647 623.443 351.688 623.87 351.638C624.298 351.589 624.71 351.45 625.081 351.232C625.452 351.014 625.773 350.721 626.024 350.371C629.344 346.078 625.221 340.488 621.268 337.292C624.14 338.604 626.472 340.797 629.576 341.507C629.974 341.654 630.398 341.714 630.82 341.683C631.243 341.652 631.654 341.53 632.026 341.327C632.397 341.123 632.721 340.843 632.975 340.503C633.229 340.164 633.408 339.775 633.498 339.361C635.043 333.416 627.677 330.466 622.519 330.095C625.082 328.443 632.448 323.918 628.696 321.509C624.943 319.1 616.234 325.478 613.392 327.594C609.238 330.682 604.235 335.439 603.849 340.55C603.416 346.573 608.79 343.098 611.987 341.955Z" fill="#FF8219"/>
<path opacity="0.1" d="M611.987 341.955C616.064 342.249 618.38 348.873 621.484 350.896C621.808 351.179 622.188 351.392 622.599 351.519C623.01 351.647 623.443 351.688 623.87 351.638C624.298 351.589 624.71 351.45 625.081 351.232C625.452 351.014 625.773 350.721 626.024 350.371C629.344 346.078 625.221 340.488 621.268 337.292C624.14 338.604 626.472 340.797 629.576 341.507C629.974 341.654 630.398 341.714 630.82 341.683C631.243 341.652 631.654 341.53 632.026 341.327C632.397 341.123 632.721 340.843 632.975 340.503C633.229 340.164 633.408 339.775 633.498 339.361C635.043 333.416 627.677 330.466 622.519 330.095C625.082 328.443 632.448 323.918 628.696 321.509C624.943 319.1 616.234 325.478 613.392 327.594C609.238 330.682 604.235 335.439 603.849 340.55C603.416 346.573 608.79 343.098 611.987 341.955Z" fill="black"/>
<path d="M610.767 342.913C616.079 340.735 625.978 344.549 626.905 342.604C628.789 338.635 620.882 335.577 616.574 334.882C620.604 333.94 628.294 332.52 628.217 328.705C628.109 324.073 616.527 327.609 610.566 331.794C603.077 337.106 602.845 342.496 604.081 343.623C605.671 345.152 609.887 343.283 610.767 342.913Z" fill="#FF8219"/>
<path d="M582.43 398.089C580.761 410.039 578.206 421.849 574.786 433.421C574.72 433.628 574.579 433.803 574.392 433.913C574.204 434.022 573.982 434.058 573.77 434.014C573.557 433.97 573.368 433.849 573.239 433.674C573.11 433.499 573.051 433.282 573.072 433.066C574.616 422.179 577.628 411.447 579.249 400.637C581.016 389.622 581.653 378.456 581.149 367.312C580.114 348.935 575.126 329.493 563.127 315.07C562.849 314.73 563.421 314.251 563.683 314.56C587.65 342.511 583.836 376.778 583.758 379.836C587.156 368.269 590.646 355.004 603.478 343.237C604.034 342.727 604.467 342.959 604.374 343.824C602.089 365.289 596.112 376.485 583.681 387.959C583.362 391.366 582.945 394.743 582.43 398.089Z" fill="#263238"/>
<path d="M562.926 318.282C558.618 316.367 552.672 321.849 548.41 322.235C547.921 322.35 547.412 322.358 546.919 322.261C546.425 322.163 545.959 321.962 545.549 321.669C545.14 321.377 544.798 321.001 544.546 320.566C544.293 320.131 544.137 319.647 544.086 319.147C543.021 312.97 550.263 309.526 556.008 308.414C552.394 308.198 548.827 309.171 545.198 308.198C544.716 308.132 544.254 307.964 543.842 307.704C543.431 307.444 543.08 307.099 542.814 306.692C542.547 306.285 542.371 305.826 542.298 305.345C542.224 304.864 542.255 304.373 542.388 303.905C543.932 296.971 553.197 297.99 558.571 300.461C556.842 297.373 551.777 288.864 556.904 288.37C562.031 287.875 567.435 299.179 569.165 302.855C571.713 308.29 574.246 315.796 571.852 321.216C569.134 327.624 565.567 321.17 562.926 318.282Z" fill="#FF8219"/>
<path opacity="0.1" d="M562.926 318.282C558.618 316.367 552.672 321.849 548.41 322.235C547.921 322.35 547.412 322.358 546.919 322.261C546.425 322.163 545.959 321.962 545.549 321.669C545.14 321.377 544.798 321.001 544.546 320.566C544.293 320.131 544.137 319.647 544.086 319.147C543.021 312.97 550.263 309.526 556.008 308.414C552.394 308.198 548.827 309.171 545.198 308.198C544.716 308.132 544.254 307.964 543.842 307.704C543.431 307.444 543.08 307.099 542.814 306.692C542.547 306.285 542.371 305.826 542.298 305.345C542.224 304.864 542.255 304.373 542.388 303.905C543.932 296.971 553.197 297.99 558.571 300.461C556.842 297.373 551.777 288.864 556.904 288.37C562.031 287.875 567.435 299.179 569.165 302.855C571.713 308.29 574.246 315.796 571.852 321.216C569.134 327.624 565.567 321.17 562.926 318.282Z" fill="black"/>
<path d="M563.652 319.919C559.421 314.823 547.283 313.325 547.391 310.838C547.623 305.789 557.336 306.962 562.108 308.584C558.51 305.495 551.453 299.828 553.63 295.952C556.286 291.226 566.123 301.171 569.891 308.692C574.647 318.158 571.883 323.733 570.092 324.243C567.621 324.953 564.347 320.768 563.652 319.919Z" fill="#FF8219"/>
<path d="M598.197 404.544L608.775 485.324H544.441C545.769 478.158 557.753 404.451 557.753 404.451L598.197 404.544Z" fill="#FF8219"/>
<path d="M24.8628 485.092L103.064 484.706L181.265 484.582L337.667 484.32L494.068 484.567L572.269 484.706L650.47 485.092L572.269 485.462L494.068 485.601L337.667 485.864L181.265 485.601L103.064 485.462L24.8628 485.092Z" fill="#263238"/>
<path d="M486.393 570.674L532.983 543.156L592.174 562.969L543.561 592.51L486.393 570.674Z" fill="white"/>
<path d="M541.724 584.851C544.58 582.735 547.53 580.774 550.495 578.813C553.46 576.851 556.487 574.998 559.498 573.145C562.509 571.292 565.582 569.485 568.763 567.771L573.396 565.192C574.94 564.374 576.485 563.524 578.153 562.752C576.716 563.818 575.249 564.806 573.798 565.841L569.304 568.852C566.339 570.813 563.328 572.682 560.301 574.535C557.274 576.388 554.217 578.179 551.113 579.909C548.009 581.639 544.92 583.275 541.724 584.851Z" fill="#DBDBDB"/>
<path d="M549.414 573.67C552.718 571.02 556.201 568.6 559.838 566.428C563.439 564.199 567.19 562.222 571.065 560.513C564.422 565.764 557.161 570.183 549.445 573.67H549.414Z" fill="#DBDBDB"/>
<path d="M527.687 580.372C530.543 578.257 533.493 576.295 536.473 574.35C539.454 572.404 542.45 570.52 545.461 568.667C548.472 566.814 551.545 565.022 554.649 563.293L559.282 560.714C560.826 559.911 562.37 559.046 564.023 558.274C562.587 559.34 561.12 560.328 559.668 561.363L555.236 564.312C552.271 566.273 549.26 568.126 546.233 569.98C543.206 571.833 540.149 573.639 537.045 575.353C533.941 577.068 530.883 578.813 527.687 580.372Z" fill="#DBDBDB"/>
<path d="M525.896 575.029C530.76 571.354 535.887 568.08 541.06 564.899C546.233 561.718 551.515 558.722 557.028 556.097C552.163 559.772 547.036 563.046 541.863 566.227C536.69 569.408 531.393 572.327 525.896 575.029Z" fill="#DBDBDB"/>
<path d="M531.979 564.76C534.673 562.462 537.555 560.396 540.596 558.583C543.594 556.712 546.745 555.1 550.016 553.765C547.323 556.063 544.441 558.129 541.399 559.942C538.399 561.807 535.248 563.418 531.979 564.76Z" fill="#DBDBDB"/>
<path d="M388.024 590.935L461.623 562.181L532.644 605.003L459.415 634.776L388.024 590.935Z" fill="white"/>
<path d="M458.38 625.989C463.167 623.704 468.031 621.573 472.896 619.457C477.76 617.342 482.671 615.303 487.566 613.28C492.462 611.257 497.419 609.311 502.376 607.443L509.834 604.648C512.336 603.768 514.822 602.841 517.355 602.007C514.961 603.165 512.537 604.231 510.128 605.358L502.901 608.632C498.052 610.748 493.141 612.771 488.23 614.809C483.32 616.847 478.393 618.778 473.421 620.646C468.448 622.515 463.414 624.353 458.38 625.989Z" fill="#DBDBDB"/>
<path d="M477.236 610.809C482.487 608.03 487.907 605.667 493.374 603.412C498.84 601.158 504.384 599.119 510.098 597.452C504.848 600.247 499.427 602.594 493.961 604.849C488.494 607.103 482.95 609.142 477.236 610.809Z" fill="#DBDBDB"/>
<path d="M451.122 613.852C455.307 611.813 459.569 609.914 463.831 608.045C468.093 606.177 472.386 604.401 476.695 602.625C481.003 600.849 485.327 599.15 489.682 597.529L496.23 595.105C498.438 594.348 500.615 593.56 502.839 592.834C500.754 593.869 498.623 594.811 496.523 595.799L490.13 598.641C485.883 600.509 481.575 602.285 477.266 604.061C472.958 605.837 468.634 607.52 464.279 609.142C459.924 610.763 455.554 612.4 451.122 613.852Z" fill="#DBDBDB"/>
<path d="M447.694 607.675C451.57 605.744 455.508 603.984 459.446 602.254C463.384 600.525 467.368 598.857 471.352 597.22C475.336 595.583 479.351 594.008 483.397 592.51L489.451 590.286C491.505 589.591 493.528 588.85 495.628 588.202C493.698 589.175 491.736 590.055 489.791 590.981L483.83 593.56C479.892 595.305 475.923 596.942 471.939 598.594C467.955 600.247 463.94 601.791 459.894 603.227C455.848 604.663 451.802 606.347 447.694 607.675Z" fill="#DBDBDB"/>
<path d="M429.364 607.551C434.151 605.25 439.016 603.119 443.88 601.004C448.745 598.888 453.64 596.865 458.551 594.827C463.461 592.788 468.403 590.873 473.36 589.005L480.819 586.21C483.32 585.329 485.807 584.387 488.324 583.553C485.946 584.712 483.506 585.793 481.097 586.905L473.808 590.101C468.943 592.232 464.048 594.24 459.137 596.278C454.227 598.317 449.285 600.231 444.328 602.1C439.371 603.968 434.399 605.914 429.364 607.551Z" fill="#DBDBDB"/>
<path d="M428.777 600.216C433.024 598.147 437.332 596.247 441.641 594.348C445.949 592.448 450.304 590.657 454.659 588.866C459.014 587.074 463.384 585.36 467.801 583.708L474.425 581.253C476.649 580.48 478.857 579.708 481.112 578.952C478.996 579.986 476.834 580.944 474.703 581.963L468.248 584.82C463.94 586.719 459.585 588.511 455.23 590.302C450.876 592.093 446.505 593.807 442.089 595.444C437.672 597.081 433.225 598.734 428.777 600.216Z" fill="#DBDBDB"/>
<path d="M414.879 598.301C419.682 596 424.53 593.869 429.395 591.753C434.259 589.638 439.17 587.599 444.081 585.576C448.991 583.553 453.918 581.608 458.89 579.739L466.333 576.944C468.851 576.064 471.321 575.137 473.854 574.303C471.46 575.462 469.036 576.527 466.627 577.654L459.338 580.851C454.474 582.982 449.563 584.99 444.652 587.028C439.741 589.066 434.815 590.981 429.843 592.85C424.87 594.718 419.882 596.649 414.879 598.301Z" fill="#DBDBDB"/>
<path d="M431.712 583.862C437.287 580.944 443.047 578.442 448.853 576.064C454.66 573.686 460.528 571.431 466.566 569.686C460.991 572.62 455.231 575.106 449.424 577.407C443.618 579.708 437.75 582.055 431.712 583.862Z" fill="#DBDBDB"/>
<path d="M231.7 550.815L442.953 495.191L541.245 547.866L334.593 616.724L231.7 550.815Z" fill="#FF8219"/>
<path d="M244.795 549.858L338.995 610.423L532.659 546.044L437.642 495.577C437.642 495.577 379.686 503.206 376.983 504.04C374.281 504.874 348.724 515.498 348.724 515.498C348.724 515.498 312.866 521.675 310.442 522.54C308.017 523.405 244.795 549.858 244.795 549.858Z" fill="white"/>
<path d="M348.738 515.498L360.243 522.942L371.67 530.508L394.433 545.781L417.056 561.27L428.298 569.099L439.494 577.021L427.989 569.563L416.546 562.011L393.784 546.738L371.176 531.234L359.934 523.42L348.738 515.498Z" fill="#DBDBDB"/>
<path d="M366.729 559.587C369.169 558.799 371.656 558.12 374.142 557.456C376.628 556.792 379.13 556.205 381.632 555.618C384.133 555.031 386.666 554.506 389.198 554.074C391.731 553.641 394.263 553.147 396.827 552.807C394.372 553.61 391.885 554.352 389.399 554.938C386.913 555.525 384.427 556.189 381.925 556.776C379.423 557.363 376.906 557.888 374.374 558.32C371.841 558.753 369.308 559.278 366.729 559.587Z" fill="#DBDBDB"/>
<path d="M323.521 584.835C329.898 581.747 336.338 578.874 342.777 575.987C349.217 573.099 355.703 570.273 362.189 567.462C365.432 566.042 368.69 564.698 371.995 563.385C372.837 563.058 373.704 562.799 374.589 562.613L377.183 562.011L382.357 560.868C389.275 559.417 396.255 557.996 403.142 556.73C396.301 558.506 389.429 560.143 382.557 561.795L377.415 563.015C375.708 563.365 374.026 563.829 372.381 564.405C369.122 565.702 365.895 567.153 362.636 568.497L343.117 576.759C336.6 579.492 330.084 582.21 323.521 584.835Z" fill="#DBDBDB"/>
<path d="M330.115 589.174C336.292 586.086 342.469 583.26 348.77 580.388C355.07 577.515 361.294 574.736 367.563 571.941C370.652 570.535 373.864 569.192 377.045 567.879C377.848 567.555 378.589 567.215 379.485 566.922C380.381 566.628 381.184 566.489 382.018 566.273L387.052 565.146C393.769 563.725 400.502 562.351 407.266 561.131C400.626 562.876 393.939 564.466 387.268 566.103L382.265 567.292C381.431 567.509 380.581 567.694 379.809 567.956C379.037 568.219 378.265 568.559 377.462 568.883L368.011 572.96C361.695 575.662 355.441 578.488 349.11 581.16C342.778 583.831 336.478 586.549 330.115 589.174Z" fill="#DBDBDB"/>
<path d="M336.663 592.757C342.964 589.988 349.3 587.306 355.673 584.712C362.02 582.04 368.428 579.539 374.822 576.991C378.034 575.724 381.184 574.443 384.535 573.346L394.464 570.551C401.105 568.775 407.76 566.968 414.447 565.331C407.899 567.493 401.321 569.485 394.742 571.508L384.828 574.412C381.647 575.493 378.435 576.852 375.223 578.056C368.799 580.511 362.421 583.09 355.982 585.515C349.542 587.939 343.134 590.472 336.663 592.757Z" fill="#DBDBDB"/>
<path d="M431.542 561.393C437.395 558.537 443.34 555.896 449.363 553.425C450.907 552.807 452.374 552.174 453.903 551.618C454.675 551.34 455.447 551.047 456.265 550.815L458.628 550.182L468.064 547.68C474.333 545.982 480.649 544.407 486.95 542.77C493.25 541.133 499.551 539.558 505.882 538.013C499.628 539.851 493.389 541.658 487.12 543.418C480.85 545.179 474.596 546.97 468.326 548.653L458.906 551.232L456.574 551.865C455.849 552.082 455.03 552.375 454.32 552.668L449.78 554.413C443.726 556.822 437.673 559.201 431.542 561.393Z" fill="#DBDBDB"/>
<path d="M425.164 556.405C430.981 553.965 436.854 551.69 442.784 549.58C445.764 548.53 448.698 547.418 451.802 546.599L460.913 544.113C466.967 542.43 473.067 540.855 479.151 539.233C485.235 537.612 491.335 536.052 497.451 534.523C491.412 536.346 485.39 538.152 479.336 539.897C473.283 541.642 467.245 543.418 461.176 545.101L452.08 547.665C450.536 548.051 449.115 548.591 447.618 549.086L443.139 550.63C437.194 552.637 431.202 554.599 425.164 556.405Z" fill="#DBDBDB"/>
<path d="M419.018 551.973C424.814 549.585 430.656 547.341 436.545 545.241C439.494 544.206 442.413 543.109 445.455 542.152L454.582 539.928C460.651 538.384 466.735 537.041 472.835 535.604C478.935 534.168 485.019 532.809 491.134 531.466C485.096 533.118 479.058 534.74 473.005 536.284C466.951 537.828 460.898 539.372 454.829 540.917C451.818 541.673 448.744 542.461 445.764 543.202L436.885 546.152C430.975 548.242 425.02 550.182 419.018 551.973Z" fill="#DBDBDB"/>
<path d="M413.768 548.777C419.327 545.781 425.025 543.156 430.847 540.7C431.573 540.392 432.299 540.114 433.055 539.851C433.82 539.576 434.605 539.359 435.403 539.202L440.035 538.199L449.301 536.222C461.655 533.674 473.932 531.157 486.286 528.81C474.055 531.713 461.778 534.462 449.517 537.195L440.251 539.233L435.619 540.268C434.121 540.659 432.659 541.175 431.249 541.812C425.458 544.005 419.682 546.522 413.768 548.777Z" fill="#DBDBDB"/>
<path d="M408.007 544.685C413.566 541.704 419.264 539.063 425.086 536.624C425.812 536.315 426.538 536.037 427.31 535.774C428.069 535.497 428.849 535.28 429.642 535.126L434.275 534.122L443.54 532.145C455.894 529.582 468.171 527.08 480.525 524.733C468.294 527.636 456.018 530.385 443.756 533.118L434.491 535.156L429.858 536.191C428.356 536.568 426.893 537.085 425.488 537.735C419.697 540.005 413.921 542.6 408.007 544.685Z" fill="#DBDBDB"/>
<path d="M402.247 540.685C407.806 537.705 413.505 535.064 419.326 532.624C420.052 532.315 420.794 532.022 421.55 531.759C422.31 531.489 423.09 531.277 423.882 531.126L428.515 530.107L437.78 528.146C450.134 525.582 462.488 523.081 474.842 520.733C462.612 523.621 450.335 526.37 438.074 529.119L428.808 531.142L424.175 532.192C422.674 532.568 421.21 533.085 419.805 533.736C413.937 535.991 408.177 538.523 402.247 540.685Z" fill="#DBDBDB"/>
<path d="M396.487 536.685C402.047 533.69 407.745 531.064 413.567 528.609C414.293 528.3 415.111 528.022 415.79 527.76C416.55 527.484 417.33 527.268 418.122 527.111L422.755 526.107L432.021 524.146C444.375 521.583 456.651 519.065 469.005 516.734C456.775 519.621 444.514 522.37 432.237 525.119L422.971 527.142L418.338 528.177C416.839 528.561 415.376 529.078 413.968 529.721C408.177 531.991 402.417 534.523 396.487 536.685Z" fill="#DBDBDB"/>
<path d="M389.06 533.458C394.619 530.477 400.317 527.852 406.139 525.397C406.865 525.088 407.683 524.81 408.363 524.547C409.122 524.272 409.902 524.055 410.695 523.899L415.327 522.895L424.593 520.918C436.947 518.355 449.224 515.853 461.578 513.506C449.347 516.409 437.086 519.158 424.809 521.891L415.543 523.93L410.911 524.964C409.413 525.355 407.951 525.872 406.541 526.509C400.75 528.779 394.989 531.296 389.06 533.458Z" fill="#DBDBDB"/>
<path d="M381.848 530.246C387.392 527.265 393.105 524.64 398.912 522.185C399.637 521.876 400.379 521.598 401.135 521.336C401.896 521.062 402.675 520.845 403.467 520.687L408.1 519.683L417.365 517.707C429.719 515.143 441.981 512.641 454.335 510.294C442.104 513.197 429.843 515.946 417.566 518.679L408.301 520.718L403.668 521.752C402.165 522.141 400.697 522.658 399.282 523.297C393.522 525.613 387.762 528.115 381.848 530.246Z" fill="#DBDBDB"/>
<path d="M376.087 526.277C381.615 523.297 387.314 520.671 393.074 518.216C393.799 517.907 394.525 517.629 395.282 517.367C396.045 517.089 396.83 516.878 397.629 516.734L402.262 515.792L411.527 513.985C423.881 511.653 436.236 509.352 448.59 507.267C436.313 509.923 424.02 512.441 411.728 514.989L402.463 516.873L397.83 517.83C396.332 518.204 394.874 518.722 393.475 519.374C387.731 521.598 381.986 524.069 376.087 526.277Z" fill="#DBDBDB"/>
<path d="M370.327 522.277C375.856 519.297 381.538 516.672 387.314 514.232C388.04 513.923 388.781 513.63 389.522 513.383C390.283 513.098 391.069 512.886 391.869 512.749L396.502 511.885L405.768 510.263C418.122 508.178 430.476 506.171 442.83 504.333C430.476 506.727 418.199 508.966 405.876 511.252L396.61 512.935L391.978 513.815C390.487 514.162 389.034 514.653 387.638 515.282C381.955 517.598 376.273 520.116 370.327 522.277Z" fill="#DBDBDB"/>
<path d="M364.567 518.278C370.08 515.297 375.763 512.672 381.554 510.248C382.28 509.939 383.006 509.645 383.762 509.383C384.522 509.098 385.308 508.891 386.11 508.765L390.742 508.039L400.008 506.727C406.185 505.862 412.362 505.09 418.616 504.287C424.87 503.484 430.97 502.743 437.24 502.063C424.886 504.04 412.532 505.862 400.178 507.715L390.912 509.09L386.28 509.846C384.79 510.174 383.341 510.66 381.956 511.298C376.18 513.614 370.451 516.116 364.567 518.278Z" fill="#DBDBDB"/>
<path d="M343.35 598.316C349.789 595.707 356.275 593.189 362.776 590.719C369.278 588.248 375.81 585.839 382.327 583.414C385.6 582.21 388.843 581.067 392.194 579.955L402.186 576.944C408.857 574.998 415.543 573.052 422.261 571.261C415.698 573.562 409.073 575.709 402.448 577.855L392.503 580.944C389.26 582.025 385.986 583.291 382.713 584.434L363.07 591.46C356.522 593.823 350.021 596.124 343.35 598.316Z" fill="#DBDBDB"/>
<path d="M436.282 566.289C442.799 563.803 449.362 561.424 455.941 559.077C462.519 556.73 469.113 554.444 475.707 552.19C479.012 551.047 482.286 549.966 485.683 548.916L495.767 546.121C502.5 544.314 509.233 542.492 516.012 540.839C509.387 543.001 502.701 545.009 496.014 547.016L485.961 549.951C482.687 550.97 479.367 552.174 476.062 553.24L456.219 559.865C449.578 562.058 442.953 564.219 436.282 566.289Z" fill="#DBDBDB"/>
<path d="M244.672 577.531C249.814 576.79 256.439 576.79 256.81 579.739C257.18 582.689 254.848 584.279 255.574 585.746C256.3 587.213 260.485 589.916 262.446 591.923C264.085 593.665 265.264 595.788 265.874 598.1C265.874 598.842 267.11 600.062 265.874 601.544C264.639 603.027 263.96 605.219 262.956 606.331C261.952 607.443 261.52 608.648 262.956 610.609C264.392 612.57 263.187 618.222 260.979 620.183C258.771 622.144 252.393 617.481 250.432 617.975C248.471 618.469 248.224 619.426 246.509 620.662C244.795 621.897 240.61 624.847 236.209 624.847C231.808 624.847 229.584 620.909 226.944 619.195C224.303 617.481 221.801 617.234 219.346 616.261C217.141 615.37 215.196 613.936 213.694 612.091C213.215 611.103 211.486 610.856 212.15 608.169C212.814 605.482 214.111 604.725 214.111 602.517C214.111 600.309 214.111 599.923 214.111 597.421C214.111 594.919 212.134 590.503 213.849 588.541C215.563 586.58 216.798 583.631 219.5 583.631C222.203 583.631 230.774 585.175 230.774 585.175C231.685 584.185 232.507 583.115 233.229 581.978C233.849 580.95 234.719 580.096 235.759 579.497C236.799 578.897 237.974 578.571 239.174 578.55C241.049 578.502 242.904 578.158 244.672 577.531Z" fill="white"/>
<path d="M214.126 602.424C217.632 604.046 221.199 605.513 224.797 606.903C228.395 608.292 231.916 609.821 235.514 611.149C239.046 612.525 242.655 613.69 246.324 614.639C247.056 614.825 247.809 614.913 248.563 614.902L250.741 613.821C252.36 612.984 253.909 612.018 255.373 610.933C256.794 609.963 258.007 608.718 258.941 607.273C259.143 606.943 259.319 606.597 259.466 606.239L259.62 605.698L259.697 605.451C259.507 604.843 259.186 604.284 258.755 603.814C256.223 601.078 253.407 598.619 250.355 596.479C247.266 594.209 244.178 592.062 240.857 590.039C239.313 588.989 237.615 587.97 235.947 586.951C235.113 586.477 234.264 586.029 233.399 585.607C232.966 585.391 232.534 585.19 232.102 585.005C231.685 584.897 231.113 584.542 230.789 585.005C231.082 584.542 231.731 584.82 232.163 584.851C232.596 584.882 233.121 585.082 233.584 585.221C234.511 585.53 235.422 585.885 236.317 586.256C238.109 586.997 239.885 587.8 241.63 588.665C245.089 590.425 248.465 592.351 251.76 594.44C255.19 596.492 258.336 598.984 261.118 601.853C262.021 602.789 262.615 603.981 262.817 605.266C262.847 605.507 262.847 605.75 262.817 605.991L262.693 606.455L262.446 607.304C262.249 607.841 262.001 608.359 261.705 608.848C260.578 610.668 259.097 612.244 257.35 613.481C255.703 614.643 253.968 615.676 252.161 616.57L250.833 617.218L250.185 617.527L249.814 617.697C249.58 617.792 249.337 617.865 249.088 617.913C247.918 618.014 246.739 617.893 245.614 617.558C241.833 616.459 238.146 615.059 234.588 613.373C227.491 610.265 220.65 606.604 214.126 602.424Z" fill="#C7C7C7"/>
<path d="M228.766 609.08C230.656 606.088 232.784 603.253 235.128 600.602C236.287 599.243 237.537 597.992 238.788 596.726C239.437 596.093 240.116 595.506 240.827 594.919C241.609 594.239 242.476 593.663 243.406 593.205C243.567 593.139 243.732 593.083 243.9 593.035C244.243 592.981 244.592 592.981 244.934 593.035C245.446 593.134 245.915 593.387 246.278 593.761C246.647 594.138 246.982 594.547 247.282 594.981C247.843 595.732 248.358 596.516 248.826 597.328C249.675 598.873 250.509 600.417 251.204 602.115C252.731 605.326 253.857 608.713 254.555 612.199L248.98 603.289C248.038 601.822 247.174 600.324 246.216 598.919C245.753 598.208 245.29 597.483 244.811 596.865C244.607 596.588 244.385 596.325 244.147 596.077C244.147 596.077 244.147 596.077 244.394 596.186C244.513 596.232 244.645 596.232 244.765 596.186H244.641C244 596.505 243.399 596.899 242.85 597.359L240.904 598.903L236.966 602.285C234.279 604.663 231.623 606.964 228.766 609.08Z" fill="#C7C7C7"/>
<path d="M149.561 601.961C146.782 602.625 143.153 602.965 142.798 601.374C142.442 599.784 143.631 598.78 143.153 598.023C141.871 596.919 140.508 595.912 139.076 595.012C138.09 594.152 137.336 593.058 136.883 591.831C136.883 591.429 136.111 590.812 136.713 589.947C137.315 589.082 137.562 587.831 138.057 587.167C138.214 587.007 138.334 586.815 138.41 586.603C138.485 586.392 138.513 586.167 138.493 585.943C138.472 585.72 138.403 585.504 138.29 585.31C138.178 585.116 138.024 584.948 137.84 584.82C136.945 583.816 137.331 580.666 138.443 579.477C139.555 578.288 143.276 580.527 144.326 580.156C145.376 579.786 145.469 579.23 146.334 578.473C147.828 577.019 149.719 576.041 151.77 575.662C154.194 575.431 155.599 577.469 157.159 578.272C158.552 578.833 160.002 579.242 161.483 579.492C162.735 579.866 163.872 580.551 164.788 581.484C165.112 581.994 166.054 582.04 165.791 583.553C165.529 585.067 164.896 585.546 165.004 586.75C165.112 587.955 165.127 588.171 165.266 589.545C165.405 590.92 166.703 593.236 165.869 594.394C165.035 595.552 164.494 597.236 163.027 597.375C161.56 597.514 156.85 597.143 156.85 597.143C156.396 597.733 155.998 598.363 155.661 599.027C155.375 599.623 154.941 600.136 154.4 600.518C153.86 600.899 153.23 601.135 152.573 601.204C151.535 601.296 150.519 601.552 149.561 601.961Z" fill="white"/>
<path d="M138.891 586.21C140.435 584.665 141.979 583.198 143.523 581.7L144.712 580.619L145.299 580.094C145.652 579.82 146.056 579.62 146.488 579.508C147.62 579.255 148.773 579.111 149.932 579.075C152.168 578.983 154.407 579.107 156.619 579.446C157.868 579.608 159.08 579.984 160.201 580.558C160.982 581.067 161.535 581.858 161.746 582.766C161.932 583.429 162.021 584.116 162.008 584.804C161.862 587.133 161.341 589.422 160.464 591.584C160.042 592.639 159.563 593.67 159.028 594.672C158.743 595.207 158.423 595.723 158.07 596.216C157.621 596.844 156.998 597.327 156.279 597.606C154.038 598.228 151.694 598.381 149.392 598.054C147.227 597.828 145.08 597.451 142.967 596.927C145.129 596.757 147.276 596.726 149.392 596.464C151.385 596.393 153.355 596.007 155.229 595.321C155.63 595.105 155.522 595.105 155.847 594.672C156.171 594.24 156.294 593.854 156.495 593.406C156.919 592.484 157.28 591.535 157.576 590.564C158.25 588.713 158.645 586.772 158.75 584.804C158.792 584.218 159.051 583.667 159.476 583.26C158.325 582.898 157.148 582.629 155.955 582.457C153.92 582.021 151.855 581.737 149.778 581.608C148.786 581.531 147.789 581.531 146.797 581.608C146.612 581.608 146.427 581.7 146.504 581.608L145.809 582.056L144.434 582.936C142.628 584.001 140.821 585.19 138.891 586.21Z" fill="#C7C7C7"/>
<path d="M145.562 582.087C145.685 584.156 145.562 586.132 145.762 587.939C145.762 588.789 146.025 589.823 146.241 589.87C146.457 589.916 146.241 589.87 146.164 589.87C146.087 589.87 146.164 589.87 146.349 589.87C146.722 589.853 147.094 589.812 147.461 589.746C149.206 589.453 151.09 588.928 152.989 588.526C154.936 588.066 156.912 587.746 158.904 587.569C155.765 590.232 152.013 592.074 147.986 592.927C147.382 593.007 146.773 593.038 146.164 593.02C145.735 592.981 145.314 592.882 144.913 592.726C144.434 592.496 144.028 592.138 143.739 591.692C143.12 590.527 142.945 589.177 143.245 587.893C143.592 585.814 144.382 583.833 145.562 582.087Z" fill="#C7C7C7"/>
<path d="M122.259 561.224C120.823 556.869 121.07 551.819 116.082 552.36C111.094 552.9 108.237 546.754 106.029 545.287C103.821 543.82 95.9758 545.287 94.2616 546.754C92.5475 548.221 91.8063 551.093 90.0922 552.36C88.378 553.626 85.9227 555.587 83.7144 557.548C81.5061 559.51 78.325 562.181 79.2978 567.107C80.2707 572.033 82.4944 573.701 83.9306 576.172C85.3668 578.643 82.9423 583.059 84.9035 588.696C86.8647 594.332 96.439 596.541 98.8944 595.568C101.35 594.595 107.897 590.41 111.48 590.41C115.063 590.41 116.113 593.36 119.201 591.645C122.29 589.931 127.046 586.241 127.293 584.774C127.54 583.306 124.591 582.009 125.579 579.708C126.567 577.407 130.49 573.099 129.996 570.227C129.501 567.354 123.355 564.559 122.259 561.224Z" fill="white"/>
<path d="M113.163 551.866C107.109 553.808 101.196 556.166 95.466 558.923C94.8419 559.249 94.2522 559.637 93.7055 560.081C93.4739 560.081 93.3349 561.208 93.1959 561.888C92.9334 563.432 92.7327 564.976 92.5782 566.521C92.2539 569.609 92.0069 572.837 91.9914 575.971C91.9544 577.494 92.037 579.017 92.2385 580.527C92.2757 580.949 92.3854 581.362 92.5628 581.747C93.1109 582.005 93.6935 582.181 94.2924 582.272C97.3592 582.72 100.462 582.87 103.558 582.72C105.107 582.682 106.654 582.564 108.191 582.365C109.519 582.148 111.279 581.701 112.823 581.438C115.912 580.805 119.093 580.203 122.089 579.431C122.804 579.256 123.511 579.044 124.205 578.797C124.331 578.767 124.451 578.715 124.56 578.643C124.56 578.643 124.73 578.643 124.56 578.643C124.446 578.713 124.363 578.823 124.328 578.952C124.142 579.309 124.104 579.725 124.22 580.11C124.273 580.314 124.38 580.501 124.529 580.65C124.583 580.715 124.646 580.772 124.714 580.82L124.297 580.65C122.923 580.203 121.348 579.832 119.819 579.477L110.553 577.392C107.465 576.713 104.376 576.018 101.18 575.23C99.6355 574.813 98.0912 574.412 96.4698 573.871C95.5116 573.582 94.616 573.115 93.8291 572.497C93.7216 572.397 93.6281 572.282 93.5511 572.157C93.4409 571.976 93.3626 571.778 93.3195 571.57C93.3195 571.37 93.3195 571.184 93.3195 570.983C93.3277 570.676 93.3905 570.373 93.5048 570.088C93.6506 569.635 93.8366 569.195 94.0607 568.775C95.7631 565.941 97.8008 563.323 100.13 560.977C100.716 560.405 101.288 559.818 101.906 559.278C102.23 559 102.539 558.722 102.878 558.46C103.049 558.319 103.23 558.19 103.419 558.073C103.653 557.878 103.927 557.736 104.222 557.657C104.54 557.6 104.867 557.611 105.18 557.688C105.494 557.765 105.788 557.907 106.044 558.104C106.416 558.354 106.767 558.632 107.094 558.938C107.696 559.511 108.264 560.12 108.793 560.761C112.688 565.873 116.173 571.284 119.217 576.944C115.667 571.661 111.789 566.606 107.604 561.811C107.063 561.255 106.523 560.699 105.967 560.266C105.597 559.924 105.168 559.652 104.701 559.463L104.469 559.633C104.319 559.727 104.179 559.835 104.052 559.957C103.774 560.189 103.496 560.467 103.234 560.73C102.678 561.27 102.153 561.841 101.689 562.413C99.6215 564.703 97.8283 567.227 96.3462 569.933C96.2025 570.225 96.0887 570.53 96.0065 570.844C96.0065 570.937 95.9138 571.138 96.0065 571.107C95.9876 570.992 95.9456 570.881 95.8829 570.783L95.8057 570.675C96.3439 570.946 96.9077 571.163 97.489 571.323C98.9251 571.786 100.469 572.173 101.998 572.543C105.087 573.269 108.175 573.918 111.264 574.551L123.247 576.852C124.791 577.207 123.788 577.16 125.471 577.685L126.166 577.948C126.333 578.015 126.493 578.098 126.644 578.195C126.806 578.29 126.952 578.41 127.077 578.55C127.255 578.739 127.388 578.966 127.463 579.214C127.59 579.652 127.546 580.121 127.339 580.527C127.156 580.796 126.932 581.036 126.675 581.237C126.537 581.346 126.387 581.439 126.227 581.515C125.997 581.648 125.754 581.756 125.502 581.84C124.696 582.151 123.871 582.409 123.031 582.612C119.834 583.384 116.684 583.94 113.549 584.527C111.897 584.804 110.6 585.113 108.762 585.407C107.121 585.593 105.472 585.696 103.82 585.716C100.523 585.828 97.2224 585.61 93.9681 585.067C92.9837 584.913 92.0392 584.567 91.1884 584.048C90.6427 583.631 90.2514 583.044 90.0765 582.38C89.9214 581.92 89.8229 581.443 89.7831 580.959C89.6524 579.294 89.6524 577.621 89.7831 575.956C89.953 572.698 90.3391 569.516 90.8178 566.32C91.0649 564.776 91.3274 563.139 91.6826 561.548C91.976 560.73 91.7907 560.004 92.7636 558.907C93.4444 558.342 94.2039 557.879 95.0182 557.533C97.9912 556.275 101.039 555.202 104.145 554.321C106.955 553.41 110.028 552.483 113.163 551.866Z" fill="#C7C7C7"/>
<path d="M362.111 293.821C412.299 344.673 475.413 451.659 463.645 473.356C450.55 497.508 380.673 426.21 380.935 422.056C381.151 418.967 356.567 353.908 337.912 306.654C319.258 259.4 349.71 281.235 362.111 293.821Z" fill="#AD6359"/>
<path d="M380.473 422.148C378.342 415.199 344.955 329.493 335.335 302.391C325.714 275.29 334.64 266.874 361.942 291.736C389.245 316.599 449.1 399.463 462.751 443.459C475.908 485.864 454.088 485.864 425.287 466.314C401.707 450.315 380.473 422.148 380.473 422.148Z" fill="#FF8219"/>
<path d="M357.201 294.531C356.901 296.431 356.328 298.277 355.503 300.013C354.709 301.773 353.669 303.411 352.414 304.878C352.712 302.978 353.284 301.131 354.113 299.396C354.906 297.636 355.946 295.998 357.201 294.531Z" fill="white"/>
<path d="M442.999 407.493C442.687 409.395 442.115 411.244 441.3 412.991C440.512 414.753 439.472 416.392 438.212 417.855C438.862 414.044 440.502 410.471 442.968 407.493H442.999Z" fill="white"/>
<path d="M413.412 362.478C412.758 366.284 411.118 369.851 408.655 372.825C408.959 370.924 409.536 369.078 410.369 367.343C411.149 365.586 412.173 363.948 413.412 362.478Z" fill="white"/>
<path d="M384.503 359.096C382.604 358.786 380.758 358.209 379.021 357.382C377.258 356.595 375.619 355.554 374.156 354.294C377.962 354.947 381.529 356.587 384.503 359.05V359.096Z" fill="white"/>
<path d="M412.207 404.621C410.305 404.308 408.455 403.737 406.709 402.922C404.95 402.128 403.312 401.088 401.845 399.834C405.656 400.483 409.229 402.124 412.207 404.59V404.621Z" fill="white"/>
<path d="M389.692 326.636C387.789 326.331 385.938 325.759 384.194 324.938C382.432 324.149 380.793 323.109 379.33 321.849C381.231 322.152 383.077 322.73 384.812 323.563C386.574 324.356 388.216 325.39 389.692 326.636Z" fill="white"/>
<path d="M366.358 378.77C368.582 381.928 369.945 385.611 370.312 389.456C368.088 386.298 366.725 382.615 366.358 378.77Z" fill="white"/>
<path d="M424.313 432.958C425.444 434.52 426.344 436.236 426.985 438.054C427.68 439.846 428.111 441.729 428.267 443.644C426.043 440.486 424.68 436.803 424.313 432.958Z" fill="white"/>
<path d="M392.178 428.217C390.732 429.282 389.14 430.134 387.453 430.75L386.449 429.545H386.573C388.368 428.835 390.256 428.388 392.178 428.217Z" fill="white"/>
<path d="M449.64 463.164C451.205 462.035 452.92 461.13 454.736 460.477C456.527 459.782 458.41 459.35 460.326 459.195C458.771 460.328 457.06 461.228 455.245 461.866C453.447 462.56 451.56 462.997 449.64 463.164Z" fill="white"/>
<path d="M357.741 335.021C356.18 336.152 354.464 337.052 352.645 337.693C351.394 338.165 350.101 338.522 348.785 338.759L348.507 338.002C349.664 337.33 350.879 336.762 352.136 336.303C353.932 335.607 355.821 335.175 357.741 335.021Z" fill="white"/>
<path d="M374.481 485.092H183.704C183.704 485.092 214.033 335.469 287.169 270.703C296.203 262.704 316.602 264.526 329.914 271.136C334.655 273.498 351.719 297.388 356.583 319.919C361.448 342.449 375.006 484.412 374.481 485.092Z" fill="#FF8219"/>
<path d="M358.266 329.246C359.811 334.28 361 339.515 362.019 344.689C362.019 344.488 362.019 344.287 362.019 344.071C362.019 341.137 362.112 338.126 362.436 335.191C362.436 335.037 362.698 334.991 362.714 335.191C363.097 338.161 363.18 341.162 362.961 344.148C362.961 345.553 362.791 346.974 362.683 348.379C363.084 350.727 363.44 353.089 363.733 355.421C364.289 359.884 365.787 376.454 365.91 379.743C365.91 380.438 365.154 380.562 364.953 379.836C364.057 376.5 361.679 359.421 360.922 355.02C359.449 346.485 358.443 337.876 357.911 329.231C357.927 329.076 358.22 329.076 358.266 329.246Z" fill="#263238"/>
<path d="M299.153 309.758C298.503 313.569 296.863 317.142 294.397 320.119C294.697 318.218 295.275 316.371 296.111 314.637C296.89 312.876 297.914 311.233 299.153 309.758ZM273.302 385.735C272.474 387.476 271.901 389.327 271.603 391.232C272.863 389.763 273.903 388.119 274.692 386.352C275.513 384.614 276.085 382.769 276.391 380.87C275.131 382.334 274.091 383.972 273.302 385.735ZM211.331 412.883C210.51 414.621 209.938 416.467 209.633 418.365C210.892 416.901 211.933 415.263 212.721 413.5C213.543 411.757 214.114 409.906 214.42 408.003C213.165 409.476 212.125 411.119 211.331 412.883ZM256.887 461.588C256.058 463.324 255.486 465.171 255.188 467.07C256.448 465.607 257.488 463.969 258.276 462.206C259.091 460.46 259.663 458.61 259.975 456.709C258.714 458.199 257.673 459.863 256.887 461.65V461.588ZM336.416 367.466C335.594 369.204 335.022 371.05 334.717 372.948C335.977 371.485 337.017 369.846 337.805 368.084C338.627 366.346 339.199 364.5 339.504 362.602C338.25 364.092 337.211 365.75 336.416 367.528V367.466ZM361.479 419.152C360.65 420.893 360.078 422.745 359.78 424.65C361.041 423.187 362.081 421.548 362.869 419.785C363.667 418.084 364.228 416.281 364.536 414.427C363.294 415.869 362.264 417.481 361.479 419.214V419.152ZM300.836 456.4C300.014 458.143 299.443 459.994 299.137 461.897C300.397 460.434 301.437 458.795 302.226 457.033C303.047 455.289 303.619 453.438 303.925 451.535C302.665 453.022 301.625 454.68 300.836 456.461V456.4ZM242.726 355.745C241.9 357.482 241.328 359.328 241.027 361.227C242.282 359.761 243.322 358.123 244.116 356.363C244.944 354.627 245.516 352.781 245.814 350.881C244.559 352.348 243.519 353.986 242.726 355.745ZM314.842 338.759C313.107 337.93 311.26 337.358 309.36 337.06C310.824 338.32 312.462 339.36 314.225 340.148C315.966 340.963 317.81 341.535 319.707 341.847C318.243 340.587 316.605 339.547 314.842 338.759ZM326.857 400.081C325.121 399.252 323.275 398.68 321.375 398.382C322.838 399.642 324.477 400.682 326.239 401.471C327.981 402.283 329.825 402.855 331.721 403.169C330.258 401.91 328.619 400.869 326.857 400.081ZM214.682 465.125C212.946 464.299 211.099 463.727 209.2 463.426C210.663 464.686 212.302 465.726 214.065 466.515C215.805 467.329 217.65 467.901 219.547 468.213C218.088 466.955 216.455 465.915 214.698 465.125H214.682ZM328.833 477.556C327.092 476.729 325.24 476.157 323.336 475.857C324.805 477.109 326.442 478.149 328.2 478.946L329.374 479.455L332.462 479.656C331.326 478.846 330.116 478.143 328.849 477.556H328.833ZM257.566 415.431C255.83 414.605 253.983 414.033 252.084 413.732C253.547 414.992 255.186 416.033 256.948 416.82C258.686 417.647 260.532 418.224 262.431 418.535C260.973 417.271 259.34 416.225 257.582 415.431H257.566ZM314.827 284.355C313.091 283.526 311.245 282.954 309.345 282.656C310.808 283.916 312.446 284.957 314.209 285.744C315.947 286.571 317.792 287.148 319.691 287.459C318.234 286.195 316.6 285.149 314.842 284.355H314.827ZM327.181 312.831C327.849 314.65 328.78 316.362 329.945 317.911C329.579 314.066 328.216 310.383 325.992 307.225C326.121 309.142 326.527 311.03 327.196 312.831H327.181ZM357.479 454.902C358.122 456.715 359.021 458.426 360.151 459.982C359.784 456.137 358.422 452.454 356.198 449.296C356.366 451.191 356.803 453.053 357.495 454.825L357.479 454.902ZM275.634 348.595C276.273 350.41 277.173 352.121 278.305 353.676C278.15 351.761 277.718 349.878 277.024 348.086C276.37 346.27 275.466 344.555 274.337 342.99C274.52 344.885 274.967 346.746 275.665 348.518L275.634 348.595ZM299.215 411.03C299.868 412.84 300.773 414.551 301.902 416.11C301.539 412.262 300.17 408.576 297.933 405.424C298.096 407.343 298.527 409.23 299.215 411.03ZM189.897 484.304C189.897 484.567 189.897 484.829 189.897 485.092H190.391C190.268 484.835 190.103 484.572 189.897 484.304ZM243.606 484.057C242.952 482.242 242.048 480.526 240.919 478.961C241.08 480.881 241.512 482.768 242.201 484.567L242.402 485.092H243.946C243.838 484.752 243.73 484.397 243.606 484.057ZM232.657 440C233.299 441.818 234.198 443.534 235.329 445.096C235.175 443.175 234.743 441.287 234.047 439.49C233.397 437.678 232.492 435.967 231.36 434.41C231.528 436.325 231.965 438.206 232.657 440ZM278.846 292.925C279.496 294.737 280.401 296.448 281.533 298.006C281.148 294.167 279.781 290.492 277.564 287.335C277.722 289.249 278.148 291.13 278.83 292.925H278.846ZM329.945 437.081C331.76 436.442 333.471 435.542 335.026 434.41C333.11 434.565 331.227 434.997 329.436 435.691C327.624 436.336 325.913 437.236 324.355 438.363C326.27 438.207 328.153 437.776 329.945 437.081ZM280.004 483.023C281.822 482.381 283.539 481.482 285.1 480.351C283.179 480.505 281.291 480.936 279.494 481.633C277.683 482.278 275.972 483.177 274.414 484.304C276.308 484.143 278.17 483.712 279.942 483.023H280.004ZM195.07 441.42C194.947 441.853 194.808 442.301 194.684 442.718C195.597 442.288 196.466 441.771 197.278 441.173C196.517 441.197 195.758 441.28 195.008 441.42H195.07ZM238.618 388.514C240.433 387.87 242.145 386.965 243.699 385.827C239.856 386.216 236.177 387.582 233.012 389.796C234.911 389.629 236.777 389.198 238.556 388.514H238.618ZM278.599 439.135C280.413 438.496 282.125 437.596 283.679 436.463C281.759 436.619 279.871 437.051 278.074 437.745C276.263 438.399 274.553 439.303 272.993 440.432C274.913 440.264 276.8 439.827 278.599 439.135ZM302.38 366.555C304.195 365.911 305.907 365.006 307.461 363.868C305.54 364.029 303.652 364.466 301.855 365.165C300.044 365.811 298.333 366.71 296.775 367.837C298.694 367.676 300.581 367.244 302.38 366.555ZM352.707 337.693C354.526 337.052 356.242 336.152 357.804 335.021C353.958 335.388 350.275 336.751 347.117 338.975C349.033 338.819 350.916 338.388 352.707 337.693ZM262.708 320.814C264.523 320.176 266.234 319.276 267.789 318.143C265.873 318.296 263.99 318.728 262.199 319.425C260.384 320.073 258.668 320.972 257.103 322.096C259.024 321.942 260.912 321.511 262.708 320.814Z" fill="white"/>
<path d="M329.065 302.747C317.591 305.001 298.566 286.748 291.339 272.356C290.845 271.352 292.729 261.175 294.427 248.698C295.447 241.131 296.389 232.668 296.682 224.885C296.682 223.341 345.033 238.66 345.033 238.66C345.033 238.66 339.597 254.782 339.149 268.341C339.12 269.415 339.187 270.49 339.35 271.553C339.36 271.733 339.36 271.913 339.35 272.093C340.199 278.116 340.215 300.554 329.065 302.747Z" fill="#AD6359"/>
<path d="M334.424 272.078C336.093 272.219 337.772 272.219 339.442 272.078C339.452 271.903 339.452 271.728 339.442 271.553C339.272 270.491 339.204 269.415 339.242 268.341C339.689 254.782 345.11 238.66 345.11 238.66C345.11 238.66 305.932 226.183 298.118 224.87C299.23 233.842 305.67 270.302 334.424 272.078Z" fill="#263238"/>
<path d="M284.729 177.06C280.976 194.772 294.411 243.818 307.661 253.856C326.841 268.418 356.104 267.43 367.887 244.853C379.345 222.971 360.691 159.363 346.113 150.452C324.679 137.342 290.288 150.9 284.729 177.06Z" fill="#AD6359"/>
<path d="M335.041 205.32C335.041 205.196 334.825 205.536 334.871 205.675C335.86 208.949 336.416 212.887 333.759 214.786C333.667 214.786 333.759 215.002 333.837 214.956C337.342 213.458 336.508 208.269 335.041 205.32Z" fill="#263238"/>
<path d="M331.165 202.648C325.729 203.683 328.185 214.462 333.219 213.458C338.253 212.454 335.721 201.799 331.165 202.648Z" fill="#263238"/>
<path d="M355.44 200.208C355.44 200.069 355.734 200.301 355.765 200.44C356.413 203.806 357.726 207.543 361 207.976C361.108 207.976 361.123 208.161 361 208.161C357.216 208.485 355.518 203.498 355.44 200.208Z" fill="#263238"/>
<path d="M357.618 196.039C362.899 194.402 365.771 205.088 360.876 206.601C355.981 208.115 353.201 197.398 357.618 196.039Z" fill="#263238"/>
<path d="M326.331 201.614C327.817 201.314 329.286 200.938 330.733 200.486C332.332 200.293 333.827 199.589 334.995 198.479C335.29 198.054 335.436 197.543 335.411 197.027C335.386 196.51 335.19 196.016 334.856 195.622C334.081 194.942 333.138 194.481 332.125 194.288C331.112 194.096 330.066 194.177 329.096 194.526C327.012 194.917 325.15 196.074 323.876 197.768C323.612 198.172 323.471 198.642 323.468 199.124C323.465 199.606 323.602 200.079 323.861 200.485C324.12 200.891 324.491 201.213 324.93 201.414C325.368 201.614 325.855 201.683 326.331 201.614Z" fill="#263238"/>
<path d="M360.552 189.661C359.037 189.692 357.521 189.646 356.011 189.522C354.397 189.705 352.767 189.346 351.379 188.503C350.997 188.155 350.741 187.691 350.651 187.182C350.562 186.673 350.644 186.149 350.884 185.692C351.493 184.857 352.313 184.199 353.26 183.786C354.208 183.374 355.248 183.221 356.274 183.345C358.389 183.276 360.453 183.997 362.065 185.368C362.417 185.698 362.665 186.124 362.78 186.592C362.894 187.061 362.87 187.553 362.709 188.009C362.549 188.464 362.259 188.862 361.876 189.156C361.493 189.449 361.033 189.625 360.552 189.661Z" fill="#263238"/>
<path d="M339.01 235.865C339.998 236.467 341.033 237.409 342.269 237.193C343.504 236.884 344.661 236.322 345.666 235.541C345.687 235.527 345.712 235.52 345.737 235.521C345.762 235.522 345.787 235.531 345.807 235.546C345.827 235.561 345.842 235.582 345.85 235.606C345.858 235.63 345.858 235.656 345.851 235.68C345.519 236.442 344.989 237.1 344.315 237.587C343.641 238.073 342.849 238.369 342.021 238.444C341.302 238.425 340.604 238.191 340.018 237.773C339.432 237.355 338.984 236.771 338.732 236.097C338.64 235.911 338.871 235.788 339.01 235.865Z" fill="#263238"/>
<path d="M340.246 225.071C341.395 226.198 342.764 227.076 344.268 227.65C345.772 228.224 347.378 228.481 348.986 228.406C350.394 228.359 351.788 228.109 353.125 227.665C353.383 227.591 353.636 227.498 353.881 227.387C354.126 227.315 354.363 227.222 354.592 227.109C354.764 227.038 354.906 226.911 354.996 226.748C355.086 226.585 355.118 226.397 355.086 226.213C355.064 226.101 355.028 225.992 354.978 225.889V225.596C354.468 223.017 353.326 219.156 353.326 219.156C354.376 219.419 359.657 220.484 359.271 219.156C356.074 208.177 352.522 195.992 347.025 185.739C346.996 185.661 346.938 185.598 346.863 185.563C346.787 185.528 346.701 185.525 346.623 185.553C346.546 185.582 346.482 185.64 346.448 185.716C346.413 185.791 346.409 185.877 346.438 185.955C349.094 196.626 353.603 206.756 356.429 217.427C354.549 217.019 352.619 216.884 350.7 217.025C350.361 217.211 353.032 224.422 353.171 225.611C353.181 225.652 353.181 225.694 353.171 225.735C348.986 227.279 345.45 226.708 340.57 224.762C340.199 224.561 339.983 224.855 340.246 225.071Z" fill="#263238"/>
<path d="M294.319 220.84C294.319 220.84 276.375 194.278 277.132 178.373C277.471 171.192 286.984 165.88 286.984 165.88C286.097 162.996 286.035 159.921 286.805 157.004C287.574 154.087 289.145 151.443 291.339 149.372C299.415 140.971 319.985 141.743 319.985 141.743C319.985 141.743 332.339 121.884 351.487 128.571C370.636 135.257 359.471 157.155 359.471 157.155C359.471 157.155 366.853 166.59 350.391 175.083C334.362 183.345 300.481 177.693 300.481 177.693C302.606 189.151 303.012 200.861 301.685 212.439C301.355 214.384 300.492 216.199 299.192 217.682C297.891 219.165 296.204 220.258 294.319 220.84Z" fill="#263238"/>
<path d="M323.181 141.836C318.901 140.342 314.36 139.743 309.839 140.075C305.79 140.214 301.794 141.044 298.025 142.531C291.385 145.295 285.671 150.576 284.853 157.973C284.66 159.806 284.833 161.66 285.364 163.426C285.894 165.191 286.77 166.834 287.941 168.258C288.034 168.366 288.204 168.258 288.111 168.072C283.478 162.915 285.362 154.437 289.655 149.711C294.473 144.353 302.148 141.99 309.113 141.388C313.76 141.098 318.425 141.358 323.011 142.16C323.05 142.162 323.088 142.153 323.122 142.134C323.156 142.115 323.183 142.087 323.201 142.053C323.219 142.018 323.227 141.98 323.223 141.941C323.22 141.903 323.205 141.866 323.181 141.836Z" fill="#263238"/>
<path d="M365.308 136.971C363.486 131.782 358.807 128.632 353.665 127.258C347.738 125.782 341.489 126.325 335.906 128.802C330.296 131.322 325.461 135.294 321.899 140.307C321.899 140.415 322.008 140.554 322.085 140.446C328.74 131.736 339.566 126.424 350.607 128.2C355.533 128.987 360.552 131.288 363.038 135.813C364.104 137.98 364.681 140.355 364.729 142.77C364.778 145.185 364.295 147.58 363.316 149.788C361.046 155.116 356.537 159.286 351.842 162.498C351.734 162.498 351.842 162.745 351.951 162.683C356.651 160.089 360.615 156.343 363.471 151.796C364.823 149.602 365.687 147.142 366.004 144.584C366.321 142.026 366.084 139.429 365.308 136.971Z" fill="#263238"/>
<path d="M354.453 175.763C347.105 179.175 339.113 180.976 331.011 181.044C322.613 181.231 314.219 180.501 305.979 178.867C301.176 177.971 296.405 176.875 291.648 175.701C291.494 175.701 291.448 175.886 291.648 175.933C300.004 179.035 308.664 181.246 317.484 182.527C325.685 183.646 334.025 183.152 342.037 181.075C346.423 179.892 350.641 178.159 354.592 175.917C354.654 175.871 354.546 175.716 354.453 175.763Z" fill="#263238"/>
<path d="M336.2 224.963C333.661 225.312 331.076 224.942 328.737 223.895C326.399 222.848 324.401 221.166 322.97 219.04C321.54 216.915 320.734 214.431 320.645 211.87C320.556 209.309 321.187 206.775 322.466 204.555C323.745 202.335 325.621 200.518 327.881 199.311C330.141 198.104 332.694 197.555 335.25 197.726C337.807 197.897 340.264 198.782 342.343 200.28C344.421 201.778 346.038 203.829 347.009 206.2C348.381 209.565 348.361 213.336 346.953 216.686C345.546 220.036 342.867 222.691 339.504 224.067C338.446 224.506 337.335 224.807 336.2 224.963ZM332.663 199.637C331.688 199.769 330.733 200.023 329.822 200.394C327.012 201.529 324.741 203.693 323.472 206.444C322.202 209.196 322.03 212.328 322.989 215.202C323.949 218.077 325.968 220.477 328.636 221.914C331.303 223.351 334.419 223.718 337.347 222.938C340.275 222.158 342.796 220.291 344.395 217.717C345.995 215.144 346.553 212.057 345.956 209.086C345.358 206.115 343.651 203.484 341.181 201.728C338.712 199.973 335.665 199.225 332.663 199.637Z" fill="#EBEBEB"/>
<path d="M366.59 216.84C361.386 217.566 355.935 212.902 354.128 206.03C353.209 202.736 353.344 199.237 354.514 196.023C354.929 194.614 355.702 193.336 356.757 192.313C357.813 191.29 359.114 190.557 360.536 190.186C361.958 189.814 363.452 189.817 364.872 190.193C366.293 190.569 367.592 191.306 368.644 192.333C371.233 194.558 373.059 197.539 373.863 200.857C375.778 208.177 372.906 215.28 367.47 216.701C367.181 216.769 366.886 216.816 366.59 216.84ZM361.679 191.792C361.45 191.822 361.223 191.869 361 191.931C359.873 192.274 358.846 192.886 358.009 193.715C357.173 194.543 356.551 195.564 356.197 196.687C355.169 199.542 355.061 202.648 355.888 205.567C357.541 211.898 362.513 216.099 366.991 214.925C371.47 213.751 373.74 207.652 372.072 201.32C371.363 198.369 369.742 195.716 367.439 193.738C366.665 193.034 365.754 192.499 364.762 192.164C363.771 191.829 362.721 191.702 361.679 191.792Z" fill="#EBEBEB"/>
<path d="M346.932 207.852L345.388 206.787C346.932 204.579 351.009 201.089 355.163 203.698L354.174 205.243C350.53 202.864 347.086 207.652 346.932 207.852Z" fill="#EBEBEB"/>
<path d="M288.775 226.708L286.983 226.306C287.169 225.472 288.929 218.122 292.713 216.438C296.496 214.755 320.602 210.894 321.636 210.725L321.93 212.531C314.95 213.674 296.187 216.902 293.454 218.106C290.72 219.311 289.223 224.685 288.775 226.708Z" fill="#EBEBEB"/>
<path d="M301.963 218.075C301.963 218.075 288.991 203.204 282.119 207.991C275.247 212.778 286.212 235.201 295.122 237.471C296.246 237.841 297.433 237.979 298.611 237.878C299.79 237.777 300.936 237.439 301.98 236.883C303.025 236.328 303.946 235.567 304.689 234.646C305.432 233.725 305.98 232.664 306.302 231.526L301.963 218.075Z" fill="#AD6359"/>
<path d="M285.425 214.338C285.286 214.338 285.286 214.539 285.425 214.57C291.694 216.361 295.447 221.596 298.288 227.14C296.265 225.102 293.655 224.144 290.953 226.6C290.799 226.723 290.953 226.955 291.138 226.893C292.158 226.443 293.292 226.32 294.385 226.541C295.477 226.763 296.474 227.317 297.238 228.128C298.51 229.499 299.634 231 300.589 232.607C300.913 233.116 301.855 232.715 301.593 232.128C301.587 232.082 301.587 232.035 301.593 231.989C300.836 224.314 293.733 214.23 285.425 214.338Z" fill="#263238"/>
<path d="M463.646 473.356C452.358 489.509 421.612 492.582 344.924 507.607C334.315 509.692 299.508 438.749 310.719 435.954C324.849 432.418 380.442 421.778 384.611 421.515C419.728 419.291 471.306 462.392 463.646 473.356Z" fill="#AD6359"/>
<path d="M326.068 432.448C326.068 432.448 293.639 437.359 277.301 445.219C255.527 455.751 241.042 473.803 235.436 481.741C223.731 498.311 206.868 546.445 219.886 553.718C231.668 560.297 246.416 510.232 246.416 510.232C246.416 510.232 222.959 558.799 238.602 564.127C254.245 569.454 268.066 510.34 268.066 510.34C268.066 510.34 245.072 560.791 262.075 563.725C274.938 565.934 290.458 513.105 290.458 513.105C290.458 513.105 271 556.606 284.111 559.432C298.612 562.521 316 514.649 316 514.649C350.56 516.286 367.671 502.913 378.727 491.964C381.399 489.4 326.068 432.448 326.068 432.448Z" fill="#AD6359"/>
<path d="M253.458 492.906C250.493 498.511 247.451 504.163 245.011 510.016C242.571 515.869 240.301 521.814 238.401 527.868C233.769 542.708 233.151 552.73 233.259 552.112C235.714 537.566 244.177 516.487 246.632 510.634C249.088 504.781 251.265 498.836 253.689 492.983C253.751 492.844 253.52 492.767 253.458 492.906Z" fill="#263238"/>
<path d="M274.738 501.384C271.263 508.703 267.557 515.838 264.407 523.327C261.257 530.817 258.909 538.106 256.33 545.688C256.13 546.275 256.516 546.198 256.747 545.688C259.651 538.168 262.924 531.419 266.013 523.93C269.101 516.44 271.742 508.827 275 501.476C274.97 501.337 274.8 501.276 274.738 501.384Z" fill="#263238"/>
<path d="M294.319 505.368C288.435 516.286 284.575 528.285 281.085 540.129C280.899 540.716 281.394 540.561 281.594 539.959C285.779 528.331 288.976 519.174 294.705 505.569C294.798 505.368 294.427 505.136 294.319 505.368Z" fill="#263238"/>
<path d="M319.29 432.448L386.465 507.267C386.465 507.267 454.412 491.67 464.419 474.251C471.013 462.777 419.805 416.481 381.184 421.901L319.29 432.448Z" fill="#FF8219"/>
<path d="M378.944 479.131C378.639 481.029 378.067 482.875 377.245 484.613C376.46 486.382 375.42 488.027 374.157 489.493C374.462 487.59 375.034 485.739 375.855 483.995C376.644 482.233 377.684 480.594 378.944 479.131ZM425.688 474.946C424.867 476.684 424.295 478.53 423.99 480.428C425.249 478.965 426.29 477.326 427.078 475.564C427.9 473.82 428.472 471.97 428.777 470.066C427.522 471.539 426.482 473.182 425.688 474.946ZM392.332 459.21C390.591 458.382 388.74 457.81 386.835 457.512C388.298 458.771 389.937 459.812 391.699 460.6C393.443 461.422 395.294 461.993 397.197 462.299C395.733 461.039 394.095 459.999 392.332 459.21ZM425.596 438.61C426.234 440.424 427.134 442.136 428.267 443.691C428.112 441.775 427.68 439.892 426.985 438.1C426.344 436.282 425.445 434.566 424.314 433.004C424.466 434.93 424.898 436.824 425.596 438.625V438.61ZM357.494 454.809C358.137 456.622 359.036 458.333 360.166 459.89C359.799 456.045 358.437 452.361 356.212 449.203C356.367 451.129 356.799 453.022 357.494 454.825V454.809ZM329.945 437.081C331.759 436.442 333.471 435.542 335.025 434.41C333.11 434.565 331.227 434.997 329.435 435.691C327.623 436.336 325.913 437.236 324.354 438.363C326.27 438.207 328.153 437.776 329.945 437.081ZM387.082 430.904C388.896 430.265 390.608 429.365 392.163 428.233C390.242 428.389 388.354 428.82 386.557 429.514C384.751 430.172 383.042 431.071 381.476 432.186C383.398 432.027 385.286 431.59 387.082 430.889V430.904ZM408.238 496.689C410.059 496.048 411.776 495.143 413.334 494.002C411.414 494.169 409.527 494.605 407.729 495.299C405.914 495.938 404.203 496.838 402.648 497.971C404.568 497.805 406.456 497.368 408.254 496.674L408.238 496.689ZM458.751 459.38C457.377 459.632 456.029 460.004 454.72 460.492C452.905 461.146 451.189 462.05 449.624 463.179C451.545 463.013 453.432 462.576 455.23 461.882C456.619 461.379 457.954 460.738 459.214 459.967L458.751 459.38Z" fill="white"/>
<path d="M427.31 434.132C421.133 429.622 403.544 419.106 381.183 421.901C380.998 421.901 380.982 422.241 381.183 422.241C398.046 421.762 420.793 430.58 427.155 434.41C427.325 434.502 427.464 434.24 427.31 434.132Z" fill="#263238"/>
<path d="M404.841 494.728C397.892 486.096 390.495 477.865 383.067 469.634C375.639 461.403 368.227 453.172 360.598 445.127C356.29 440.587 351.997 436 347.518 431.614C347.41 431.506 347.179 431.614 347.287 431.8C354.221 440.417 361.602 448.694 368.906 456.956C376.211 465.217 383.747 473.433 391.283 481.571C395.545 486.204 399.884 490.682 404.362 495.068C404.625 495.299 405.042 494.991 404.841 494.728Z" fill="#263238"/>
<path d="M343.025 281.837C343.025 281.817 343.017 281.797 343.002 281.783C342.988 281.768 342.968 281.76 342.948 281.76C342.927 281.76 342.907 281.768 342.893 281.783C342.879 281.797 342.87 281.817 342.87 281.837C344.214 292.153 346.669 316.135 330.316 315.811C323.737 315.672 317.483 311.997 312.232 308.337C306.864 304.533 301.919 300.164 297.485 295.303C292.336 290.001 287.626 284.289 283.401 278.224C283.231 277.961 282.845 278.224 283.031 278.533C287.324 284.602 290.984 290.887 295.863 296.616C300.493 302.141 305.855 307.009 311.8 311.086C317.406 314.823 324.046 318.467 330.995 318.282C337.62 318.112 342.129 313.649 343.643 307.472C345.635 299.303 344.862 289.945 343.025 281.837Z" fill="#263238"/>
<path d="M339.427 271.769L327.505 300.461L292.111 263.584L281.826 275.166C281.826 275.166 316.201 333.524 316.448 330.898L328.617 306.19L345.604 323.671L344.708 280.262L339.427 271.769Z" fill="white"/>
<path d="M346.344 302.191C345.958 295.025 345.758 287.798 345.047 280.664C345.047 280.401 344.615 280.293 344.553 280.664C343.009 287.567 344.677 314.946 344.553 321.509L344.476 321.432C343.766 320.675 328.755 305.99 328.601 306.268C325.976 310.19 317.05 328.181 316.432 329.817C310.996 320.552 290.18 286.841 283.679 278.07C283.644 278.02 283.592 277.985 283.534 277.971C283.475 277.957 283.413 277.965 283.36 277.994C283.307 278.022 283.266 278.069 283.245 278.126C283.224 278.183 283.224 278.245 283.246 278.301C288.033 288.092 315.676 333.477 316.062 333.354C316.355 333.585 327.443 311.41 328.786 307.225C331.319 310.406 346.452 326.899 346.514 325.833C346.87 317.955 346.813 310.063 346.344 302.191Z" fill="#263238"/>
<path d="M404.069 381.643C404.069 381.643 411.435 398.336 399.652 402.428C387.87 406.521 383.283 388.87 383.283 388.87L404.069 381.643Z" fill="#455A64"/>
<path d="M341.356 268.387L343.982 250.736L344.8 244.899L349.124 248.929L362.142 261.16L404.254 382.322L383.453 389.549L341.372 268.387H341.356Z" fill="#455A64"/>
<path d="M343.967 250.705L344.816 244.884L349.14 248.914L343.967 250.705Z" fill="#37474F"/>
<path d="M381.948 390.834L406.22 382.396L404.546 377.583L380.275 386.021L381.948 390.834Z" fill="#37474F"/>
<path d="M380.105 385.499L404.376 377.061L402.703 372.247L378.431 380.685L380.105 385.499Z" fill="#37474F"/>
<path d="M402.71 372.223L394.881 374.956L383.963 329.617L386.897 328.783L402.71 372.223Z" fill="#37474F"/>
<path d="M253.69 306.777C204.861 367.791 160.541 455.597 169.528 487.347C172.818 498.959 193.804 518.232 225.322 507.808C260.84 496.041 305.083 467.101 346.314 436.355C355.055 429.839 283.355 375.435 273.889 382.307C269.488 385.488 257.474 396.699 255.651 395.834C252.918 394.522 267.372 364.486 279.618 317.386C292.528 267.723 274.939 280.262 253.69 306.777Z" fill="#AD6359"/>
<path d="M376.659 301.372C383.284 309.449 361.958 324.088 361.958 324.088C366.441 323.648 370.937 324.79 374.667 327.316C381.029 332.072 376.35 344.133 376.35 344.133C381.1 344.645 385.586 346.57 389.229 349.661C394.85 354.834 391.87 367.667 391.87 367.667C395.97 370.547 398.897 374.806 400.116 379.666C402.849 392.777 388.086 406.922 378.805 416.018C369.524 425.113 334.578 442.224 328.401 446.13L269.519 387.001C269.519 387.001 299.585 334.373 312.032 325.231C322.44 317.525 366.544 289.003 376.659 301.372Z" fill="#AD6359"/>
<path d="M361.602 323.996C348.492 329.509 336.724 338.141 325.467 346.603C325.429 346.646 325.407 346.701 325.404 346.758C325.402 346.815 325.42 346.872 325.455 346.917C325.489 346.963 325.539 346.995 325.594 347.008C325.65 347.021 325.709 347.015 325.76 346.989C336.863 338.45 350.468 332.659 361.942 324.582C362.014 324.534 362.065 324.461 362.084 324.377C362.104 324.293 362.09 324.204 362.047 324.13C362.004 324.055 361.934 324 361.851 323.975C361.769 323.95 361.68 323.957 361.602 323.996Z" fill="#263238"/>
<path d="M375.392 343.546C372.536 345.083 369.893 346.988 367.532 349.213C364.897 351.416 362.323 353.661 359.811 355.946C354.663 360.517 349.64 365.217 344.739 370.045C344.523 370.261 344.739 370.647 345.032 370.431C350.18 365.881 355.394 361.433 360.676 357.089C363.342 354.906 366.019 352.76 368.706 350.649C371.379 348.807 373.84 346.673 376.041 344.287C376.139 344.201 376.199 344.08 376.208 343.949C376.217 343.819 376.173 343.69 376.087 343.592C376.001 343.494 375.88 343.434 375.75 343.425C375.619 343.416 375.491 343.46 375.392 343.546Z" fill="#263238"/>
<path d="M391.715 367.852C389.121 368.918 386.928 371.466 384.905 373.35C382.604 375.481 380.272 377.597 377.971 379.697C373.338 383.913 368.706 388.128 363.903 392.174C363.671 392.375 363.903 392.761 364.196 392.56C369.092 388.468 374.018 384.453 378.867 380.314C381.245 378.255 383.618 376.196 385.986 374.137C387.978 372.392 390.696 370.431 391.931 367.96C391.924 367.939 391.913 367.919 391.898 367.902C391.884 367.885 391.866 367.871 391.846 367.861C391.826 367.851 391.804 367.845 391.781 367.844C391.759 367.842 391.736 367.845 391.715 367.852Z" fill="#263238"/>
<path d="M327.891 449.806C330.621 447.14 333.548 444.682 336.647 442.455C339.708 440.177 342.94 438.138 346.314 436.355C343.591 439.031 340.664 441.488 337.558 443.706C334.496 445.984 331.265 448.023 327.891 449.806Z" fill="#263238"/>
<path d="M257.659 392.344C257.659 392.344 270.955 353.429 280.081 321.849C289.208 290.269 292.095 260.928 258.462 296.585C224.828 332.242 164.71 437.328 165.637 478.714C165.884 490.744 178.794 513.923 212.103 513.151C245.413 512.379 336.122 457.388 336.122 457.388L268.839 384.175L257.659 392.344Z" fill="#FF8219"/>
<path d="M273.225 389.024C272.759 389.812 272.216 390.552 271.603 391.232C271.75 390.178 272.009 389.143 272.375 388.144L273.225 389.024ZM211.331 412.883C210.51 414.621 209.938 416.467 209.632 418.365C210.892 416.902 211.932 415.263 212.721 413.5C213.543 411.757 214.114 409.906 214.42 408.003C213.165 409.476 212.125 411.119 211.331 412.883ZM256.887 461.589C256.058 463.324 255.486 465.171 255.188 467.071C256.447 465.607 257.488 463.969 258.276 462.206C259.091 460.46 259.663 458.61 259.975 456.709C258.714 458.199 257.673 459.863 256.887 461.65V461.589ZM171.258 468.569C170.436 470.307 169.864 472.152 169.559 474.051C170.819 472.587 171.859 470.949 172.648 469.186C173.467 467.447 174.039 465.602 174.346 463.704C173.087 465.19 172.047 466.849 171.258 468.63V468.569ZM300.836 456.4C300.014 458.143 299.443 459.994 299.137 461.897C300.397 460.434 301.437 458.795 302.226 457.033C303.047 455.289 303.619 453.439 303.924 451.535C302.665 453.022 301.625 454.681 300.836 456.462V456.4ZM242.726 355.745C241.9 357.482 241.328 359.328 241.027 361.228C242.282 359.761 243.322 358.123 244.116 356.363C244.944 354.628 245.516 352.781 245.814 350.881C244.559 352.348 243.519 353.986 242.726 355.745ZM232.333 330.373C233.678 330.939 235.09 331.333 236.533 331.547C235.492 330.641 234.347 329.864 233.121 329.231L232.333 330.373ZM186.839 410.134C186.623 410.582 186.407 411.03 186.206 411.493C187.952 412.308 189.802 412.879 191.704 413.192C190.238 411.931 188.6 410.886 186.839 410.088V410.134ZM214.636 465.171C212.899 464.345 211.053 463.773 209.154 463.473C210.617 464.732 212.256 465.772 214.018 466.561C215.759 467.376 217.604 467.947 219.5 468.26C218.059 466.989 216.441 465.933 214.698 465.125L214.636 465.171ZM257.52 415.477C255.783 414.651 253.937 414.079 252.038 413.778C253.5 415.039 255.139 416.079 256.902 416.867C258.64 417.694 260.485 418.271 262.384 418.581C260.944 417.305 259.326 416.244 257.581 415.431L257.52 415.477ZM191.117 489.956C191.756 491.771 192.656 493.482 193.788 495.037C193.633 493.122 193.201 491.239 192.507 489.447C191.865 487.629 190.966 485.912 189.835 484.351C190.013 486.259 190.466 488.131 191.179 489.91L191.117 489.956ZM242.077 484.613C242.728 486.426 243.632 488.136 244.764 489.694C244.601 487.78 244.17 485.898 243.482 484.104C242.829 482.288 241.924 480.573 240.795 479.008C241 480.918 241.473 482.789 242.201 484.567L242.077 484.613ZM232.657 440C233.298 441.818 234.198 443.534 235.329 445.096C235.175 443.175 234.743 441.287 234.047 439.49C233.397 437.678 232.492 435.967 231.36 434.41C231.528 436.325 231.965 438.207 232.657 440ZM211.331 378.075C211.97 379.89 212.87 381.601 214.003 383.156C213.636 379.311 212.273 375.628 210.049 372.47C210.198 374.39 210.625 376.278 211.316 378.075H211.331ZM278.846 292.925C279.496 294.738 280.401 296.448 281.533 298.006C281.148 294.167 279.781 290.492 277.564 287.335C277.722 289.249 278.148 291.13 278.83 292.925H278.846ZM262.724 320.814C264.538 320.176 266.25 319.276 267.804 318.143C265.889 318.297 264.006 318.728 262.214 319.425C260.399 320.073 258.684 320.972 257.118 322.096C259.034 321.941 260.917 321.509 262.708 320.814H262.724ZM279.958 482.961C281.776 482.32 283.492 481.42 285.054 480.289C283.133 480.443 281.245 480.875 279.448 481.571C277.636 482.216 275.926 483.116 274.367 484.243C276.275 484.106 278.152 483.695 279.942 483.023L279.958 482.961ZM192.136 443.768C193.95 443.129 195.662 442.229 197.217 441.096C195.296 441.252 193.408 441.684 191.611 442.378C189.8 443.032 188.09 443.936 186.53 445.065C188.451 444.899 190.338 444.462 192.136 443.768ZM220.473 501.044C222.286 500.402 223.997 499.502 225.554 498.373C223.633 498.526 221.745 498.958 219.948 499.654C218.137 500.308 216.427 501.213 214.867 502.341C216.786 502.183 218.673 501.757 220.473 501.075V501.044ZM238.556 388.484C240.371 387.839 242.083 386.934 243.637 385.797C239.794 386.185 236.115 387.551 232.951 389.765C234.869 389.614 236.756 389.193 238.556 388.514V388.484ZM278.599 439.135C280.413 438.496 282.125 437.596 283.679 436.464C281.759 436.62 279.871 437.051 278.074 437.745C276.263 438.399 274.553 439.304 272.993 440.432C274.913 440.264 276.8 439.828 278.599 439.135Z" fill="white"/>
<path d="M315.305 462.947C308.356 454.331 300.959 446.084 293.532 437.869C286.104 429.653 278.691 421.392 271.063 413.346C266.739 408.806 262.461 404.235 257.983 399.849C257.875 399.726 257.643 399.849 257.751 400.035C264.685 408.636 272.066 416.929 279.371 425.175C286.675 433.421 294.211 441.668 301.747 449.79C306.009 454.423 310.348 458.901 314.827 463.303C315.089 463.519 315.506 463.21 315.305 462.947Z" fill="#263238"/>
<path d="M277.61 344.719C276.298 346.65 275.108 348.657 273.997 350.696C274.367 349.646 274.753 348.595 275.108 347.53C276.653 343.252 277.981 338.944 279.417 334.635C279.51 334.373 279.046 334.188 278.938 334.45C277.394 338.172 275.85 341.863 274.383 345.6C272.916 349.337 271.557 353.012 270.136 356.718C267.279 364.208 264.438 371.682 261.797 379.249C260.253 383.526 258.925 387.82 257.674 392.19C257.674 392.36 257.905 392.483 257.983 392.313C261.303 385.055 264.16 377.597 266.986 370.107C268.777 365.206 270.558 360.301 272.329 355.39C274.259 351.931 276.128 348.426 277.826 344.843C277.843 344.814 277.847 344.78 277.838 344.748C277.83 344.717 277.809 344.689 277.78 344.673C277.751 344.657 277.717 344.652 277.685 344.661C277.654 344.67 277.627 344.691 277.61 344.719Z" fill="#263238"/>
<path d="M269.811 385.503C269.811 385.503 268.761 384.669 268.715 384.623C265.395 387.526 261.797 390.058 258.369 392.792C256.546 394.259 243.019 404.991 238.386 408.898C227.406 418.164 216.766 427.785 206.235 437.637C201 442.563 195.857 447.597 190.792 452.678C185.727 457.759 180.554 462.916 175.689 468.29C175.667 468.308 175.64 468.317 175.611 468.316C175.583 468.316 175.556 468.305 175.535 468.287C175.513 468.269 175.498 468.245 175.493 468.217C175.487 468.19 175.491 468.161 175.504 468.136C180.785 461.959 186.051 455.643 191.564 449.605C201.306 438.914 211.665 428.802 222.588 419.322C228.055 414.597 233.63 410 239.312 405.532C243.05 402.582 255.465 393.008 257.241 391.634C260.901 388.869 264.576 385.889 268.283 383.434C268.422 383.341 269.966 385.271 270.012 385.302C270.059 385.333 269.889 385.642 269.811 385.503Z" fill="#263238"/>
<path d="M131.262 530.369H94.7095V536.068H131.262V530.369Z" fill="#455A64"/>
<path d="M131.262 530.369H94.7095V534.137H131.262V530.369Z" fill="#263238"/>
<path d="M51.3158 515.035C53.5426 518.321 56.6667 520.897 60.3162 522.458C63.9657 524.018 67.9868 524.497 71.9007 523.837C73.167 523.6 74.408 523.243 75.6069 522.772C77.4261 522.059 79.161 521.147 80.7802 520.054L76.1474 513.167C75.287 513.775 74.3659 514.293 73.3986 514.711C64.7045 518.664 59.1915 511.792 58.1105 510.232C53.0917 503.191 51.3004 487.069 56.381 480.892C56.7207 480.428 58.1877 479.703 64.1022 480.892C65.1832 481.139 66.4186 481.417 67.8084 481.803C68.8946 482.167 70.019 482.405 71.1595 482.513L71.2984 478.39L71.6999 474.251C71.3293 474.251 70.7271 474.02 69.9549 473.804C67.2367 473.004 64.4583 472.426 61.6469 472.074C57.323 471.626 52.7829 472.151 49.9878 475.564C41.6951 485.771 45.0462 506.202 51.3158 515.035Z" fill="#455A64"/>
<path opacity="0.1" d="M76.1321 513.167C75.2717 513.775 74.3505 514.293 73.3833 514.711L75.607 522.756C77.4262 522.044 79.1611 521.132 80.7803 520.039L76.1321 513.167Z" fill="black"/>
<path d="M61.6006 472.182L64.0559 481C65.1369 481.247 66.3723 481.525 67.7621 481.911C68.8484 482.275 69.9727 482.513 71.1132 482.621L71.2522 478.498L71.6537 474.359C71.283 474.359 70.6808 474.128 69.9087 473.912C67.1904 473.112 64.412 472.534 61.6006 472.182Z" fill="#263238"/>
<path d="M161.621 461.403C161.621 461.403 157.236 498.651 149.653 514.356C142.071 530.061 131.493 531.79 124.93 531.79H101.025C94.4619 531.79 83.8992 530.03 76.3169 514.371C68.7346 498.712 64.3335 461.403 64.3335 461.403H161.621Z" fill="#455A64"/>
<path d="M156.896 490.095C156.541 491.64 156.201 493.184 155.846 494.821H70.1092C69.754 493.276 69.4143 491.732 69.0591 490.095H156.896Z" fill="#37474F"/>
<path d="M154.688 499.531C153.762 503.052 152.773 506.434 151.677 509.414H74.2789C73.1825 506.434 72.1942 503.052 71.1904 499.531H154.688Z" fill="#37474F"/>
<path d="M428.764 184.136C438.142 181.77 443.826 172.25 441.46 162.872C439.094 153.494 429.574 147.81 420.197 150.176C410.819 152.542 405.135 162.062 407.501 171.44C409.867 180.817 419.387 186.501 428.764 184.136Z" fill="white"/>
<path d="M441.934 165.648C442.371 170.285 440.949 174.907 437.981 178.496C436.496 180.319 434.666 181.831 432.597 182.946C430.527 184.061 428.258 184.758 425.919 184.996C423.58 185.234 421.217 185.009 418.965 184.333C416.713 183.658 414.616 182.546 412.794 181.06C410.938 179.544 409.405 177.671 408.286 175.552C407.167 173.434 406.484 171.112 406.278 168.725C406.072 166.337 406.347 163.933 407.087 161.654C407.827 159.374 409.017 157.267 410.586 155.456C412.126 153.68 414.001 152.226 416.103 151.175C418.206 150.124 420.495 149.497 422.839 149.331C425.184 149.165 427.538 149.462 429.768 150.205C431.998 150.949 434.059 152.124 435.835 153.665C439.372 156.696 441.565 161.004 441.934 165.648ZM441.934 165.648C441.51 161.051 439.291 156.806 435.757 153.834C432.231 150.971 427.713 149.623 423.194 150.086C418.675 150.55 414.524 152.786 411.652 156.305C408.841 159.755 407.484 164.163 407.868 168.597C408.251 173.03 410.345 177.139 413.705 180.056C415.403 181.534 417.375 182.662 419.509 183.377C421.643 184.092 423.897 184.378 426.142 184.22C428.387 184.063 430.578 183.463 432.591 182.457C434.604 181.451 436.399 180.058 437.873 178.357C440.851 174.823 442.311 170.254 441.934 165.648Z" fill="#263238"/>
<path d="M395.545 183.824C395.711 185.743 395.305 187.669 394.378 189.358C393.45 191.046 392.043 192.422 390.333 193.311C388.624 194.2 386.689 194.563 384.774 194.353C382.859 194.142 381.049 193.369 379.573 192.131C378.097 190.892 377.022 189.244 376.482 187.394C375.943 185.544 375.964 183.576 376.543 181.739C377.122 179.901 378.233 178.276 379.735 177.07C381.237 175.863 383.063 175.129 384.982 174.96C387.557 174.741 390.113 175.551 392.093 177.212C394.072 178.873 395.313 181.25 395.545 183.824Z" fill="white"/>
<path d="M395.545 183.824C395.765 186.436 394.967 189.031 393.318 191.069C391.669 193.106 389.297 194.428 386.696 194.757C385.361 194.891 384.012 194.758 382.729 194.367C381.445 193.975 380.252 193.332 379.219 192.476C378.186 191.619 377.333 190.566 376.711 189.377C376.088 188.188 375.708 186.887 375.592 185.55C375.477 184.213 375.628 182.866 376.037 181.588C376.446 180.31 377.106 179.126 377.976 178.105C378.847 177.083 379.912 176.245 381.11 175.639C382.307 175.033 383.613 174.671 384.951 174.574C387.573 174.448 390.141 175.343 392.116 177.071C394.091 178.799 395.32 181.224 395.545 183.839V183.824ZM395.545 183.824C395.434 182.567 395.072 181.346 394.478 180.233C393.884 179.121 393.072 178.139 392.09 177.347C391.109 176.556 389.977 175.971 388.764 175.627C387.55 175.283 386.28 175.187 385.029 175.346C382.655 175.676 380.498 176.902 379.001 178.772C377.504 180.643 376.779 183.016 376.977 185.403C377.175 187.791 378.279 190.013 380.064 191.612C381.849 193.211 384.178 194.065 386.573 194C387.835 193.943 389.072 193.63 390.211 193.082C391.349 192.534 392.365 191.762 393.197 190.811C394.03 189.861 394.661 188.752 395.054 187.551C395.447 186.35 395.593 185.082 395.483 183.824H395.545Z" fill="#263238"/>
<path d="M594.877 90.5509C595.961 99.4492 594.687 108.476 591.183 116.727C587.679 124.978 582.068 132.163 574.912 137.562C567.757 142.961 559.308 146.385 550.412 147.49C541.516 148.595 532.487 147.343 524.227 143.859C520.213 149.102 515.041 153.348 509.116 156.265C503.191 159.183 496.673 160.693 490.069 160.678C483.465 160.663 476.953 159.123 471.042 156.179C465.13 153.235 459.978 148.966 455.987 143.704C449.062 145.773 441.665 145.634 434.823 143.305C427.981 140.976 422.035 136.573 417.811 130.708C413.587 124.843 411.295 117.809 411.254 110.581C411.213 103.354 413.424 96.2934 417.581 90.3811C410.032 80.7968 406.158 68.8288 406.661 56.6387C407.163 44.4485 412.007 32.8396 420.319 23.9086C428.631 14.9776 439.863 9.31312 451.986 7.93823C464.108 6.56334 476.323 9.56864 486.424 16.4114C491.161 10.5087 497.374 5.96374 504.435 3.23733C511.495 0.510919 519.15 -0.29992 526.625 0.887047C534.099 2.07401 541.127 5.21656 546.995 9.99598C552.864 14.7754 557.363 21.0217 560.039 28.1014C561.822 27.4927 563.665 27.0734 565.536 26.8505C571.225 26.1603 576.988 27.2272 582.052 29.9079C587.116 32.5886 591.239 36.7547 593.867 41.8468C596.494 46.9388 597.501 52.713 596.751 58.3937C596.001 64.0745 593.531 69.3898 589.673 73.6259C592.405 78.9114 594.167 84.6437 594.877 90.5509Z" fill="white"/>
<path d="M594.877 90.5509C595.386 94.9816 595.34 99.4587 594.738 103.878C594.44 106.091 594.002 108.283 593.425 110.441C593.147 111.506 592.73 112.557 592.39 113.622C592.068 114.679 591.671 115.711 591.201 116.711L589.827 119.799C589.317 120.803 588.73 121.745 588.19 122.718L587.372 124.169C587.063 124.648 586.723 125.096 586.414 125.559L584.484 128.292L582.306 130.825L581.21 132.091L580.005 133.265C579.202 134.022 578.461 134.809 577.581 135.566L574.956 137.651C574.523 137.99 574.091 138.361 573.628 138.67L572.222 139.581C571.28 140.168 570.354 140.816 569.396 141.372C567.444 142.456 565.427 143.42 563.358 144.26C562.308 144.662 561.289 145.094 560.27 145.465L557.042 146.376L555.498 146.823L553.846 147.117L550.541 147.704C541.628 148.831 532.574 147.596 524.289 144.121H524.613C518.525 152.106 509.847 157.723 500.07 160.008C490.292 162.293 480.024 161.104 471.028 156.645C465.059 153.665 459.843 149.373 455.77 144.09L456.28 144.26C454.542 144.785 452.766 145.172 450.968 145.418C450.057 145.542 449.145 145.573 448.25 145.65L446.891 145.742H445.532C441.887 145.717 438.271 145.091 434.83 143.889C427.879 141.539 421.826 137.094 417.504 131.165C415.387 128.192 413.717 124.924 412.547 121.467L411.805 118.826C411.543 117.961 411.466 117.05 411.28 116.155C410.946 114.357 410.781 112.532 410.786 110.703C410.708 103.339 412.939 96.1351 417.164 90.1031V90.937C409.449 81.2543 405.514 69.0987 406.092 56.7318C406.604 44.3722 411.536 32.607 419.99 23.5767C428.402 14.5831 439.715 8.84192 451.941 7.36205C464.184 6.0017 476.509 9.06939 486.686 16.0099L486.053 16.1025C490.85 10.1516 497.139 5.57874 504.279 2.84974C511.419 0.120752 519.155 -0.6668 526.698 0.567333C530.432 1.16549 534.069 2.26677 537.508 3.84115C539.229 4.62583 540.905 5.50748 542.526 6.48182C544.131 7.50723 545.678 8.6208 547.159 9.81741C550.084 12.2214 552.679 14.9991 554.88 18.0792C557.069 21.1753 558.863 24.5315 560.224 28.0705L559.93 27.9315C561.425 27.4335 562.959 27.0616 564.517 26.8196C566.052 26.6143 567.6 26.5111 569.149 26.5108C572.248 26.4897 575.327 27.0124 578.245 28.055C584.154 30.0946 589.202 34.066 592.576 39.3281C595.963 44.5565 597.522 50.7606 597.008 56.9694C596.494 63.1782 593.936 69.0414 589.734 73.6413C592.438 78.9282 594.179 84.654 594.877 90.5509ZM594.877 90.5509C594.168 84.6237 592.406 78.8709 589.672 73.5641C593.826 68.9757 596.339 63.1391 596.82 56.9689C597.301 50.7987 595.721 44.6433 592.329 39.4671C588.976 34.2804 583.97 30.3787 578.121 28.3948C575.237 27.366 572.196 26.8436 569.134 26.8505C567.61 26.881 566.09 26.9944 564.578 27.1902C563.073 27.4296 561.59 27.7964 560.146 28.2867L559.93 28.3639L559.837 28.1477C558.475 24.6561 556.686 21.3467 554.51 18.2953C552.308 15.2614 549.712 12.5349 546.789 10.188C545.339 9.00877 543.817 7.92056 542.233 6.92965C540.63 5.96461 538.969 5.09822 537.261 4.33531C533.854 2.79778 530.254 1.7327 526.559 1.16959C519.15 -0.004547 511.563 0.806014 504.57 3.5187C497.576 6.2314 491.427 10.7493 486.748 16.6121L486.486 16.9519L486.115 16.7048C476.11 9.94287 464.012 6.99492 452.018 8.39669C440.054 9.86616 428.995 15.5162 420.793 24.3488C412.668 33.2043 407.941 44.6514 407.452 56.6598C406.963 68.6683 410.743 80.4618 418.121 89.9486L418.446 90.3656L418.152 90.7825C414.08 96.5766 411.921 103.498 411.975 110.58C411.96 112.341 412.115 114.099 412.439 115.83C412.609 116.695 412.686 117.575 412.933 118.425L413.628 120.957C414.74 124.307 416.337 127.475 418.369 130.362C422.529 136.106 428.366 140.422 435.077 142.716C438.412 143.895 441.918 144.521 445.455 144.569H446.783L448.095 144.476C448.976 144.476 449.856 144.399 450.736 144.275C452.488 144.046 454.218 143.674 455.909 143.164L456.234 143.071L456.434 143.333C460.395 148.521 465.48 152.745 471.306 155.687C477.158 158.621 483.608 160.164 490.155 160.196C496.701 160.228 503.166 158.749 509.047 155.873C514.931 152.987 520.072 148.786 524.073 143.596L524.212 143.426L524.397 143.503C532.58 147.015 541.543 148.314 550.387 147.271L553.66 146.715L555.297 146.437L556.842 145.99L560.054 145.109C561.104 144.754 562.123 144.322 563.142 143.92C565.257 143.116 567.315 142.172 569.304 141.094C570.261 140.554 571.188 139.921 572.13 139.334L573.535 138.438C573.998 138.129 574.415 137.759 574.848 137.434L577.473 135.381C578.307 134.624 579.094 133.836 579.897 133.08L581.102 131.937L582.198 130.686L584.391 128.153L586.321 125.451C586.63 124.988 586.985 124.555 587.279 124.077L588.113 122.64C588.653 121.668 589.24 120.726 589.75 119.737L591.14 116.649C591.611 115.648 592.013 114.616 592.344 113.56C592.684 112.51 593.101 111.46 593.394 110.395C593.967 108.246 594.411 106.064 594.722 103.862C595.336 99.4496 595.388 94.9768 594.877 90.5509Z" fill="#263238"/>
<path d="M539.747 62.6926C539.747 62.6926 539.67 62.6926 539.624 62.6H539.516C539.334 62.5364 539.148 62.4849 538.96 62.4456C538.759 62.4456 538.528 62.3529 538.28 62.2911L537.539 62.1521H537.338H536.983H536.613L534.404 61.8279H533.972H533.478H533.03H532.551H532.459H531.995L529.772 61.5499L529.154 60.9476L527.116 60.7006L526.127 60.577H525.664L524.49 60.438L523.301 60.299H523.193L521.649 60.1292L520.105 59.9284H519.502L514.87 59.249H514.329L512.368 58.971H512.152H511.812H511.642H511.519C511.41 58.971 511.318 58.971 511.302 58.971C510.716 58.5695 496.756 41.4437 487.305 31.3443C483.089 26.8351 479.753 23.7157 478.935 24.1327C476.263 25.4762 466.179 51.6821 465.423 51.6976C464.666 51.713 451.895 37.9228 449.98 39.7759C448.251 41.3202 444.266 68.9005 442.923 76.56C442.837 77.2189 442.698 77.8697 442.506 78.5058L442.182 78.861L442.46 78.7065C442.31 78.768 442.174 78.8571 442.058 78.9691L441.811 79.2161C439.989 80.9303 435.634 84.8063 432.036 88.2963C431.92 88.3913 431.812 88.4945 431.712 88.6052L431.094 89.2075C431.001 89.3156 430.909 89.3928 430.801 89.5009C428.129 92.1724 426.168 94.3961 426.739 94.844C428.206 96.0948 461.778 79.4015 479.244 75.0312C496.709 70.661 539.13 63.8817 539.948 62.9706L539.747 62.6926ZM453.625 74.4753C452.08 74.954 450.644 75.4173 449.332 75.8497C446.506 76.7762 444.328 77.5483 443.062 78.1043C444.915 77.2704 448.698 76.0041 453.625 74.4753C455.694 73.8267 457.948 73.1627 460.327 72.4523L453.625 74.4753ZM462.967 71.6956C465.871 70.8463 468.913 69.9661 472.032 69.1013C468.928 70.0587 465.84 70.8463 462.967 71.6956Z" fill="#FF8219"/>
<path opacity="0.1" d="M539.747 62.6926C539.747 62.6926 539.67 62.6926 539.624 62.6H539.516C539.334 62.5364 539.148 62.4849 538.96 62.4456C538.759 62.4456 538.528 62.3529 538.28 62.2911L537.539 62.1521H537.338H536.983H536.613L534.404 61.8279H533.972H533.478H533.03H532.551H532.459H531.995L529.772 61.5499L529.154 60.9476L527.116 60.7006L526.127 60.577H525.664L524.49 60.438L523.301 60.299H523.193L521.649 60.1292L520.105 59.9284H519.502L514.87 59.249H514.329L512.368 58.971H512.152H511.812H511.642H511.519C511.41 58.971 511.318 58.971 511.302 58.971C510.716 58.5695 496.756 41.4437 487.305 31.3443C483.089 26.8351 479.753 23.7157 478.935 24.1327C476.263 25.4762 466.179 51.6821 465.423 51.6976C464.666 51.713 451.895 37.9228 449.98 39.7759C448.251 41.3202 444.266 68.9005 442.923 76.56C442.837 77.2189 442.698 77.8697 442.506 78.5058L442.182 78.861L442.46 78.7065C442.31 78.768 442.174 78.8571 442.058 78.9691L441.811 79.2161C439.989 80.9303 435.634 84.8063 432.036 88.2963C431.92 88.3913 431.812 88.4945 431.712 88.6052L431.094 89.2075C431.001 89.3156 430.909 89.3928 430.801 89.5009C428.129 92.1724 426.168 94.3961 426.739 94.844C428.206 96.0948 461.778 79.4015 479.244 75.0312C496.709 70.661 539.13 63.8817 539.948 62.9706L539.747 62.6926ZM453.625 74.4753C452.08 74.954 450.644 75.4173 449.332 75.8497C446.506 76.7762 444.328 77.5483 443.062 78.1043C444.915 77.2704 448.698 76.0041 453.625 74.4753C455.694 73.8267 457.948 73.1627 460.327 72.4523L453.625 74.4753ZM462.967 71.6956C465.871 70.8463 468.913 69.9661 472.032 69.1013C468.928 70.0587 465.84 70.8463 462.967 71.6956Z" fill="black"/>
<path d="M443.062 78.1042C444.915 77.2703 448.698 76.004 453.624 74.4752C452.08 74.9539 450.644 75.4172 449.331 75.8496C446.505 76.7762 444.328 77.5483 443.062 78.1042Z" fill="#FF8219"/>
<path d="M453.624 74.4752C455.693 73.8267 457.948 73.1626 460.326 72.4523L453.624 74.4752Z" fill="#FF8219"/>
<path d="M472.016 69.1012C468.927 69.9814 465.839 70.8462 462.951 71.6955C465.839 70.8462 468.927 69.966 472.016 69.1012Z" fill="#FF8219"/>
<path d="M443.062 78.1042C444.915 77.2703 448.698 76.004 453.624 74.4752C452.08 74.9539 450.644 75.4172 449.331 75.8496C446.505 76.7762 444.328 77.5483 443.062 78.1042Z" fill="#FF8219"/>
<path d="M453.624 74.4752C455.693 73.8267 457.948 73.1626 460.326 72.4523L453.624 74.4752Z" fill="#FF8219"/>
<path d="M472.016 69.1012C468.927 69.9814 465.839 70.8462 462.951 71.6955C465.839 70.8462 468.927 69.966 472.016 69.1012Z" fill="#FF8219"/>
<path d="M512.352 58.9091C498.145 61.5807 444.606 76.2665 441.919 78.7373C441.255 79.216 441.1 70.3211 441.919 69.3483C442.631 68.7787 443.385 68.2626 444.173 67.804C444.992 67.3099 446.011 66.7076 447.262 66.0436L447.988 65.6266C448.713 65.2406 449.532 64.8082 450.35 64.3758L451.122 63.9743C451.848 63.5882 452.667 63.2176 453.393 62.8161L454.103 62.4763C469.174 55.0259 485.332 50.0168 501.975 47.6361C503.519 47.4353 505.063 47.2655 506.607 47.1265C508.152 46.9875 513.711 58.6157 512.352 58.9091Z" fill="#263238"/>
<path d="M441.13 96.7433C441.686 96.8668 458.905 100.079 460.387 100.99C461.872 103.115 463.218 105.333 464.418 107.63L465.221 109.02L465.545 109.576C471.506 120 478.594 134.083 483.597 135.936C486.659 137.136 489.982 137.511 493.234 137.023C496.486 136.535 499.553 135.202 502.128 133.157C504.754 130.995 507.626 122.749 509.417 116.17L509.757 114.811C509.927 114.147 510.097 113.498 510.236 112.881C510.56 111.336 510.823 110.117 510.977 109.144C511.1 108.522 511.1 107.882 510.977 107.26C507.78 108.29 504.506 109.065 501.186 109.576H500.6H500.229C496.862 109.329 489.064 105.252 489.064 105.252C489.064 105.252 489.435 108.032 489.744 111.244C489.744 111.506 489.743 111.753 489.821 112.016L489.913 113.066C489.913 113.699 490.006 114.348 490.037 114.965C490.191 117.622 490.16 119.938 489.697 120.54C489.02 121.268 488.112 121.74 487.127 121.875C486.142 122.01 485.14 121.801 484.292 121.281C482.887 120.401 477.343 112.541 472.247 106.055L471.938 105.654L471.444 105.02L470.456 103.816C467.769 100.511 465.36 97.9015 464.016 97.3764C459.862 95.8322 441.47 94.1335 440.852 94.7975C440.235 95.4616 440.528 96.6352 441.13 96.7433Z" fill="#FF8219"/>
<path d="M489.003 105.206C489.003 105.206 497.265 109.514 500.446 109.545H500.538H501.125C504.445 109.034 507.719 108.259 510.916 107.229H510.808H510.684H510.576L510.236 107.044L510.005 106.92L508.908 106.364L508.569 106.194L507.194 105.515L506.947 105.391L506.731 105.299L505.913 104.897L505.079 104.526L504.152 104.109L503.364 103.77L502.948 103.6L502.561 103.445L501.465 103.059L500.847 102.874H500.538C498.997 102.797 497.455 102.996 495.983 103.461C495.334 103.615 494.686 103.801 494.053 103.986L493.203 104.233L492.74 104.387L491.999 104.619L491.628 104.743L491.103 104.912H490.933L490.655 105.005L489.312 105.468H489.235L489.003 105.206Z" fill="#263238"/>
<path d="M441.132 96.7589C441.688 96.867 458.906 100.079 460.404 100.99C461.878 103.119 463.219 105.336 464.419 107.63C465.281 106.624 466.243 105.708 467.291 104.897C467.786 104.65 469.33 104.14 470.488 103.77C467.801 100.465 465.392 97.8553 464.033 97.3302C459.894 95.786 441.502 94.0873 440.869 94.7668C440.236 95.4462 440.53 96.6353 441.132 96.7589Z" fill="#263238"/>
<path d="M465.159 109.02L465.483 109.576C466.302 108.835 468.201 107.121 468.464 106.982C468.726 106.843 470.688 106.055 471.908 105.607C471.738 105.391 471.568 105.19 471.413 104.974C470.221 105.299 469.055 105.712 467.923 106.21C467.506 106.518 465.931 108.186 465.159 109.02Z" fill="#263238"/>
<path d="M489.713 111.198L491.041 111.8C493.638 113.031 496.361 113.974 499.164 114.61C501.727 114.919 507.595 113.483 510.143 112.819C510.468 111.275 510.73 110.055 510.885 109.082C511.008 108.465 511.008 107.83 510.885 107.213C507.506 108.312 504.031 109.092 500.507 109.545C497.419 109.545 488.972 105.206 488.972 105.206C488.972 105.206 489.404 108.001 489.713 111.198Z" fill="#455A64"/>
<path d="M490.006 114.919C492.014 115.861 497.017 118.008 499.442 118.255C501.866 118.502 507.333 116.711 509.309 116.108C509.433 115.66 509.557 115.197 509.665 114.749C507.503 115.382 501.943 116.896 499.426 116.602C496.123 115.764 492.922 114.562 489.883 113.02C489.929 113.653 489.975 114.302 490.006 114.919Z" fill="#455A64"/>
<path d="M489.003 105.206C489.003 105.206 497.265 109.514 500.446 109.545H500.538H501.125C504.445 109.034 507.719 108.259 510.916 107.229H510.808H510.684H510.576L510.236 107.043L510.005 106.92L508.908 106.364L508.569 106.194L507.194 105.515L506.947 105.391L506.731 105.298L505.913 104.897L505.079 104.526L504.152 104.109L503.364 103.77L502.948 103.6L502.561 103.445L501.465 103.059L500.847 102.874H500.569C500.43 103.19 500.332 103.522 500.276 103.862C502.987 104.786 505.624 105.912 508.167 107.229C505.751 107.826 503.302 108.28 500.832 108.588C500.703 108.599 500.574 108.599 500.446 108.588C500.026 108.549 499.612 108.466 499.21 108.341C496.757 107.643 494.366 106.745 492.061 105.654C493.452 105.037 494.915 104.597 496.415 104.341C496.261 104.032 496.106 103.723 495.983 103.415C495.334 103.569 494.686 103.754 494.053 103.94L493.203 104.187L492.74 104.341L491.999 104.573L491.628 104.696L491.103 104.866H490.933L490.655 104.959L489.312 105.422H489.235L489.003 105.206Z" fill="#37474F"/>
<path d="M495.859 103.075C495.983 103.384 496.137 103.693 496.292 104.001C497.078 105.431 498.015 106.772 499.087 108.001C499.489 108.127 499.903 108.21 500.322 108.248H500.708C500.175 106.728 499.985 105.109 500.152 103.507C500.206 103.164 500.31 102.831 500.461 102.519C500.658 102.068 500.98 101.682 501.388 101.407C503.72 100.105 506.191 99.0689 508.754 98.3185C513.124 96.6353 517.155 94.0873 518.514 89.331C521.448 79.0154 509.588 71.711 501.913 67.7114C501.805 67.7114 501.743 67.8195 501.82 67.8967C505.912 71.7574 510.962 76.6526 509.464 82.9069C508.445 87.1999 504.152 89.2692 500.832 91.5701C497.743 93.7012 495.149 96.4654 495.242 100.434C495.271 101.347 495.481 102.244 495.859 103.075Z" fill="#EBEBEB"/>
<g opacity="0.2">
<path opacity="0.2" d="M550.649 60.5768C552.93 63.6165 554.258 67.2642 554.465 71.0585C554.672 74.8529 553.749 78.6234 551.813 81.8932C549.877 85.163 547.015 87.7852 543.588 89.428C540.161 91.0709 536.325 91.6606 532.563 91.1226C528.801 90.5846 525.284 88.943 522.455 86.4056C519.626 83.8681 517.614 80.5487 516.672 76.8673C515.73 73.1859 515.901 69.3078 517.163 65.7236C518.426 62.1394 520.723 59.0102 523.764 56.7316C527.84 53.6779 532.961 52.3676 538.003 53.0886C543.044 53.8097 547.593 56.5031 550.649 60.5768Z" fill="white"/>
<path opacity="0.2" d="M553.274 65.4258C555.065 70.1717 554.905 75.4331 552.831 80.062C550.757 84.6908 546.936 88.3114 542.202 90.1338L553.274 65.4258Z" fill="#EBEBEB"/>
<path opacity="0.2" d="M538.233 53.0718L523.068 86.8755C521.91 85.9019 520.873 84.7924 519.98 83.5708C518.916 82.1574 518.062 80.5968 517.447 78.938L528.628 53.9829C531.701 52.8737 535.006 52.5602 538.233 53.0718Z" fill="#EBEBEB"/>
<path opacity="0.2" d="M549.429 59.1098L534.99 91.3074C533.728 91.2873 532.471 91.1425 531.237 90.8751L546.68 56.5927C547.677 57.3383 548.598 58.1815 549.429 59.1098Z" fill="#EBEBEB"/>
<path opacity="0.2" d="M540.796 53.705L525.199 88.4506L524.612 88.08L540.055 53.5197C540.306 53.5644 540.554 53.6263 540.796 53.705Z" fill="#EBEBEB"/>
<path opacity="0.2" d="M522.976 57.334L516.058 72.7765C516.058 72.2051 516.058 71.6338 516.058 71.0469L521.694 58.5076C522.098 58.0917 522.526 57.6998 522.976 57.334Z" fill="#EBEBEB"/>
</g>
<path d="M549.363 86.8977L545.557 89.7501L556.05 103.751L559.856 100.898L549.363 86.8977Z" fill="#37474F"/>
<path d="M557.156 97.5976L553.597 100.264C552.99 100.719 552.866 101.581 553.321 102.188L563.302 115.511C563.758 116.119 564.619 116.242 565.226 115.787L568.786 113.12C569.393 112.665 569.517 111.804 569.062 111.196L559.08 97.8735C558.625 97.266 557.764 97.1425 557.156 97.5976Z" fill="#263238"/>
<path d="M535.331 49.3812C530.838 49.3812 526.447 50.7135 522.711 53.2096C518.975 55.7056 516.064 59.2534 514.344 63.4042C512.625 67.555 512.175 72.1224 513.052 76.5288C513.928 80.9353 516.092 84.9829 519.269 88.1598C522.445 91.3367 526.493 93.5001 530.9 94.3766C535.306 95.2531 539.873 94.8033 544.024 93.084C548.175 91.3647 551.723 88.4531 554.219 84.7175C556.715 80.9819 558.047 76.59 558.047 72.0972C558.039 66.075 555.643 60.3019 551.385 56.0436C547.126 51.7853 541.353 49.3894 535.331 49.3812ZM535.331 90.273C531.736 90.273 528.222 89.207 525.233 87.2098C522.244 85.2127 519.915 82.374 518.539 79.0528C517.163 75.7316 516.803 72.077 517.505 68.5512C518.206 65.0255 519.937 61.7868 522.479 59.2449C525.021 56.703 528.259 54.9719 531.785 54.2706C535.311 53.5692 538.966 53.9292 542.287 55.3049C545.608 56.6806 548.447 59.0102 550.444 61.9992C552.441 64.9882 553.507 68.5023 553.507 72.0972C553.503 76.9165 551.587 81.5372 548.179 84.9449C544.771 88.3527 540.15 90.2689 535.331 90.273Z" fill="#263238"/>
</svg>
