<svg width="790" height="588" viewBox="0 0 790 588" fill="none" xmlns="http://www.w3.org/2000/svg">
<path d="M789.102 516.704H0V517.099H789.102V516.704Z" fill="#E0E0E0"/>
<path d="M596.026 533.417H541.735V533.812H596.026V533.417Z" fill="#E0E0E0"/>
<path d="M175.243 533.607H144.689V534.001H175.243V533.607Z" fill="#E0E0E0"/>
<path d="M396.129 532.691H334.2V533.086H396.129V532.691Z" fill="#E0E0E0"/>
<path d="M332.622 527.073H304.94V527.468H332.622V527.073Z" fill="#E0E0E0"/>
<path d="M670.043 527.278H586.414V527.673H670.043V527.278Z" fill="#E0E0E0"/>
<path d="M374.034 446.316H69.2985C66.9112 446.312 64.6232 445.361 62.9366 443.671C61.25 441.982 60.3027 439.692 60.3027 437.305V8.93264C60.3235 6.55906 61.2799 4.28953 62.9643 2.61701C64.6486 0.94449 66.9248 0.00406607 69.2985 0H374.034C376.424 0 378.716 0.949429 380.406 2.63942C382.096 4.32942 383.046 6.62154 383.046 9.01155V437.305C383.046 439.695 382.096 441.987 380.406 443.677C378.716 445.367 376.424 446.316 374.034 446.316ZM69.2985 0.315642C67.0159 0.319823 64.8282 1.22952 63.2156 2.84507C61.603 4.46062 60.6973 6.65 60.6973 8.93264V437.305C60.6973 439.587 61.603 441.777 63.2156 443.392C64.8282 445.008 67.0159 445.918 69.2985 445.922H374.034C376.318 445.918 378.508 445.008 380.123 443.393C381.738 441.778 382.647 439.589 382.651 437.305V8.93264C382.647 6.64855 381.738 4.45921 380.123 2.84411C378.508 1.22901 376.318 0.319814 374.034 0.315642H69.2985Z" fill="#E0E0E0"/>
<path d="M715.416 446.316H410.665C408.276 446.312 405.986 445.361 404.297 443.672C402.608 441.983 401.657 439.694 401.653 437.305V8.93264C401.678 6.55762 402.638 4.2881 404.325 2.61602C406.012 0.943938 408.29 0.00402172 410.665 0H715.416C717.787 0.00821376 720.059 0.950473 721.74 2.62255C723.421 4.29462 724.375 6.56179 724.396 8.93264V437.305C724.396 439.689 723.451 441.977 721.768 443.666C720.085 445.355 717.801 446.308 715.416 446.316ZM410.665 0.315642C408.381 0.319814 406.191 1.22901 404.576 2.84411C402.961 4.45921 402.052 6.64855 402.048 8.93264V437.305C402.052 439.589 402.961 441.778 404.576 443.393C406.191 445.008 408.381 445.918 410.665 445.922H715.416C717.7 445.918 719.89 445.008 721.505 443.393C723.12 441.778 724.029 439.589 724.033 437.305V8.93264C724.029 6.64855 723.12 4.45921 721.505 2.84411C719.89 1.22901 717.7 0.319814 715.416 0.315642H410.665Z" fill="#E0E0E0"/>
<path d="M693.322 319.16C673.91 289.601 691.633 257.831 688.682 224.942C685.731 192.052 654.483 184.887 660.401 157.079C667.25 124.757 648.99 93.7454 628.3 93.7454C607.61 93.7454 589.366 124.678 596.215 157.031C602.133 184.887 570.964 192.068 567.934 224.894C564.904 257.721 582.706 289.601 563.278 319.113C543.85 348.626 548.964 387.812 559.901 407.24C562.81 412.395 566.317 417.189 570.348 421.523C577.761 429.48 586.732 435.826 596.704 440.165C606.675 444.504 617.433 446.743 628.308 446.743C639.183 446.743 649.941 444.504 659.912 440.165C669.884 435.826 678.855 429.48 686.268 421.523C690.289 417.184 693.79 412.391 696.699 407.24C707.652 387.86 712.75 348.783 693.322 319.16Z" fill="#E0E0E0"/>
<path d="M628.299 341.587C629.588 341.587 630.864 341.841 632.055 342.334C633.246 342.827 634.329 343.55 635.24 344.462C636.152 345.373 636.875 346.456 637.368 347.647C637.861 348.838 638.115 350.114 638.115 351.403V516.704H618.482V351.403C618.482 350.114 618.736 348.838 619.23 347.647C619.723 346.456 620.446 345.373 621.358 344.462C622.269 343.55 623.351 342.827 624.542 342.334C625.733 341.841 627.01 341.587 628.299 341.587Z" fill="#F0F0F0"/>
<path d="M504.884 516.704H478.196V351.419C478.205 347.876 479.616 344.481 482.121 341.976C484.626 339.471 488.021 338.06 491.564 338.052C495.106 338.06 498.502 339.471 501.007 341.976C503.512 344.481 504.923 347.876 504.931 351.419L504.884 516.704Z" fill="#E0E0E0"/>
<path d="M491.517 472.12C536.989 472.12 573.852 435.257 573.852 389.785C573.852 344.313 536.989 307.45 491.517 307.45C446.044 307.45 409.182 344.313 409.182 389.785C409.182 435.257 446.044 472.12 491.517 472.12Z" fill="#F0F0F0"/>
<path d="M588.266 365.079C592.586 347.687 581.989 330.086 564.598 325.765C547.206 321.445 529.604 332.042 525.284 349.434C520.964 366.826 531.561 384.427 548.953 388.747C566.345 393.067 583.946 382.471 588.266 365.079Z" fill="#F0F0F0"/>
<path d="M443.872 341.128C445.578 330.658 438.472 320.789 428.003 319.084C417.533 317.379 407.664 324.484 405.958 334.953C404.253 345.423 411.358 355.293 421.828 356.998C432.298 358.703 442.167 351.598 443.872 341.128Z" fill="#F0F0F0"/>
<path d="M445.812 341.587C453.255 341.587 459.29 335.553 459.29 328.109C459.29 320.665 453.255 314.631 445.812 314.631C438.368 314.631 432.334 320.665 432.334 328.109C432.334 335.553 438.368 341.587 445.812 341.587Z" fill="#F0F0F0"/>
<path d="M321.954 418.051C309.15 419.957 296.915 424.626 286.097 431.734C286.002 419.234 283.714 407.382 277.843 397.802C268.91 406.498 261.666 417.767 255.748 429.887C253.586 407.177 247.604 385.082 234.363 371.083C214.525 383.567 204.298 404.368 199.438 426.399C191.407 411.544 179.751 398.96 165.553 389.817C153.417 402.6 149.535 420.276 149.866 438.394C136.073 422.328 120.764 409.797 105.834 408.329C102.157 433.722 109.985 457.679 119.943 476.618C126.409 488.769 136.068 498.925 147.879 505.991C159.69 513.058 173.206 516.768 186.97 516.72H251.818C279.452 516.72 305.367 501.98 318.324 477.565C326.515 462.098 330.429 442.197 321.954 418.051Z" fill="#E0E0E0"/>
<path d="M303.425 90.1787C311.427 66.7107 305.003 49.9976 285.481 49.9976C273.203 49.9976 257.973 56.5787 243.138 67.2789C241.465 61.1712 236.746 57.5256 229.155 57.5256C215.788 57.5256 197.37 68.8255 182.929 84.7654C178.864 80.9027 173.481 78.7305 167.873 78.6893C155.074 77.9634 139.592 84.4655 126.13 95.0237C125.455 94.0796 124.565 93.3106 123.532 92.7807C122.5 92.2508 121.356 91.9755 120.196 91.9778C112.826 91.5675 102.835 98.1328 97.8957 106.624C97.5958 107.144 97.3275 107.665 97.0435 108.202H307.308C307.939 100.784 306.629 94.5976 303.425 90.1787Z" fill="#F0F0F0"/>
<path d="M304.073 232.675C307.987 221.217 304.878 213.058 295.314 213.058C289.301 213.058 281.868 216.214 274.624 221.501C274.233 220.028 273.331 218.743 272.079 217.875C270.827 217.007 269.306 216.614 267.79 216.766C261.272 216.766 252.276 222.29 245.206 230.086C243.224 228.193 240.592 227.132 237.851 227.119C231.539 226.756 224.042 229.929 217.461 235.089C217.142 234.633 216.72 234.258 216.229 233.995C215.738 233.732 215.193 233.588 214.636 233.574C211.038 233.369 206.161 236.573 203.746 240.724L203.32 241.481H306.03C306.459 238.406 305.764 235.279 304.073 232.675Z" fill="#F0F0F0"/>
<path d="M540.961 145.968C540.151 145.854 539.334 145.796 538.515 145.795C539.273 134.353 534.901 127.03 525.542 127.03C518.803 127.03 510.518 130.849 502.09 137.304C504.505 115.083 496.772 100.642 479.254 100.642C465.144 100.642 447.263 110.111 429.603 125.357C428.025 116.645 422.849 111.405 414.105 111.405C398.749 111.405 376.923 127.566 359.42 150.356C357.426 147.728 354.868 145.58 351.935 144.07C349.002 142.559 345.768 141.725 342.471 141.628C327.856 140.602 309.691 149.882 293.546 165.001C292.959 163.726 292.024 162.643 290.849 161.875C289.673 161.108 288.305 160.687 286.902 160.661C278.9 160.093 267.963 168.442 261.477 179.6H553.824C560.689 162.681 555.228 147.878 540.961 145.968Z" fill="#F0F0F0"/>
<path d="M394.551 587.976C563.549 587.976 700.55 579.978 700.55 570.111C700.55 560.244 563.549 552.246 394.551 552.246C225.553 552.246 88.5532 560.244 88.5532 570.111C88.5532 579.978 225.553 587.976 394.551 587.976Z" fill="#F5F5F5"/>
<path d="M77.1113 150.813L436.895 202.61L485.172 251.329L77.1113 150.813Z" fill="#FF8219"/>
<path opacity="0.6" d="M77.1113 150.813L436.895 202.61L485.172 251.329L77.1113 150.813Z" fill="white"/>
<path d="M77.1113 150.813L436.895 202.61L420.197 273.061L77.1113 150.813Z" fill="#FF8219"/>
<path opacity="0.2" d="M77.1113 150.813L436.895 202.61L420.197 273.061L77.1113 150.813Z" fill="black"/>
<path d="M412.811 69.2515L433.691 167.1C434.234 169.655 433.741 172.321 432.321 174.514C430.901 176.706 428.669 178.246 426.115 178.795L239.761 218.566C237.206 219.104 234.542 218.61 232.351 217.19C230.159 215.771 228.619 213.542 228.066 210.99L207.171 113.141C206.633 110.584 207.129 107.918 208.552 105.727C209.974 103.535 212.208 101.996 214.762 101.447L401.117 61.6761C403.674 61.1377 406.34 61.6342 408.531 63.0569C410.723 64.4796 412.262 66.7127 412.811 69.2673V69.2515Z" fill="#FF8219"/>
<path opacity="0.4" d="M412.811 69.2515L433.691 167.1C434.234 169.655 433.741 172.321 432.321 174.514C430.901 176.706 428.669 178.246 426.115 178.795L239.761 218.566C237.206 219.104 234.542 218.61 232.351 217.19C230.159 215.771 228.619 213.542 228.066 210.99L207.171 113.141C206.633 110.584 207.129 107.918 208.552 105.727C209.974 103.535 212.208 101.996 214.762 101.447L401.117 61.6761C403.674 61.1377 406.34 61.6342 408.531 63.0569C410.723 64.4796 412.262 66.7127 412.811 69.2673V69.2515Z" fill="black"/>
<path d="M408.218 62.8442L345.958 139.277C340.184 146.363 332.164 151.266 323.224 153.174C314.285 155.083 304.962 153.882 296.797 149.772L208.749 105.424C210.174 103.378 212.323 101.95 214.762 101.431L401.116 61.6605C403.548 61.1429 406.086 61.5659 408.218 62.8442Z" fill="#FF8219"/>
<path d="M77.1113 150.813L373.861 221.343L420.197 273.061L77.1113 150.813Z" fill="#FF8219"/>
<path opacity="0.6" d="M77.1113 150.813L373.861 221.343L420.197 273.061L77.1113 150.813Z" fill="white"/>
<path d="M185.359 218.795L184.562 220.157L217.585 239.5L218.382 238.139L185.359 218.795Z" fill="#FF8219"/>
<path d="M232.962 246.667L232.164 248.028L244.039 254.984L244.836 253.622L232.962 246.667Z" fill="#FF8219"/>
<path d="M77.1113 150.813L373.861 221.343L316.178 290.863L77.1113 150.813Z" fill="#FF8219"/>
<path d="M474.03 316.051C473.63 316.052 473.234 315.977 472.862 315.83L424.538 296.702C423.764 296.391 423.146 295.786 422.817 295.02C422.488 294.255 422.475 293.39 422.781 292.615C423.088 291.839 423.688 291.217 424.452 290.883C425.216 290.549 426.08 290.53 426.858 290.831L475.198 309.959C475.882 310.23 476.45 310.73 476.804 311.375C477.158 312.019 477.276 312.767 477.138 313.489C476.999 314.211 476.613 314.862 476.046 315.33C475.478 315.798 474.765 316.053 474.03 316.051Z" fill="#FF8219"/>
<path opacity="0.3" d="M474.03 316.051C473.63 316.052 473.234 315.977 472.862 315.83L424.538 296.702C423.764 296.391 423.146 295.786 422.817 295.02C422.488 294.255 422.475 293.39 422.781 292.615C423.088 291.839 423.688 291.217 424.452 290.883C425.216 290.549 426.08 290.53 426.858 290.831L475.198 309.959C475.882 310.23 476.45 310.73 476.804 311.375C477.158 312.019 477.276 312.767 477.138 313.489C476.999 314.211 476.613 314.862 476.046 315.33C475.478 315.798 474.765 316.053 474.03 316.051Z" fill="black"/>
<path d="M471.173 288.338C470.777 288.335 470.386 288.255 470.021 288.101L444.06 277.764C443.672 277.613 443.317 277.388 443.017 277.1C442.716 276.812 442.475 276.467 442.309 276.086C442.142 275.704 442.052 275.294 442.044 274.878C442.037 274.461 442.112 274.048 442.265 273.661C442.418 273.274 442.646 272.921 442.936 272.622C443.226 272.323 443.572 272.085 443.954 271.921C444.337 271.756 444.748 271.669 445.164 271.665C445.581 271.66 445.994 271.737 446.38 271.893L472.341 282.183C473.119 282.489 473.744 283.091 474.078 283.858C474.413 284.624 474.429 285.492 474.125 286.27C473.902 286.875 473.501 287.397 472.973 287.767C472.445 288.136 471.817 288.335 471.173 288.338Z" fill="#FF8219"/>
<path opacity="0.5" d="M471.173 288.338C470.777 288.335 470.386 288.255 470.021 288.101L444.06 277.764C443.672 277.613 443.317 277.388 443.017 277.1C442.716 276.812 442.475 276.467 442.309 276.086C442.142 275.704 442.052 275.294 442.044 274.878C442.037 274.461 442.112 274.048 442.265 273.661C442.418 273.274 442.646 272.921 442.936 272.622C443.226 272.323 443.572 272.085 443.954 271.921C444.337 271.756 444.748 271.669 445.164 271.665C445.581 271.66 445.994 271.737 446.38 271.893L472.341 282.183C473.119 282.489 473.744 283.091 474.078 283.858C474.413 284.624 474.429 285.492 474.125 286.27C473.902 286.875 473.501 287.397 472.973 287.767C472.445 288.136 471.817 288.335 471.173 288.338Z" fill="white"/>
<path d="M416.899 315.641C416.505 315.636 416.114 315.561 415.747 315.42L368.606 296.702C368.218 296.552 367.863 296.326 367.562 296.038C367.262 295.75 367.021 295.406 366.854 295.024C366.688 294.643 366.598 294.232 366.59 293.816C366.583 293.4 366.658 292.986 366.811 292.599C366.964 292.212 367.192 291.859 367.482 291.56C367.772 291.262 368.118 291.023 368.5 290.859C368.883 290.695 369.294 290.608 369.71 290.603C370.126 290.598 370.54 290.676 370.926 290.831L418.067 309.486C418.75 309.756 419.319 310.257 419.673 310.901C420.027 311.546 420.145 312.293 420.006 313.016C419.868 313.738 419.482 314.389 418.914 314.857C418.347 315.324 417.634 315.579 416.899 315.578V315.641Z" fill="#FF8219"/>
<path opacity="0.3" d="M416.899 315.641C416.505 315.636 416.114 315.561 415.747 315.42L368.606 296.702C368.218 296.552 367.863 296.326 367.562 296.038C367.262 295.75 367.021 295.406 366.854 295.024C366.688 294.643 366.598 294.232 366.59 293.816C366.583 293.4 366.658 292.986 366.811 292.599C366.964 292.212 367.192 291.859 367.482 291.56C367.772 291.262 368.118 291.023 368.5 290.859C368.883 290.695 369.294 290.608 369.71 290.603C370.126 290.598 370.54 290.676 370.926 290.831L418.067 309.486C418.75 309.756 419.319 310.257 419.673 310.901C420.027 311.546 420.145 312.293 420.006 313.016C419.868 313.738 419.482 314.389 418.914 314.857C418.347 315.324 417.634 315.579 416.899 315.578V315.641Z" fill="black"/>
<path d="M587.565 173.318C591.747 181.478 595.582 189.653 599.228 198.017C602.873 206.382 606.266 214.857 609.233 223.742L610.307 227.104C610.496 227.703 610.764 228.682 610.922 229.376C611.08 230.071 611.222 230.86 611.301 231.523C611.662 234.069 611.847 236.637 611.853 239.208C611.877 243.951 611.656 248.692 611.19 253.412C610.309 262.549 608.875 271.625 606.898 280.589L598.233 279.626C598.123 270.741 598.044 261.761 597.728 253.002C597.586 248.646 597.334 244.274 596.892 240.171C596.692 238.244 596.375 236.331 595.945 234.442C595.866 234 595.74 233.669 595.645 233.306C595.55 232.943 595.456 232.817 595.298 232.343L594.098 229.36C590.8 221.375 587.091 213.326 583.303 205.309L571.846 181.257L587.565 173.318Z" fill="#E4897B"/>
<path d="M598.359 276.849L594.318 284.408L607.228 288.007C607.228 288.007 609.69 281.93 606.755 277.133L598.359 276.849Z" fill="#E4897B"/>
<path d="M589.379 295.298L601.247 296.245L607.228 288.007L594.319 284.408L589.379 295.298Z" fill="#E4897B"/>
<path d="M533.227 118.776C533.054 119.707 532.406 120.354 531.807 120.228C531.207 120.101 530.876 119.265 531.065 118.349C531.254 117.434 531.886 116.771 532.485 116.898C533.085 117.024 533.432 117.86 533.227 118.776Z" fill="#263238"/>
<path d="M532.501 120.354C530.834 122.936 528.822 125.277 526.52 127.314C527.057 127.885 527.712 128.334 528.439 128.628C529.167 128.922 529.95 129.055 530.733 129.018L532.501 120.354Z" fill="#DE5753"/>
<path d="M537.615 114.372C537.466 114.369 537.324 114.306 537.22 114.199C536.767 113.68 536.198 113.276 535.559 113.018C534.92 112.76 534.23 112.657 533.543 112.715C533.412 112.717 533.285 112.671 533.185 112.588C533.084 112.504 533.016 112.388 532.994 112.259C532.971 112.13 532.995 111.998 533.061 111.885C533.127 111.772 533.23 111.686 533.354 111.642C534.231 111.531 535.123 111.638 535.949 111.955C536.775 112.272 537.51 112.788 538.088 113.457C538.19 113.56 538.246 113.699 538.246 113.844C538.246 113.988 538.19 114.127 538.088 114.23C538.025 114.288 537.95 114.331 537.868 114.356C537.786 114.38 537.699 114.386 537.615 114.372Z" fill="#263238"/>
<path d="M559.331 131.669C557.674 140.16 556.017 155.69 561.951 161.355C561.951 161.355 559.631 169.957 543.864 169.957C526.504 169.957 535.595 161.355 535.595 161.355C545.064 159.099 544.796 152.076 543.154 145.495L559.331 131.669Z" fill="#E4897B"/>
<path d="M564.334 166.706C565.581 162.555 566.954 157.805 564.113 156.305C560.957 154.727 543.801 152.991 537.883 156.069C531.965 159.146 533.654 167.59 533.654 167.59L564.334 166.706Z" fill="#263238"/>
<path d="M600.726 560.263C600.236 560.328 599.738 560.294 599.261 560.164C598.784 560.034 598.338 559.81 597.949 559.505C597.811 559.314 597.737 559.085 597.737 558.85C597.737 558.615 597.811 558.386 597.949 558.195C598.039 558.032 598.163 557.889 598.313 557.778C598.462 557.666 598.634 557.588 598.817 557.548C600.521 557.169 603.709 559.347 603.851 559.442C603.892 559.476 603.924 559.52 603.943 559.57C603.962 559.619 603.969 559.673 603.962 559.726C603.953 559.777 603.928 559.824 603.891 559.861C603.855 559.898 603.808 559.922 603.756 559.931C602.761 560.146 601.745 560.257 600.726 560.263ZM599.274 558.053H598.943C598.836 558.075 598.735 558.121 598.648 558.186C598.561 558.252 598.489 558.335 598.438 558.432C598.185 558.874 598.343 559.063 598.438 559.126C598.927 559.789 601.294 559.789 603.03 559.505C601.899 558.758 600.616 558.273 599.274 558.085V558.053Z" fill="#FF8219"/>
<path d="M603.693 559.979H603.567C602.368 559.316 600.048 556.822 600.284 555.497C600.325 555.292 600.435 555.107 600.596 554.975C600.757 554.843 600.96 554.77 601.168 554.771C601.376 554.748 601.586 554.767 601.787 554.827C601.987 554.887 602.174 554.985 602.336 555.118C603.678 556.222 603.914 559.568 603.914 559.71C603.921 559.76 603.912 559.811 603.89 559.856C603.867 559.901 603.832 559.938 603.788 559.963C603.758 559.975 603.726 559.98 603.693 559.979ZM601.358 555.244H601.294C600.931 555.244 600.9 555.465 600.884 555.528C600.742 556.301 602.226 558.211 603.409 559.111C603.329 557.792 602.857 556.528 602.052 555.481C601.946 555.398 601.824 555.337 601.694 555.302C601.564 555.266 601.428 555.258 601.294 555.276L601.358 555.244Z" fill="#FF8219"/>
<path d="M531.113 560.263C529.629 560.263 528.193 560.058 527.704 559.395C527.58 559.219 527.514 559.01 527.514 558.795C527.514 558.58 527.58 558.371 527.704 558.195C527.799 558.033 527.927 557.892 528.079 557.781C528.231 557.67 528.404 557.591 528.587 557.548C530.497 557.027 534.569 559.332 534.742 559.426C534.789 559.456 534.825 559.499 534.848 559.55C534.87 559.6 534.878 559.656 534.869 559.71C534.86 559.766 534.833 559.817 534.794 559.856C534.754 559.896 534.703 559.922 534.648 559.931C533.482 560.151 532.299 560.262 531.113 560.263ZM529.266 558.022C529.093 557.997 528.918 557.997 528.745 558.022C528.634 558.044 528.529 558.089 528.437 558.154C528.344 558.219 528.266 558.303 528.209 558.4C528.003 558.748 528.082 558.905 528.209 559C528.729 559.726 531.665 559.773 533.843 559.474C532.424 558.708 530.869 558.225 529.266 558.053V558.022Z" fill="#FF8219"/>
<path d="M534.616 559.979H534.505C533.101 559.363 530.339 556.822 530.544 555.544C530.544 555.228 530.812 554.85 531.57 554.771C531.852 554.728 532.139 554.748 532.412 554.83C532.685 554.912 532.936 555.053 533.148 555.244C534.632 556.444 534.931 559.568 534.947 559.71C534.953 559.759 534.946 559.807 534.927 559.852C534.907 559.896 534.876 559.935 534.837 559.963C534.803 559.981 534.766 559.992 534.728 559.995C534.69 559.997 534.652 559.992 534.616 559.979ZM531.791 555.244H531.617C531.128 555.244 531.096 555.497 531.081 555.56C530.954 556.349 532.848 558.322 534.237 559.174C534.101 557.848 533.548 556.6 532.659 555.607C532.434 555.412 532.151 555.296 531.854 555.276L531.791 555.244Z" fill="#FF8219"/>
<path d="M547.367 559.694H535.767L534.615 532.849H546.215L547.367 559.694Z" fill="#E4897B"/>
<path d="M616.982 559.694H605.382L599.559 532.849H611.143L616.982 559.694Z" fill="#E4897B"/>
<path d="M604.562 558.353H617.582C617.815 558.355 618.039 558.435 618.22 558.582C618.401 558.728 618.526 558.931 618.576 559.158L620.865 569.464C620.917 569.715 620.912 569.974 620.85 570.223C620.788 570.472 620.671 570.703 620.507 570.9C620.343 571.098 620.137 571.255 619.904 571.362C619.671 571.468 619.417 571.521 619.16 571.515C614.615 571.436 612.406 571.168 606.677 571.168C603.157 571.168 595.898 571.547 591.021 571.547C586.144 571.547 585.529 566.812 587.517 566.291C596.45 564.334 599.812 561.636 602.668 559.079C603.187 558.61 603.862 558.351 604.562 558.353Z" fill="#263238"/>
<path d="M535.848 558.353H548.473C548.706 558.355 548.931 558.435 549.111 558.582C549.292 558.728 549.417 558.931 549.467 559.158L551.756 569.464C551.811 569.712 551.808 569.97 551.749 570.218C551.691 570.465 551.576 570.697 551.415 570.894C551.255 571.091 551.051 571.25 550.82 571.357C550.59 571.465 550.338 571.519 550.083 571.515C545.522 571.436 538.925 571.168 533.18 571.168C526.473 571.168 520.665 571.547 512.79 571.547C508.055 571.547 506.714 566.812 508.702 566.291C517.777 564.303 525.179 564.098 533.023 559.268C533.858 558.7 534.838 558.383 535.848 558.353Z" fill="#263238"/>
<path d="M530.276 181.714C520.581 180.963 510.935 179.683 501.379 177.879C496.645 176.964 491.815 175.938 487.018 174.644C482.1 173.385 477.271 171.804 472.561 169.909C471.346 169.404 470.115 168.852 468.9 168.331C467.532 167.657 466.214 166.887 464.954 166.027C462.682 164.528 460.725 162.965 458.784 161.419C454.917 158.262 451.335 155.106 447.736 151.87C440.682 145.337 433.99 138.582 427.535 131.48L433.343 124.994L456.243 141.454C460.015 144.169 463.834 146.836 467.59 149.345C469.452 150.592 471.362 151.76 473.114 152.754C473.846 153.172 474.605 153.541 475.386 153.859C476.317 154.222 477.264 154.585 478.259 154.932C486.788 157.559 495.511 159.511 504.346 160.772C513.358 162.192 522.669 163.36 531.665 164.307L530.276 181.714Z" fill="#E4897B"/>
<path d="M582.704 163.975C593.578 166.469 604.563 198.238 604.563 198.238L582.199 214.288C582.199 214.288 575.887 199.485 569.795 186.544C563.419 172.987 571.594 161.434 582.704 163.975Z" fill="#FF8219"/>
<path opacity="0.4" d="M582.704 163.975C593.578 166.469 604.563 198.238 604.563 198.238L582.199 214.288C582.199 214.288 575.887 199.485 569.795 186.544C563.419 172.987 571.594 161.434 582.704 163.975Z" fill="black"/>
<path d="M576.439 181.335L572.004 191.262C576.596 201.174 580.795 210.99 581.915 213.61C581.757 201.884 579.532 187.333 576.439 181.335Z" fill="#FF8219"/>
<path opacity="0.6" d="M576.439 181.335L572.004 191.262C576.596 201.174 580.795 210.99 581.915 213.61C581.757 201.884 579.532 187.333 576.439 181.335Z" fill="black"/>
<path d="M517.76 164.575C517.76 164.575 505.419 178.51 517.066 264.791H579.074C579.515 255.322 573.534 208.828 582.703 163.975C575.849 162.655 568.917 161.78 561.95 161.355C553.172 160.85 544.372 160.85 535.594 161.355C529.575 161.962 523.612 163.038 517.76 164.575Z" fill="#FF8219"/>
<path opacity="0.4" d="M517.76 164.575C517.76 164.575 505.419 178.51 517.066 264.791H579.074C579.515 255.322 573.534 208.828 582.703 163.975C575.849 162.655 568.917 161.78 561.95 161.355C553.172 160.85 544.372 160.85 535.594 161.355C529.575 161.962 523.612 163.038 517.76 164.575Z" fill="black"/>
<path d="M513.168 181.335C512.758 184.602 512.442 188.469 512.237 193.03C518.361 191.192 524.179 188.459 529.503 184.918L513.168 181.335Z" fill="#FF8219"/>
<path opacity="0.6" d="M513.168 181.335C512.758 184.602 512.442 188.469 512.237 193.03C518.361 191.192 524.179 188.459 529.503 184.918L513.168 181.335Z" fill="black"/>
<path d="M539.745 183.072C531.444 190.426 499.754 189.684 499.754 189.684L498.712 159.004C509.414 160.528 520.208 161.309 531.018 161.34C548.678 160.977 548.804 174.96 539.745 183.072Z" fill="#FF8219"/>
<path opacity="0.4" d="M539.745 183.072C531.444 190.426 499.754 189.684 499.754 189.684L498.712 159.004C509.414 160.528 520.208 161.309 531.018 161.34C548.678 160.977 548.804 174.96 539.745 183.072Z" fill="black"/>
<path d="M433.642 125.057L425.751 115.761L417.244 125.23C417.244 125.23 422.484 134.037 430.801 132.648L433.642 125.057Z" fill="#E4897B"/>
<path d="M414.451 104.919L411.39 117.055L417.182 125.167L425.688 115.761L414.451 104.919Z" fill="#E4897B"/>
<path d="M534.615 532.865L535.215 546.69H546.815L546.215 532.865H534.615Z" fill="#CE6F64"/>
<path d="M611.158 532.865H599.559L602.557 546.69H614.157L611.158 532.865Z" fill="#CE6F64"/>
<path d="M541.592 107.318C531.192 102.583 527.909 81.5457 557.832 86.8012C557.832 86.8012 553.318 91.7883 562.472 94.9447C571.625 98.1011 563.971 117.592 541.592 107.318Z" fill="#263238"/>
<path d="M564.192 123.1C561.209 134.147 560.041 140.871 553.145 145.495C542.823 152.439 529.992 144.469 529.582 132.68C529.219 122.09 534.159 105.692 546.074 103.451C548.704 102.936 551.423 103.102 553.97 103.936C556.517 104.769 558.809 106.241 560.625 108.211C562.442 110.182 563.724 112.585 564.348 115.191C564.973 117.797 564.919 120.52 564.192 123.1Z" fill="#E4897B"/>
<path d="M557.42 92.3248C564.507 96.2703 574.102 98.6376 573.203 104.256C572.019 111.121 578.995 106.829 577.369 117.04C576.312 123.715 564.002 143.948 555.274 142.969C542.238 141.391 543.895 121.569 543.848 111.121C543.816 104.95 543.532 84.5443 557.42 92.3248Z" fill="#263238"/>
<path d="M542.285 101.179C539.129 101.92 534.947 120.117 547.178 121.79C561.239 123.7 542.285 101.179 542.285 101.179Z" fill="#263238"/>
<path d="M542.602 107.633C538.735 107.981 529.976 103.325 531.049 96.3176C531.049 96.2702 536.589 104.508 542.602 107.633Z" fill="#263238"/>
<path d="M548.346 123.242C547.16 125.844 545.145 127.98 542.618 129.318C539.288 131.054 537.409 128.529 538.167 125.183C538.846 122.184 541.402 117.655 544.827 117.292C548.252 116.929 549.719 120.085 548.346 123.242Z" fill="#E4897B"/>
<path d="M565.706 110.474C568.065 109.451 570.132 107.858 571.724 105.839C573.316 103.82 574.383 101.438 574.828 98.906C574.828 98.906 580.036 113.378 565.706 110.474Z" fill="#263238"/>
<path d="M578.868 110.237C577.77 109.5 576.506 109.046 575.19 108.917C573.873 108.787 572.545 108.986 571.324 109.496C571.324 109.496 576.185 103.199 578.868 110.237Z" fill="#263238"/>
<path d="M539.066 264.791C539.066 264.791 552.229 353.392 559.441 386.581C567.332 422.88 597.16 544.023 597.16 544.023H618.387C618.387 544.023 598.738 425.863 594.225 389.817C589.332 350.756 579.074 264.728 579.074 264.728L539.066 264.791Z" fill="#FF8219"/>
<path opacity="0.5" d="M539.066 264.791C539.066 264.791 552.229 353.392 559.441 386.581C567.332 422.88 597.16 544.023 597.16 544.023H618.387C618.387 544.023 598.738 425.863 594.225 389.817C589.332 350.756 579.074 264.728 579.074 264.728L539.066 264.791Z" fill="white"/>
<path d="M593.767 536.195C593.672 536.195 595.96 544.354 595.96 544.354H619.854L619.412 537.079L593.767 536.195Z" fill="#FF8219"/>
<path opacity="0.1" d="M593.767 536.195C593.672 536.195 595.96 544.354 595.96 544.354H619.854L619.412 537.079L593.767 536.195Z" fill="black"/>
<path d="M547.384 296.355C562.598 299.338 560.988 356.075 559.157 385.256C554.77 364.628 548.346 324.937 543.959 296.766C545.02 296.243 546.229 296.098 547.384 296.355Z" fill="#FF8219"/>
<path opacity="0.4" d="M547.384 296.355C562.598 299.338 560.988 356.075 559.157 385.256C554.77 364.628 548.346 324.937 543.959 296.766C545.02 296.243 546.229 296.098 547.384 296.355Z" fill="white"/>
<path d="M517.067 264.791C517.067 264.791 515.489 351.466 516.735 386.834C518.045 423.606 530.939 544.023 530.939 544.023H550.572C550.572 544.023 551.298 425.752 552.15 389.643C553.113 350.267 557.863 264.791 557.863 264.791H517.067Z" fill="#FF8219"/>
<path opacity="0.5" d="M517.067 264.791C517.067 264.791 515.489 351.466 516.735 386.834C518.045 423.606 530.939 544.023 530.939 544.023H550.572C550.572 544.023 551.298 425.752 552.15 389.643C553.113 350.267 557.863 264.791 557.863 264.791H517.067Z" fill="white"/>
<path d="M535.01 529.914C534.962 529.914 534.916 529.896 534.881 529.864C534.846 529.832 534.824 529.788 534.82 529.74C531.348 496.408 523.189 415.762 522.195 386.834C521.137 357.305 522.1 291.052 522.416 271.451C522.416 271.401 522.436 271.353 522.471 271.317C522.507 271.282 522.555 271.262 522.605 271.262C522.657 271.262 522.707 271.281 522.745 271.316C522.783 271.351 522.806 271.399 522.81 271.451C522.495 291.052 521.532 357.305 522.589 386.818C523.615 415.746 531.774 496.361 535.215 529.693C535.216 529.746 535.197 529.798 535.162 529.839C535.127 529.879 535.079 529.906 535.026 529.914H535.01Z" fill="#FF8219"/>
<path opacity="0.4" d="M535.01 529.914C534.962 529.914 534.916 529.896 534.881 529.864C534.846 529.832 534.824 529.788 534.82 529.74C531.348 496.408 523.189 415.762 522.195 386.834C521.137 357.305 522.1 291.052 522.416 271.451C522.416 271.401 522.436 271.353 522.471 271.317C522.507 271.282 522.555 271.262 522.605 271.262C522.657 271.262 522.707 271.281 522.745 271.316C522.783 271.351 522.806 271.399 522.81 271.451C522.495 291.052 521.532 357.305 522.589 386.818C523.615 415.746 531.774 496.361 535.215 529.693C535.216 529.746 535.197 529.798 535.162 529.839C535.127 529.879 535.079 529.906 535.026 529.914H535.01Z" fill="white"/>
<path d="M527.119 536.195C527.04 536.195 528.239 544.354 528.239 544.354H552.118L552.765 537.079L527.119 536.195Z" fill="#FF8219"/>
<path opacity="0.1" d="M527.119 536.195C527.04 536.195 528.239 544.354 528.239 544.354H552.118L552.765 537.079L527.119 536.195Z" fill="black"/>
</svg>
